SplineFontDB: 3.2
FontName: Untitled1
FullName: Untitled1
FamilyName: Untitled1
Weight: Regular
Copyright: Copyright (c) 2023, twelve
UComments: "2023-7-8: Created with FontForge (http://fontforge.org)"
Version: 001.000
ItalicAngle: 0
UnderlinePosition: -86.4
UnderlineWidth: 43.2
Ascent: 0
Descent: 864
InvalidEm: 0
LayerCount: 2
Layer: 0 0 "Back" 1
Layer: 1 1 "Fore" 0
XUID: [1021 677 1622773792 2229825]
StyleMap: 0x0000
FSType: 0
OS2Version: 0
OS2_WeightWidthSlopeOnly: 0
OS2_UseTypoMetrics: 1
CreationTime: 1688857346
ModificationTime: 1689445677
OS2TypoAscent: 0
OS2TypoAOffset: 1
OS2TypoDescent: 0
OS2TypoDOffset: 1
OS2TypoLinegap: 78
OS2WinAscent: 0
OS2WinAOffset: 1
OS2WinDescent: 0
OS2WinDOffset: 1
HheadAscent: 0
HheadAOffset: 1
HheadDescent: 0
HheadDOffset: 1
MarkAttachClasses: 1
DEI: 91125
Encoding: Custom
UnicodeInterp: none
NameList: AGL For New Fonts
DisplaySize: -48
AntiAlias: 1
FitToEm: 1
WinInfo: 0 27 11
BeginPrivate: 0
EndPrivate
BeginChars: 165 162

StartChar: eyebrow.13
Encoding: 15 -1 0
Width: 864
GlyphClass: 5
Flags: W
LayerCount: 2
Back
SplineSet
5.8314261128 -23.2853812618 m 5
 5.8314261128 -23.2853812618 5.83359665285 -23.2940484132 5.81245051345 -23.2901251617 c 1
 3.96614122503 -23.7609122709 2.01233346598 -24.008800147 0.00108527002429 -24.008800147 c 1
 -13.2473398977 -24.008800147 -24.0033813013 -13.2527587434 -24.0033813013 -0.00433357566378 c 1
 -24.0033813013 11.2328433961 -16.2652090599 20.6769355205 -5.8314261128 23.2853812618 c 1
 -5.8314261128 23.2853812618 -5.96332255109 23.2517728656 -5.91115970543 23.2652546695 c 1
 -5.85588158214 23.2795416359 -3.67888864072 23.8446529662 0.100196149161 25.114758598 c 1
 3.50132956663 26.2578392507 8.19982496417 27.9719360955 13.8176101408 30.3634430382 c 1
 19.4354583357 32.7549768079 25.9719623664 35.8238607971 33.0534937519 39.66926733 c 1
 38.7188176825 42.7456462186 44.7326968248 46.3186849405 50.9089731424 50.4362024856 c 1
 62.0284206749 57.8491675072 73.6638489507 67.0211503294 84.8054437021 78.2417634832 c 1
 90.9961992535 84.4764251024 97.0369434376 91.3441818967 102.769155593 98.9091421566 c 1
 109.934814975 108.365862701 116.620572793 118.911450657 122.519752004 130.70980908 c 9
 122.544003939 130.758312949 l 17
 126.482562047 138.635429165 134.627050937 144.049661279 144.026122598 144.049661279 c 1
 157.273236157 144.049661279 168.0282127 133.294684736 168.0282127 120.047571177 c 1
 168.0282127 116.199529278 167.12071291 112.561772712 165.480247996 109.29019092 c 1
 158.210702927 94.7511007837 149.921327099 81.6688542288 141.048821808 69.9595615324 c 1
 133.950502226 60.5917111996 126.480374816 52.1022230135 118.860528626 44.4283353612 c 1
 105.143040243 30.6135598266 90.9482597092 19.4439280575 77.486088586 10.4691473087 c 1
 70.0059100949 5.48236164793 62.7487017599 1.17142704698 55.9089152548 -2.54270740763 c 1
 47.3590585957 -7.18544255381 39.4610137092 -10.8961690255 32.5845304543 -13.8235072786 c 1
 25.7079841812 -16.7508723587 19.8523655964 -18.8949090986 15.3829808389 -20.3970163725 c 1
 9.79634106831 -22.2746198216 6.37509893212 -23.1494630568 5.8314261128 -23.2853812618 c 5
0 0 m 17
 0 0 96 24 144 120 c 1033
EndSplineSet
Fore
SplineSet
7 -23 m 1,1,2
 114 11 114 11 166 110 c 1,3,4
 168 115 168 115 168 120 c 3,5,6
 168 130 168 130 161 137 c 129,-1,7
 154 144 154 144 144 144 c 131,-1,8
 134 144 134 144 127 137 c 1,9,10
 124 134 124 134 122 130 c 1,11,12
 81 51 81 51 -7 23 c 1,13,14
 -13 21 -13 21 -17 17 c 1,15,16
 -24 10 -24 10 -24 0 c 131,-1,17
 -24 -10 -24 -10 -17 -17 c 129,-1,18
 -10 -24 -10 -24 0 -24 c 3,19,20
 4 -24 4 -24 7 -23 c 1,1,2
EndSplineSet
Colour: ff00ff
EndChar

StartChar: eyebrow.12b
Encoding: 16 -1 1
Width: 864
GlyphClass: 5
Flags: W
LayerCount: 2
Back
SplineSet
5.83142609649 23.2853812659 m 4
 16.2863551915 20.6808587817 24.0245274409 11.2367666534 24.0245274409 -0.00041032424048 c 0
 24.0245274409 -13.2488354919 13.2684860373 -24.0048768955 0.0200608696366 -24.0048768955 c 0
 -1.99118732046 -24.0048768955 -3.94499507399 -23.7569890209 -5.81245049688 -23.2901251658 c 2
 -5.83142609649 -23.2853812659 l 1
 -5.83142609649 -23.2853812659 -5.75222579672 -23.3049189376 -5.79712945513 -23.2939367678 c 0
 -5.92277131018 -23.26320831 -7.77061051583 -22.8144055961 -10.9526046839 -22.1924451305 c 0
 -13.8161762229 -21.632724341 -17.7604482126 -20.9328800569 -22.4959267622 -20.2682514886 c 0
 -27.2310945183 -19.6036665404 -32.7576609216 -18.9746871989 -38.7757879122 -18.5495656455 c 0
 -43.5899673713 -18.2094911583 -48.7184353201 -18 -54 -18 c 0
 -58.5845150254 -18 -63.2922595014 -18.1578401133 -68.0188758573 -18.51920222 c 0
 -71.8001212626 -18.8082882601 -75.5931809216 -19.227567773 -79.3441593038 -19.7958978309 c 0
 -83.0951752852 -20.3642335856 -86.80373041 -21.0816900279 -90.4174793649 -21.9614416462 c 0
 -93.3085352446 -22.665256748 -96.1387160832 -23.472790749 -98.8836665386 -24.3877742341 c 0
 -102.589785802 -25.6231473219 -106.138836809 -27.0541210455 -109.485653615 -28.6846215409 c 0
 -112.461214903 -30.1342539628 -115.276580607 -31.7406596393 -117.918770447 -33.5108396309 c 0
 -121.222682124 -35.7243514143 -124.255969151 -38.1904391507 -127.032765 -40.967235 c 0
 -131.376168137 -45.3106381374 -137.374991601 -47.9986209489 -143.996672904 -47.9986209489 c 0
 -157.240035511 -47.9986209489 -167.991966757 -37.2466897028 -167.991966757 -24.0033270959 c 0
 -167.991966757 -17.3816457925 -165.303983946 -11.3828223293 -160.967235 -7.032765 c 0
 -155.842796281 -1.90832628135 -150.324541369 2.55135949232 -144.587173455 6.39520664223 c 0
 -139.996339623 9.47091379737 -135.265249559 12.1546099384 -130.463134679 14.4941018031 c 0
 -125.060065797 17.12636613 -119.566592799 19.3241075414 -114.054605066 21.1614367855 c 0
 -109.971328117 22.5225291019 -105.876939719 23.6859884316 -101.794660742 24.6798016656 c 0
 -96.6917411266 25.9220854671 -91.6074314012 26.89953164 -86.582308545 27.660913891 c 0
 -81.5571480896 28.4223018388 -76.5907949235 28.9675557221 -71.7222758091 29.3397666636 c 0
 -65.6366865152 29.8050257839 -59.7035508182 30 -54 30 c 0
 -47.4297128281 30 -41.1745502327 29.7412698506 -35.3507849341 29.3298780414 c 0
 -28.0714809775 28.8156667244 -21.4657504749 28.0627429007 -15.7756781761 27.2641362622 c 0
 -10.0859166708 26.465573244 -5.31200545673 25.6209375199 -1.70637345293 24.916171753 c 0
 2.80032790385 24.0352807374 5.48178837658 23.3727906958 5.83142609649 23.2853812659 c 4
0 0 m 17
 0 0 -96 24 -144 -24 c 1033
EndSplineSet
Fore
SplineSet
-144 -24 m 1049,0,-1
-161 -7 m 1,1,2
 -132 21 -132 21 -87.5 27.5 c 129,-1,3
 -43 34 -43 34 7 23 c 5,4,5
 13 21 13 21 17 17 c 5,6,7
 24 10 24 10 24 0 c 135,-1,8
 24 -10 24 -10 17 -17 c 133,-1,9
 10 -24 10 -24 -0 -24 c 7,10,11
 -4 -24 -4 -24 -7 -23 c 5,12,13
 -46 -15 -46 -15 -78 -19.5 c 129,-1,14
 -110 -24 -110 -24 -127 -41 c 1,15,16
 -134 -48 -134 -48 -144 -48 c 131,-1,17
 -154 -48 -154 -48 -161 -41 c 129,-1,18
 -168 -34 -168 -34 -168 -24 c 131,-1,19
 -168 -14 -168 -14 -161 -7 c 1,1,2
EndSplineSet
Colour: ff00ff
EndChar

StartChar: eyebrow.15
Encoding: 17 -1 2
Width: 864
GlyphClass: 5
Flags: W
LayerCount: 2
Back
SplineSet
0 -24 m 0
 -13.245960024 -24 -24.000000024 -13.24596 -24.000000024 0 c 0
 -24.000000024 13.24596 -13.245960024 24 -2.4000000012e-08 24 c 2
 0 24 l 2
 0.0001953125 24 -0.258670434394 23.9982217383 -0.258670434394 23.9982217383 c 1
 -0.258670434394 23.9982217383 -0.291049530209 23.9974760732 -0.269862840249 23.9980330217 c 0
 -0.198867012659 23.9998993359 0.673301822821 24.02556228 2.224758882 24.1853113678 c 0
 3.62112425528 24.3290911091 5.56760321835 24.5814407623 7.97696088527 25.0211045701 c 0
 12.8573364326 25.9116840495 19.6292754899 27.5701237626 27.6103879471 30.6397824 c 0
 33.9968361486 33.0961086313 41.1581613823 36.4537999039 48.7850233658 41.0601224881 c 0
 53.0227305859 43.619529819 57.4052811616 46.5651430963 61.8836508786 49.9630858611 c 0
 67.4817061045 54.2105849408 73.230301368 59.164771368 79.032765 64.967235 c 0
 83.3761681374 69.3106381374 89.3749916006 71.9986209489 95.9966729041 71.9986209489 c 0
 109.240035511 71.9986209489 119.991966757 61.2466897028 119.991966757 48.0033270959 c 0
 119.991966757 41.3816457925 117.303983946 35.3828223293 112.967235 31.032765 c 0
 101.917141166 19.982671166 90.7464841803 11.0928533247 79.9660986327 3.99178025066 c 0
 71.3413557661 -1.68936436795 62.9691958555 -6.22642954009 55.1049188675 -9.83974599402 c 0
 40.9458548403 -16.3452618984 28.4448736943 -19.8568554479 18.9475285284 -21.7563244811 c 0
 14.1972275474 -22.7063846773 10.194087029 -23.2539948715 7.09422520878 -23.5703073022 c 0
 3.21924899468 -23.9657130383 0.755218442327 -23.9999999996 0 -24 c 0
0 0 m 0
 0 0 48 0 96 48 c 1024
EndSplineSet
Fore
SplineSet
96 48 m 1049,0,-1
0 24 m 1,1,2
 16 25 16 25 37.5 35 c 128,-1,3
 59 45 59 45 79 65 c 1,4,5
 86 72 86 72 96 72 c 131,-1,6
 106 72 106 72 113 65 c 128,-1,7
 120 58 120 58 120 48 c 131,-1,8
 120 38 120 38 113 31 c 1,9,10
 83 2 83 2 52.5 -11 c 128,-1,11
 22 -24 22 -24 0 -24 c 1,12,13
 -10 -24 -10 -24 -17 -17 c 128,-1,14
 -24 -10 -24 -10 -24 0 c 131,-1,15
 -24 10 -24 10 -17 17 c 128,-1,16
 -10 24 -10 24 0 24 c 1,1,2
EndSplineSet
Colour: ff00ff
EndChar

StartChar: eyebrow.14
Encoding: 18 -1 3
Width: 864
GlyphClass: 5
Flags: W
LayerCount: 2
Back
SplineSet
-175.032765 -64.967235 m 4
 -179.382822329 -69.3039839455 -185.381645793 -71.991966757 -192.003327096 -71.991966757 c 4
 -205.246689703 -71.991966757 -215.998620949 -61.2400355109 -215.998620949 -47.9966729041 c 4
 -215.998620949 -41.3749916006 -213.310638137 -35.3761681374 -208.967235 -31.032765 c 4
 -202.102738627 -24.1682686272 -194.862697045 -18.060381462 -187.390971066 -12.652193153 c 4
 -181.413218763 -8.32537359171 -175.287501076 -4.44566562248 -169.080890838 -0.972241544216 c 4
 -157.907694372 5.28064822115 -146.476836265 10.2170374187 -135.11610808 14.107697756 c 4
 -128.803820868 16.269439952 -122.511246327 18.1088139905 -116.287026878 19.6713594259 c 4
 -108.506658111 21.624564933 -100.832843823 23.1454574417 -93.3551956801 24.3182378908 c 4
 -85.8774854962 25.4910280702 -78.5955593895 26.3156705668 -71.5967842761 26.8712700138 c 4
 -62.8483457735 27.56576691 -54.5419255229 27.84 -46.848 27.84 c 4
 -33.5538095921 27.84 -22.1114456849 27.0232158888 -13.397121566 26.1059186131 c 4
 -2.50563784325 24.9594466423 4.1251019596 23.6541431376 4.72530666123 23.5341021878 c 4
 15.7134088763 21.3364815713 24.0030475741 11.6268154349 24.0030475741 -0.00372104078026 c 4
 24.0030475741 -13.2517753955 13.2473072236 -24.0075157459 -0.000747131063058 -24.0075157459 c 4
 -1.61826501004 -24.0075157459 -3.19862964545 -23.8471785491 -4.68975694594 -23.5412121315 c 4
 -4.72680092336 -23.5415442694 -4.72530666123 -23.5341021878 -4.72530666123 -23.5341021878 c 5
 -4.72530666123 -23.5341021878 -4.64561894052 -23.5498096636 -4.68030304483 -23.5430457829 c 4
 -4.73521907389 -23.5323363966 -6.18048150731 -23.2517559108 -8.7861330065 -22.8573870352 c 4
 -11.1311495974 -22.5024656053 -14.4160607929 -22.0554081894 -18.4711911912 -21.628552358 c 4
 -25.7700357966 -20.8602529258 -35.5661904079 -20.16 -46.848 -20.16 c 4
 -53.3762966993 -20.16 -60.4098144663 -20.3938195443 -67.7531482499 -20.9767718642 c 4
 -73.6277909655 -21.4431317902 -79.7004566197 -22.1328624789 -85.8711807869 -23.1006673985 c 4
 -92.0419669949 -24.0684820484 -98.3104296486 -25.3144065523 -104.578849071 -26.8880480727 c 4
 -109.593660175 -28.1469802592 -114.608283384 -29.6155030521 -119.575447475 -31.3165866448 c 4
 -128.517731636 -34.3790127274 -137.299987384 -38.1936797712 -145.690637892 -42.8893649182 c 4
 -150.352831529 -45.4984824579 -154.895526705 -48.3795626101 -159.289882604 -51.5602874213 c 4
 -164.78329188 -55.5365295779 -170.045409521 -59.9798795209 -175.032765 -64.967235 c 4
-192 -48 m 17
 -120 24 0 0 0 0 c 1033
EndSplineSet
Fore
SplineSet
7 23 m 1,0,1
 13 21 13 21 17 17 c 0,2,3
 24 10 24 10 24 0 c 131,-1,4
 24 -10 24 -10 17 -17 c 128,-1,5
 10 -24 10 -24 -0 -24 c 3,6,7
 -3 -24 -3 -24 -8 -23 c 1,8,9
 -27 -20 -27 -20 -47 -20 c 1,10,11
 -131 -21 -131 -21 -175 -65 c 1,12,13
 -182 -72 -182 -72 -192 -72 c 131,-1,14
 -202 -72 -202 -72 -209 -65 c 128,-1,15
 -216 -58 -216 -58 -216 -48 c 131,-1,16
 -216 -38 -216 -38 -209 -31 c 1,17,18
 -150 27 -150 27 -47 28 c 1,19,20
 -10 27 -10 27 7 23 c 1,0,1
EndSplineSet
Colour: ff00ff
EndChar

StartChar: circle32
Encoding: 14 -1 4
Width: 864
GlyphClass: 5
Flags: W
LayerCount: 2
Back
SplineSet
-354.76953125 -146.950195312 m 0
 -435.8984375 48.912109375 -342.8125 273.640625 -146.950195312 354.76953125 c 0
 48.912109375 435.8984375 273.640625 342.8125 354.76953125 146.950195312 c 0
 435.8984375 -48.912109375 342.8125 -273.640625 146.950195312 -354.76953125 c 0
 -48.912109375 -435.8984375 -273.640625 -342.8125 -354.76953125 -146.950195312 c 0
0 0 m 1049
-354.76953125 146.950195312 m 0
 -273.640625 342.8125 -48.912109375 435.8984375 146.950195312 354.76953125 c 0
 342.8125 273.640625 435.8984375 48.912109375 354.76953125 -146.950195312 c 0
 273.640625 -342.8125 48.912109375 -435.8984375 -146.950195312 -354.76953125 c 0
 -342.8125 -273.640625 -435.8984375 -48.912109375 -354.76953125 146.950195312 c 0
0 0 m 1049
-271.529296875 271.529296875 m 0
 -121.622070312 421.435546875 121.622070312 421.435546875 271.529296875 271.529296875 c 0
 421.435546875 121.622070312 421.435546875 -121.622070312 271.529296875 -271.529296875 c 0
 121.622070312 -421.435546875 -121.622070312 -421.435546875 -271.529296875 -271.529296875 c 0
 -421.435546875 -121.622070312 -421.435546875 121.622070312 -271.529296875 271.529296875 c 0
0 0 m 1049
-384 0 m 0
 -384 212 -212 384 0 384 c 0
 212 384 384 212 384 0 c 0
 384 -212 212 -384 0 -384 c 0
 -212 -384 -384 -212 -384 0 c 0
0 0 m 1049
EndSplineSet
Fore
SplineSet
-384 0 m 131,-1,1
 -384 158 -384 158 -271 271 c 128,-1,2
 -158 384 -158 384 0 384 c 131,-1,3
 158 384 158 384 271 271 c 128,-1,4
 384 158 384 158 384 0 c 131,-1,5
 384 -158 384 -158 271 -271 c 128,-1,6
 158 -384 158 -384 0 -384 c 131,-1,7
 -158 -384 -158 -384 -271 -271 c 128,-1,0
 -384 -158 -384 -158 -384 0 c 131,-1,1
EndSplineSet
Colour: ff00ff
EndChar

StartChar: SmilingFaceWithHalo.3
Encoding: 47 -1 5
Width: 864
GlyphClass: 5
Flags: W
LayerCount: 2
Back
SplineSet
0 -432 m 5
 0 -670.586914062 193.413085938 -864 432 -864 c 5
 670.586914062 -864 864 -670.586914062 864 -432 c 5
 864 -193.413085938 670.586914062 0 432 0 c 5
 193.413085938 0 0 -193.413085938 0 -432 c 5
656.0390625 -543.095703125 m 5
 651.768554688 -539.231445312 645.384765625 -538.9921875 640.799804688 -542.400390625 c 5
 639.865234375 -543.095703125 546.672851562 -612 432 -612 c 5
 317.615234375 -612 224.111328125 -543.095703125 223.200195312 -542.400390625 c 5
 218.615234375 -538.9921875 212.231445312 -539.280273438 207.9609375 -543.095703125 c 5
 203.711914062 -546.935546875 202.752929688 -553.272460938 205.704101562 -558.168945312 c 5
 208.799804688 -563.327148438 282.912109375 -684 432 -684 c 5
 581.087890625 -684 655.223632812 -563.327148438 658.295898438 -558.168945312 c 5
 661.247070312 -553.247070312 660.311523438 -546.935546875 656.0390625 -543.095703125 c 5
624 -456 m 5
 613.943359375 -456 604.583984375 -449.638671875 601.247070312 -439.583984375 c 5
 596.376953125 -425.208007812 576.791992188 -384 552 -384 c 5
 526.51171875 -384 506.665039062 -427.846679688 502.752929688 -439.583984375 c 5
 498.552734375 -452.134765625 485.087890625 -458.9765625 472.392578125 -454.752929688 c 5
 459.838867188 -450.576171875 453.0234375 -436.9921875 457.223632812 -424.392578125 c 5
 460.247070312 -415.369140625 488.51953125 -336 552 -336 c 5
 615.48046875 -336 643.752929688 -415.369140625 646.752929688 -424.416015625 c 5
 650.953125 -436.9921875 644.161132812 -450.599609375 631.583984375 -454.776367188 c 5
 629.064453125 -455.591796875 626.49609375 -456 624 -456 c 5
384 -456 m 5
 373.943359375 -456 364.583984375 -449.638671875 361.223632812 -439.583984375 c 5
 356.353515625 -425.208007812 336.815429688 -384 312 -384 c 5
 286.51171875 -384 266.688476562 -427.846679688 262.776367188 -439.583984375 c 5
 258.576171875 -452.134765625 245.064453125 -458.9765625 232.416015625 -454.752929688 c 5
 219.838867188 -450.576171875 213.046875 -436.9921875 217.247070312 -424.392578125 c 5
 220.247070312 -415.369140625 248.51953125 -336 312 -336 c 5
 375.48046875 -336 403.752929688 -415.369140625 406.776367188 -424.416015625 c 5
 410.9765625 -436.9921875 404.184570312 -450.599609375 391.607421875 -454.776367188 c 5
 389.064453125 -455.591796875 386.49609375 -456 384 -456 c 5
796.200195312 -199.583984375 m 5
 796.200195312 -199.583984375 579.192382812 -203.447265625 432 -203.447265625 c 5
 338.280273438 -203.447265625 67.056640625 -200.615234375 67.056640625 -200.615234375 c 5
 54.552734375 -221.638671875 l 21
 127.583984375 -266.184570312 272.087890625 -291.646484375 432 -291.646484375 c 5
 590.303710938 -291.646484375 733.823242188 -266.688476562 807.646484375 -223.0078125 c 13
 809.51953125 -221.880859375 l 5
 809.51953125 -221.880859375 800.54296875 -205.943359375 796.200195312 -199.583984375 c 5
570.646484375 -8.2802734375 m 5
 541.560546875 -6.0234375 511.295898438 -4.46484375 480.095703125 -3.7197265625 c 5
 464.231445312 -3.3349609375 448.223632812 -3.095703125 432 -3.095703125 c 5
 415.873046875 -3.095703125 399.935546875 -3.3349609375 384.168945312 -3.6962890625 c 5
 352.919921875 -4.439453125 322.630859375 -6 293.51953125 -8.2568359375 c 5
 128.161132812 -21.119140625 4.056640625 -58.8232421875 4.056640625 -126.888671875 c 5
 4.056640625 -213 202.392578125 -265.392578125 432 -265.392578125 c 5
 661.607421875 -265.392578125 859.943359375 -213 859.943359375 -126.888671875 c 5
 859.943359375 -58.8466796875 735.912109375 -21.1689453125 570.646484375 -8.2802734375 c 5
432 -177.192382812 m 5
 267.334960938 -177.192382812 122.161132812 -157.200195312 122.161132812 -111.52734375 c 5
 122.161132812 -98.6650390625 134.015625 -86.9765625 154.295898438 -76.7529296875 c 5
 181.96875 -62.8076171875 225.768554688 -51.6962890625 278.831054688 -44.376953125 c 5
 324.696289062 -38.087890625 377.184570312 -34.53515625 432 -34.53515625 c 5
 486.984375 -34.53515625 539.638671875 -38.087890625 585.599609375 -44.447265625 c 5
 639.408203125 -51.888671875 683.665039062 -63.2392578125 711.168945312 -77.49609375 c 5
 730.53515625 -87.52734375 741.838867188 -98.953125 741.838867188 -111.52734375 c 5
 741.838867188 -157.200195312 596.665039062 -177.192382812 432 -177.192382812 c 5
585.599609375 -44.47265625 m 21
 639.408203125 -51.912109375 683.665039062 -63.2646484375 711.168945312 -77.51953125 c 13
 712.657226562 -77.927734375 l 5
 657.815429688 -37.7529296875 602.9765625 -16.48828125 570.646484375 -8.2802734375 c 5
 541.560546875 -6.0234375 511.295898438 -4.46484375 480.095703125 -3.7197265625 c 5
 480.52734375 -3.888671875 l 5
 585.599609375 -44.47265625 l 21
154.295898438 -76.7763671875 m 5
 181.96875 -62.8310546875 225.768554688 -51.7197265625 278.831054688 -44.400390625 c 13
 383.615234375 -3.888671875 l 5
 384.168945312 -3.6962890625 l 5
 352.919921875 -4.439453125 322.630859375 -6 293.51953125 -8.2568359375 c 5
 261.192382812 -16.46484375 206.327148438 -37.7041015625 151.46484375 -77.904296875 c 5
 154.295898438 -76.7763671875 l 5
683.327148438 -81 m 5
 667.48828125 -70.369140625 651.0234375 -59.1611328125 635.303710938 -50.7607421875 c 5
 574.727539062 -18.361328125 505.51171875 0 432 0 c 5
 361.704101562 0 295.319335938 -16.7998046875 236.638671875 -46.583984375 c 5
 210.50390625 -59.857421875 191.49609375 -70.560546875 184.560546875 -81 c 5
 683.327148438 -81 l 5
EndSplineSet
Fore
Refer: 9 -1 S 1 0 0 1 552 -360 2
Refer: 9 -1 S 1 0 0 1 312 -360 2
Refer: 11 -1 S 1 0 0 1 432 -684 2
EndChar

StartChar: lickinglipsmouth
Encoding: 46 -1 7
Width: 864
GlyphClass: 5
Flags: W
LayerCount: 2
Back
SplineSet
-287.28515625 186.16796875 m 2
 -287.28515625 186.16796875 -287.293945312 186.166015625 -287.290039062 186.1875 c 0
 -287.760742188 188.034179688 -288.008789062 189.987304688 -288.008789062 191.999023438 c 0
 -288.008789062 205.247070312 -277.252929688 216.00390625 -264.00390625 216.00390625 c 0
 -252.767578125 216.00390625 -243.323242188 208.265625 -240.71484375 197.83203125 c 5
 -240.71484375 197.83203125 -240.747070312 197.958984375 -240.728515625 197.887695312 c 0
 -240.678710938 197.694335938 -239.91796875 194.783203125 -238.248046875 189.861328125 c 0
 -236.744140625 185.432617188 -234.50390625 179.376953125 -231.390625 172.208984375 c 0
 -225.784179688 159.303710938 -217.34375 142.814453125 -205.345703125 125.673828125 c 0
 -190.3359375 104.231445312 -169.846679688 81.853515625 -142.290039062 63.603515625 c 0
 -123.142578125 50.923828125 -100.533203125 40.169921875 -73.5810546875 33.0546875 c 0
 -52.0166015625 27.3623046875 -27.640625 24 0 24 c 0
 27.640625 24 52.0166015625 27.3623046875 73.5810546875 33.0546875 c 0
 100.533203125 40.169921875 123.142578125 50.923828125 142.290039062 63.603515625 c 0
 169.846679688 81.853515625 190.3359375 104.231445312 205.345703125 125.673828125 c 0
 217.34375 142.814453125 225.784179688 159.303710938 231.390625 172.208984375 c 0
 234.50390625 179.376953125 236.744140625 185.432617188 238.248046875 189.861328125 c 0
 239.91796875 194.783203125 240.678710938 197.694335938 240.728515625 197.887695312 c 0
 240.747070312 197.958984375 240.71484375 197.83203125 240.71484375 197.83203125 c 0
 243.323242188 208.265625 252.767578125 216.00390625 264.00390625 216.00390625 c 0
 277.252929688 216.00390625 288.008789062 205.247070312 288.008789062 191.999023438 c 0
 288.008789062 189.987304688 287.760742188 188.034179688 287.290039062 186.1875 c 0
 287.293945312 186.166015625 287.28515625 186.16796875 287.28515625 186.16796875 c 2
 287.041015625 185.190429688 283.928710938 172.958984375 276.119140625 154.69921875 c 0
 269.872070312 140.091796875 260.61328125 121.611328125 247.311523438 101.991210938 c 0
 236.671875 86.2978515625 223.432617188 69.8662109375 207.065429688 54.208984375 c 0
 186.611328125 34.640625 161.243164062 16.296875 130.26953125 2.337890625 c 0
 110.365234375 -6.6328125 88.17578125 -13.7822265625 63.603515625 -18.34765625 c 0
 43.9453125 -22 22.765625 -24 0 -24 c 0
 -22.765625 -24 -43.9453125 -22 -63.603515625 -18.34765625 c 0
 -88.17578125 -13.7822265625 -110.365234375 -6.6328125 -130.26953125 2.337890625 c 0
 -161.243164062 16.296875 -186.611328125 34.640625 -207.065429688 54.208984375 c 0
 -223.432617188 69.8662109375 -236.671875 86.2978515625 -247.311523438 101.991210938 c 0
 -260.61328125 121.611328125 -269.872070312 140.091796875 -276.119140625 154.69921875 c 0
 -283.928710938 172.958984375 -287.041015625 185.190429688 -287.28515625 186.16796875 c 2
EndSplineSet
Fore
SplineSet
0 24 m 129,-1,1
 -90 24 -90 24 -152 70.5 c 129,-1,2
 -214 117 -214 117 -240 195 c 1,3,4
 -242 204 -242 204 -247 209 c 1,5,6
 -254 216 -254 216 -264 216 c 129,-1,7
 -274 216 -274 216 -281 209 c 129,-1,8
 -288 202 -288 202 -288 192 c 1,9,10
 -288 189 -288 189 -287 185 c 1,11,12
 -257 90 -257 90 -182 33 c 129,-1,13
 -107 -24 -107 -24 0 -24 c 129,-1,14
 107 -24 107 -24 182 33 c 129,-1,15
 257 90 257 90 287 185 c 1,16,17
 288 189 288 189 288 192 c 1,18,19
 288 202 288 202 281 209 c 129,-1,20
 274 216 274 216 264 216 c 129,-1,21
 254 216 254 216 247 209 c 1,22,23
 242 204 242 204 240 195 c 1,24,25
 214 117 214 117 152 70.5 c 129,-1,0
 90 24 90 24 0 24 c 129,-1,1
EndSplineSet
Colour: ff00ff
EndChar

StartChar: mouth.smiling1
Encoding: 19 -1 8
Width: 864
GlyphClass: 5
Flags: W
LayerCount: 2
Back
SplineSet
-111.516601562 116.483398438 m 4
 -111.515625 116.483398438 -111.638671875 116.603515625 -111.638671875 116.603515625 c 5
 -111.638671875 116.603515625 -111.767578125 116.725585938 -111.766601562 116.724609375 c 5
 -111.766601562 116.724609375 -111.778320312 116.735351562 -111.774414062 116.731445312 c 4
 -111.768554688 116.7265625 -111.569335938 116.55078125 -111.141601562 116.232421875 c 4
 -110.756835938 115.946289062 -110.186523438 115.544921875 -109.40625 115.05078125 c 4
 -107.2109375 113.662109375 -103.346679688 111.536132812 -97.26171875 109.196289062 c 4
 -90.41796875 106.564453125 -80.7646484375 103.662109375 -67.5595703125 101.251953125 c 4
 -51.0537109375 98.240234375 -29.0009765625 96 0 96 c 4
 29.0009765625 96 51.0537109375 98.240234375 67.5595703125 101.251953125 c 4
 80.7646484375 103.662109375 90.41796875 106.564453125 97.26171875 109.196289062 c 4
 103.346679688 111.536132812 107.2109375 113.662109375 109.40625 115.05078125 c 4
 110.186523438 115.544921875 110.756835938 115.946289062 111.141601562 116.232421875 c 4
 111.569335938 116.55078125 111.768554688 116.7265625 111.774414062 116.731445312 c 4
 111.778320312 116.735351562 111.766601562 116.724609375 111.766601562 116.724609375 c 5
 111.767578125 116.725585938 111.638671875 116.603515625 111.638671875 116.603515625 c 5
 111.638671875 116.603515625 111.515625 116.483398438 111.516601562 116.483398438 c 4
 112.932617188 117.899414062 114.72265625 118.979492188 116.788085938 119.551757812 c 4
 123.170898438 121.319335938 129.788085938 117.571289062 131.555664062 111.1875 c 4
 132.127929688 109.122070312 132.122070312 107.03125 131.63671875 105.087890625 c 5
 131.87890625 106.057617188 131.400390625 104.114257812 131.642578125 105.083984375 c 5
 131.549804688 104.7109375 130.408203125 100.211914062 127.756835938 93.2265625 c 4
 125.635742188 87.638671875 122.548828125 80.45703125 118.233398438 72.525390625 c 4
 113.91796875 64.5947265625 108.372070312 55.90625 101.303710938 47.3408203125 c 4
 95.6494140625 40.4892578125 89.0166015625 33.71484375 81.265625 27.513671875 c 4
 76.421875 23.6396484375 71.142578125 19.990234375 65.40625 16.697265625 c 4
 58.2353515625 12.580078125 50.3515625 9.021484375 41.73828125 6.2646484375 c 4
 34.84765625 4.0595703125 27.4931640625 2.369140625 19.671875 1.3037109375 c 4
 13.4140625 0.4521484375 6.8583984375 0 0 0 c 4
 -6.8583984375 0 -13.4140625 0.4521484375 -19.671875 1.3037109375 c 4
 -27.4931640625 2.369140625 -34.84765625 4.0595703125 -41.73828125 6.2646484375 c 4
 -50.3515625 9.021484375 -58.2353515625 12.580078125 -65.40625 16.697265625 c 4
 -71.142578125 19.990234375 -76.421875 23.6396484375 -81.265625 27.513671875 c 4
 -89.0166015625 33.71484375 -95.6494140625 40.4892578125 -101.303710938 47.3408203125 c 4
 -108.372070312 55.90625 -113.91796875 64.5947265625 -118.233398438 72.525390625 c 4
 -122.548828125 80.45703125 -125.635742188 87.638671875 -127.756835938 93.2265625 c 4
 -130.408203125 100.211914062 -131.549804688 104.7109375 -131.642578125 105.083984375 c 4
 -132.127929688 107.02734375 -132.133789062 109.118164062 -131.561523438 111.184570312 c 4
 -129.793945312 117.568359375 -123.176757812 121.315429688 -116.794921875 119.547851562 c 4
 -114.728515625 118.9765625 -111.516601562 116.483398438 -111.516601562 116.483398438 c 4
-120 108 m 5
 -120 108 -96 84 0 84 c 4
 96 84 120 108 120 108 c 5
 120 108 96 12 0 12 c 4
 -96 12 -120 108 -120 108 c 5
EndSplineSet
Fore
SplineSet
0 96 m 259,0,1
 -41 96 -41 96 -71 102 c 128,-1,2
 -101 108 -101 108 -112 117 c 257,3,4
 -116 120 -116 120 -120 120 c 259,5,6
 -125 120 -125 120 -128.5 116.5 c 128,-1,7
 -132 113 -132 113 -132 108 c 259,8,9
 -132 106 -132 106 -131 103 c 1,10,11
 -116 56 -116 56 -82 28 c 128,-1,12
 -48 7.1054273576e-15 -48 7.1054273576e-15 0 0 c 259,13,14
 48 0 48 0 82 28 c 128,-1,15
 116 56 116 56 131 103 c 1,16,17
 132 106 132 106 132 108 c 259,18,19
 132 113 132 113 128.5 116.5 c 128,-1,20
 125 120 125 120 120 120 c 259,21,22
 116 120 116 120 112 117 c 257,23,24
 101 108 101 108 71 102 c 128,-1,25
 41 96 41 96 0 96 c 259,0,1
EndSplineSet
Colour: ff00ff
EndChar

StartChar: eye.smiling
Encoding: 20 -1 9
Width: 864
GlyphClass: 5
Flags: W
LayerCount: 2
Back
SplineSet
-49.2253944924 -79.5854692707 m 1
 -49.2253944924 -79.5854692707 -49.2166189314 -79.5883921204 -49.2290340361 -79.5963879016 c 0
 -52.3950307313 -89.1236275104 -61.3979218845 -96.0060852912 -71.9956122195 -96.0060852912 c 0
 -85.2441242007 -96.0060852912 -96.0002360858 -85.249973406 -96.0002360858 -72.0014614248 c 0
 -96.0002360858 -69.3506397786 -95.5696280581 -66.7995983784 -94.7746055076 -64.4145307293 c 0
 -94.6454282987 -64.026999103 -93.7823162978 -61.4674141233 -92.1586799158 -57.4317088775 c 0
 -90.8595482286 -54.2025914328 -89.0738326085 -50.0283738772 -86.7731761207 -45.2566419024 c 0
 -84.4722446196 -40.4843395297 -81.657534282 -35.1138413053 -78.2714485584 -29.4842996084 c 0
 -75.5622975337 -24.9801966702 -72.4869857112 -20.3085789533 -68.9891882799 -15.644849045 c 0
 -66.0743080083 -11.7583420162 -62.8650231725 -7.87553800403 -59.3094853112 -4.11027705907 c 0
 -56.4652117033 -1.09823422599 -53.3981156825 1.83948048091 -50.0751315066 4.62914620883 c 0
 -46.7527262098 7.41832596415 -43.1726404712 10.0607623943 -39.3073117685 12.4573722346 c 0
 -36.2156274634 14.3743013237 -32.9409706757 16.1333427768 -29.4813901257 17.6709341323 c 0
 -25.5900515448 19.4004179461 -21.4640889861 20.848617289 -17.1283703442 21.9191651018 c 0
 -14.1179171743 22.6624868722 -11.0076581782 23.2234126985 -7.8139258327 23.5738908708 c 0
 -5.25902155558 23.8542644541 -2.65107328538 24 0 24 c 0
 2.65107328538 24 5.25902155558 23.8542644541 7.8139258327 23.5738908708 c 0
 11.0076581782 23.2234126985 14.1179171743 22.6624868722 17.1283703442 21.9191651018 c 0
 21.4640889861 20.848617289 25.5900515448 19.4004179461 29.4813901257 17.6709341323 c 0
 32.9409706757 16.1333427768 36.2156274634 14.3743013237 39.3073117685 12.4573722346 c 0
 43.1726404712 10.0607623943 46.7527262098 7.41832596415 50.0751315066 4.62914620883 c 0
 53.3981156825 1.83948048091 56.4652117033 -1.09823422599 59.3094853112 -4.11027705907 c 0
 62.8650231725 -7.87553800403 66.0743080083 -11.7583420162 68.9891882799 -15.644849045 c 0
 72.4869857112 -20.3085789533 75.5622975337 -24.9801966702 78.2714485584 -29.4842996084 c 0
 81.657534282 -35.1138413053 84.4722446196 -40.4843395297 86.7731761207 -45.2566419024 c 0
 89.0738326085 -50.0283738772 90.8595482286 -54.2025914328 92.1586799158 -57.4317088775 c 0
 93.7823164036 -61.4674143862 94.6454281206 -64.0269985433 94.7746056561 -64.414531175 c 0
 95.5696281117 -66.7995986963 96.0002360858 -69.3506399437 96.0002360858 -72.0014614248 c 0
 96.0002360858 -85.2499734061 85.2441242006 -96.0060852913 71.9956122194 -96.0060852913 c 0
 61.3979217191 -96.0060852913 52.3950304504 -89.1236272959 49.2290338848 -79.5963874485 c 0
 49.2166187826 -79.5883916745 49.2253943439 -79.585468825 49.2253943439 -79.585468825 c 1
 49.2253943439 -79.585468825 49.2566895203 -79.6783188059 49.2434193101 -79.6392666462 c 0
 49.2249530152 -79.5849232196 48.6731742696 -77.9676029056 47.6075481321 -75.3188860866 c 0
 46.6486681115 -72.9354970641 45.2731673407 -69.7168170283 43.5094027545 -66.0586386274 c 0
 41.7459131815 -62.4010306242 39.592997762 -58.3046056886 37.1082530454 -54.1735897811 c 0
 35.1207397179 -50.8692466358 32.921336191 -47.5444922248 30.5663672756 -44.404533671 c 0
 28.6039422584 -41.7879669814 26.5344975018 -39.3015053763 24.409881467 -37.0515690542 c 0
 22.7100319581 -35.2514540735 20.9760933078 -33.6036147108 19.2411312582 -32.1471033605 c 0
 17.5055903295 -30.6901060377 15.7708182884 -29.4257423812 14.064377657 -28.3677023738 c 0
 12.6986464949 -27.5209115846 11.3514644206 -26.8056093125 10.0247827138 -26.2159729983 c 0
 8.53157625585 -25.5523256837 7.06489541666 -25.0467126562 5.59987230171 -24.6849785537 c 0
 4.58203258492 -24.4336601051 3.56364261848 -24.2514553842 2.52836992543 -24.1378452121 c 0
 1.70007017176 -24.0469481198 0.860586522581 -24 0 -24 c 0
 -0.860586522581 -24 -1.70007017176 -24.0469481198 -2.52836992543 -24.1378452121 c 0
 -3.56364261848 -24.2514553842 -4.58203258492 -24.4336601051 -5.59987230171 -24.6849785537 c 0
 -7.06489541666 -25.0467126562 -8.53157625585 -25.5523256837 -10.0247827138 -26.2159729983 c 0
 -11.3514644206 -26.8056093125 -12.6986464949 -27.5209115846 -14.064377657 -28.3677023738 c 0
 -15.7708182884 -29.4257423812 -17.5055903295 -30.6901060377 -19.2411312582 -32.1471033605 c 0
 -20.9760933078 -33.6036147108 -22.7100319581 -35.2514540735 -24.409881467 -37.0515690542 c 0
 -26.5344975018 -39.3015053763 -28.6039422584 -41.7879669814 -30.5663672756 -44.404533671 c 0
 -32.921336191 -47.5444922248 -35.1207397179 -50.8692466358 -37.1082530454 -54.1735897811 c 0
 -39.592997762 -58.3046056886 -41.7459131815 -62.4010306242 -43.5094027545 -66.0586386274 c 0
 -45.2731673407 -69.7168170283 -46.6486681115 -72.9354970641 -47.6075481321 -75.3188860866 c 0
 -48.6731742696 -77.9676029056 -49.2249530152 -79.5849232196 -49.2434193101 -79.6392666462 c 0
 -49.2566893565 -79.6783183237 -49.2253944924 -79.5854692707 -49.2253944924 -79.5854692707 c 1
-72 -72 m 17
 -72 -72 -48 0 0 0 c 1
 48 0 72 -72 72 -72 c 1025
EndSplineSet
Fore
SplineSet
0 24 m 131,-1,1
 -29 24 -29 24 -54 1 c 128,-1,2
 -79 -22 -79 -22 -95 -65 c 1,3,4
 -96 -69 -96 -69 -96 -72 c 3,5,6
 -96 -82 -96 -82 -89 -89 c 128,-1,7
 -82 -96 -82 -96 -72 -96 c 131,-1,8
 -62 -96 -62 -96 -55 -89 c 1,9,10
 -51 -85 -51 -85 -49 -79 c 1,11,12
 -41 -57 -41 -57 -27.5 -40.5 c 128,-1,13
 -14 -24 -14 -24 0 -24 c 131,-1,14
 14 -24 14 -24 27.5 -40.5 c 128,-1,15
 41 -57 41 -57 49 -79 c 1,16,17
 51 -85 51 -85 55 -89 c 1,18,19
 62 -96 62 -96 72 -96 c 131,-1,20
 82 -96 82 -96 89 -89 c 128,-1,21
 96 -82 96 -82 96 -72 c 3,22,23
 96 -69 96 -69 95 -65 c 1,24,25
 79 -22 79 -22 54 1 c 128,-1,0
 29 24 29 24 0 24 c 131,-1,1
EndSplineSet
Colour: ff00ff
EndChar

StartChar: heart
Encoding: 21 -1 10
Width: 864
GlyphClass: 5
Flags: W
LayerCount: 2
Back
SplineSet
0 0 m 1
 -132 47.9833984375 -316.166992188 222.731445312 -342.825195312 388.373046875 c 0
 -346.091796875 402.403320312 -348 416.958007812 -348 431.978515625 c 0
 -348 538.041015625 -262.036132812 623.98828125 -155.990234375 623.98828125 c 0
 -91.6455078125 623.98828125 -34.849609375 592.213867188 0 543.646484375 c 1
 34.849609375 592.213867188 91.6455078125 623.98828125 156.01171875 623.98828125 c 0
 262.036132812 623.98828125 348 538.021484375 348 431.978515625 c 0
 348 416.939453125 346.091796875 402.384765625 342.78515625 388.354492188 c 4
 316.166992188 222.731445312 131.981445312 47.9833984375 0 0 c 1
EndSplineSet
Fore
SplineSet
-348 432 m 1,0,1
 -348 511 -348 511 -291.5 567.5 c 129,-1,2
 -235 624 -235 624 -156 624 c 1,3,4
 -60 624 -60 624 0 542 c 1,5,6
 60 624 60 624 156 624 c 1,7,8
 235 624 235 624 291.5 567.5 c 129,-1,9
 348 511 348 511 348 432 c 1,10,11
 348 413 348 413 343 389 c 1,12,13
 321 271 321 271 217 157 c 129,-1,14
 113 43 113 43 0 0 c 1,15,16
 -113 43 -113 43 -217.5 157 c 129,-1,17
 -322 271 -322 271 -343 389 c 1,18,19
 -348 413 -348 413 -348 432 c 1,0,1
EndSplineSet
Colour: ff00ff
EndChar

StartChar: mouth.smiling2
Encoding: 22 -1 11
Width: 864
GlyphClass: 5
Flags: W
LayerCount: 2
Back
SplineSet
-208.810078846 141.605705253 m 1
 -208.810078846 141.605705253 -208.822391319 141.614920012 -208.817223283 141.611058262 c 1
 -208.809988133 141.605651886 -208.592772661 141.443421648 -208.173213376 141.139371039 c 1
 -207.795610235 140.865725648 -207.254108786 140.4772058 -206.5542865 139.984745946 c 1
 -205.294607477 139.098318979 -203.521961441 137.875129329 -201.268966144 136.378912552 c 1
 -197.213584392 133.685728848 -191.601783801 130.108002155 -184.624892339 126.016840669 c 1
 -172.066403611 118.652700682 -155.084435073 109.627055889 -134.808372677 101.089766459 c 1
 -114.531759118 92.5522449605 -90.9649569402 84.5070610003 -65.2506638192 79.0576743786 c 1
 -44.6786336224 74.6980388402 -22.736815396 72 0 72 c 1
 22.736815396 72 44.6786336224 74.6980388402 65.2506638192 79.0576743786 c 1
 90.9649569402 84.5070610003 114.531759118 92.5522449605 134.808372677 101.089766459 c 1
 155.084435073 109.627055889 172.066403611 118.652700682 184.624892339 126.016840669 c 1
 191.601783801 130.108002155 197.213584392 133.685728848 201.268966144 136.378912552 c 1
 203.521961441 137.875129329 205.294607477 139.098318979 206.5542865 139.984745946 c 1
 207.254108786 140.4772058 207.795610235 140.865725648 208.173213376 141.139371039 c 1
 208.592772661 141.443421648 208.809988133 141.605651886 208.817223283 141.611058262 c 1
 208.822391152 141.614919887 208.810079 141.605705369 208.810079 141.605705369 c 1
 210.651601353 142.986847086 212.909079865 143.854173234 215.378754688 143.981760708 c 1
 221.99159382 144.323390884 227.637696206 139.232833494 227.979271076 132.62106488 c 1
 228.106837896 130.15178986 227.476617912 127.817318349 226.292370973 125.843573453 c 1
 226.806866729 126.701066378 225.783049798 124.981415096 226.297545554 125.838908022 c 1
 226.141793838 125.579321829 223.840074311 121.764100685 219.374734955 115.59797135 c 1
 215.80243317 110.665026042 210.845186513 104.227194326 204.48931793 96.9035597439 c 1
 198.133511704 89.5799970151 190.378801949 81.3700436516 181.207388834 72.8989624936 c 1
 173.870355181 66.1221870116 165.6262697 59.1781554331 156.465714141 52.3925587229 c 1
 139.978460169 40.1797780024 120.514461639 28.474534744 98.0569392919 19.2327560002 c 1
 85.5815675974 14.0988581835 72.1842189956 9.72693998177 57.8764003411 6.45583375073 c 1
 39.9917448497 2.36697789994 20.686111417 0 0 0 c 1
 -20.686111417 0 -39.9917448497 2.36697789994 -57.8764003411 6.45583375073 c 1
 -72.1842189956 9.72693998177 -85.5815675974 14.0988581835 -98.0569392919 19.2327560002 c 1
 -120.514461639 28.474534744 -139.978460169 40.1797780024 -156.465714141 52.3925587229 c 1
 -165.6262697 59.1781554331 -173.870355181 66.1221870116 -181.207388834 72.8989624936 c 1
 -190.378801949 81.3700436516 -198.133511704 89.5799970151 -204.48931793 96.9035597439 c 1
 -210.845186513 104.227194326 -215.80243317 110.665026042 -219.374734955 115.59797135 c 1
 -223.840074408 121.76410082 -226.141793666 125.579321528 -226.297545697 125.838908261 c 5
 -227.481792583 127.812653172 -228.112012513 130.14712468 -227.984445645 132.616399683 c 1
 -227.642870646 139.228168289 -221.996768161 144.318725569 -215.383929035 143.977095265 c 1
 -212.91425423 143.849507743 -210.656775747 142.982181561 -208.810078846 141.605705253 c 1
-216 132 m 1
 -216 132 -120 60 0 60 c 0
 120 60 216 132 216 132 c 1
 216 132 144 12 0 12 c 0
 -144 12 -216 132 -216 132 c 1
EndSplineSet
Fore
SplineSet
0 72 m 131,-1,1
 -54 72 -54 72 -109.5 91.5 c 128,-1,2
 -165 111 -165 111 -208 141 c 1,3,4
 -212 144 -212 144 -216 144 c 3,5,6
 -221 144 -221 144 -224.5 140.5 c 128,-1,7
 -228 137 -228 137 -228 132 c 259,8,9
 -228 129 -228 129 -226 125.5 c 128,-1,10
 -224 122 -224 122 -219 115 c 1,11,12
 -177 59 -177 59 -120 29.5 c 128,-1,13
 -63 -3.5527136788e-15 -63 -3.5527136788e-15 0 0 c 131,-1,14
 63 -3.5527136788e-15 63 -3.5527136788e-15 120 29.5 c 128,-1,15
 177 59 177 59 219 115 c 1,16,17
 224 122 224 122 226 125.5 c 128,-1,18
 228 129 228 129 228 132 c 259,19,20
 228 137 228 137 224.5 140.5 c 128,-1,21
 221 144 221 144 216 144 c 3,22,23
 212 144 212 144 208 141 c 1,24,25
 165 111 165 111 109.5 91.5 c 128,-1,0
 54 72 54 72 0 72 c 131,-1,1
EndSplineSet
Colour: ff00ff
EndChar

StartChar: eyebrow.2
Encoding: 23 -1 12
Width: 864
GlyphClass: 5
Flags: W
LayerCount: 2
Back
SplineSet
0 24 m 1
 13.24609375 24 24 13.24609375 24 0 c 1
 24 -13.24609375 13.24609375 -24 0 -24 c 9
 0 -24 l 1
 0 -24 0.2744140625 -23.9970703125 0.09375 -24 c 1
 -0.51171875 -24.0107421875 -7.8447265625 -24.189453125 -19.3798828125 -26.3955078125 c 1
 -29.763671875 -28.380859375 -43.5361328125 -32.00390625 -58.9326171875 -38.5556640625 c 1
 -71.251953125 -43.798828125 -84.609375 -50.908203125 -98.193359375 -60.5712890625 c 1
 -115.17578125 -72.65234375 -132.540039062 -88.71484375 -148.7890625 -110.379882812 c 9
 -148.81640625 -110.416015625 l 17
 -153.1953125 -116.254882812 -160.171875 -120.03515625 -168.025390625 -120.03515625 c 1
 -181.26953125 -120.03515625 -192.022460938 -109.283203125 -192.022460938 -96.0390625 c 1
 -192.022460938 -90.6474609375 -190.240234375 -85.6689453125 -187.2109375 -81.6201171875 c 5
 -172.733398438 -62.31640625 -157.236328125 -46.4345703125 -141.608398438 -33.4609375 c 1
 -129.10546875 -23.0810546875 -116.526367188 -14.5625 -104.326171875 -7.591796875 c 1
 -79.9189453125 6.35546875 -57.05859375 14.115234375 -39.0439453125 18.45703125 c 1
 -16.517578125 23.884765625 -1.5048828125 24 0 24 c 1
EndSplineSet
Fore
SplineSet
-186 -80 m 1,0,1
 -153 -37 -153 -37 -110 -11 c 129,-1,2
 -67 15 -67 15 -21 22 c 257,3,4
 -8 24 -8 24 0 24 c 257,5,6
 10 24 10 24 17 17 c 129,-1,7
 24 10 24 10 24 0 c 129,-1,8
 24 -10 24 -10 17 -17 c 129,-1,9
 10 -24 10 -24 0 -24 c 257,10,11
 -5 -24 -5 -24 -17 -26 c 257,12,13
 -52 -32 -52 -32 -86 -52.5 c 129,-1,14
 -120 -73 -120 -73 -147 -108 c 1,15,16
 -155 -120 -155 -120 -168 -120 c 1,17,18
 -178 -120 -178 -120 -185 -113 c 129,-1,19
 -192 -106 -192 -106 -192 -96 c 1,20,21
 -192 -87 -192 -87 -186 -80 c 1,0,1
EndSplineSet
Colour: ff00ff
EndChar

StartChar: mouth.smiling1b
Encoding: 24 -1 14
Width: 864
GlyphClass: 5
Flags: W
LayerCount: 2
Back
SplineSet
-74.1968444553 78.1426951904 m 1
 -74.1968444553 78.1426951904 -74.2778126113 78.1993537673 -74.2235369702 78.1618230224 c 1
 -74.0380944675 78.0335924734 -71.805573815 76.5073483427 -67.6180886113 74.3928382308 c 1
 -63.8490847652 72.4896442237 -58.4969344841 70.1098420258 -51.6226912638 67.8373649282 c 1
 -39.2481612049 63.7466111897 -21.9464436676 60 0 60 c 1
 21.9464436676 60 39.2481612049 63.7466111897 51.6226912638 67.8373649282 c 1
 58.4969344841 70.1098420258 63.8490847652 72.4896442237 67.6180886113 74.3928382308 c 1
 71.805573815 76.5073483427 74.0380944675 78.0335924734 74.2235369702 78.1618230224 c 1
 74.2778128259 78.1993539156 74.1968442595 78.1426950505 74.1968442595 78.1426950505 c 1
 75.5528033353 79.1112372957 77.1694013884 79.7535127881 78.9432587957 79.9416085511 c 1
 84.4301018739 80.5234207819 89.3571112801 76.54086749 89.9389614105 71.0536669955 c 1
 90.1270694261 69.2796940381 89.8381473058 67.5642441874 89.1755746727 66.0352304202 c 1
 89.5731821107 66.9527860454 88.7827320926 65.1138233105 89.1803395306 66.0313789357 c 1
 89.0946989594 65.8337468487 88.226587167 63.846530178 86.5513730076 60.6645100962 c 1
 85.2111245043 58.1187474379 83.3542647588 54.8080117669 80.9619373326 51.0359704005 c 1
 78.5695769458 47.2638770641 75.6418194172 43.0298229878 72.1504108096 38.6399819873 c 1
 69.3572919177 35.1281192382 66.2029653304 31.5160122357 62.6675285091 27.9657827917 c 1
 59.132302117 24.4157646575 55.2151623922 20.9266726656 50.8945492152 17.6727101721 c 1
 47.4383138023 15.0697323212 43.7233593084 12.6173019453 39.7427842972 10.4130149064 c 1
 34.7676393164 7.65797384637 29.3759841942 5.29091095546 23.5764993694 3.51401727478 c 1
 19.5495257784 2.28020010959 15.3271422849 1.33151285291 10.9205484008 0.733153315154 c 1
 7.39535896461 0.254477318004 3.75271293013 0 0 0 c 1
 -3.75271293013 0 -7.39535896461 0.254477318004 -10.9205484008 0.733153315154 c 1
 -15.3271422849 1.33151285291 -19.5495257784 2.28020010959 -23.5764993694 3.51401727478 c 1
 -29.3759841942 5.29091095546 -34.7676393164 7.65797384637 -39.7427842972 10.4130149064 c 1
 -43.7233593084 12.6173019453 -47.4383138023 15.0697323212 -50.8945492152 17.6727101721 c 1
 -55.2151623922 20.9266726656 -59.132302117 24.4157646575 -62.6675285091 27.9657827917 c 1
 -66.2029653304 31.5160122357 -69.3572919177 35.1281192382 -72.1504108096 38.6399819873 c 1
 -75.6418194172 43.0298229878 -78.5695769458 47.2638770641 -80.9619373326 51.0359704005 c 1
 -83.3542647588 54.8080117669 -85.2111245043 58.1187474379 -86.5513730076 60.6645100962 c 1
 -88.2265871794 63.8465302015 -89.0946989384 65.8337467977 -89.1803395481 66.0313789763 c 5
 -89.8429121563 67.5603927044 -90.1318342716 69.2758425055 -89.9437262785 71.0498154148 c 1
 -89.3618762014 76.537015915 -84.4348668341 80.5195692549 -78.9480237504 79.9377570774 c 1
 -77.1741663921 79.7496613371 -75.5575683744 79.1073858916 -74.1968444553 78.1426951904 c 1
-80 70 m 1
 -80 70 -54 10 0 10 c 1
 54 10 80 70 80 70 c 1
 80 70 52 50 0 50 c 1
 -52 50 -80 70 -80 70 c 1
EndSplineSet
Fore
SplineSet
0 72 m 129,-1,1
 -26 72 -26 72 -48.5 77.5 c 129,-1,2
 -71 83 -71 83 -88 93 c 1,3,4
 -92 96 -92 96 -96 96 c 1,5,6
 -101 96 -101 96 -104.5 92.5 c 129,-1,7
 -108 89 -108 89 -108 84 c 1,8,9
 -108 82 -108 82 -107 79 c 1,10,11
 -88 41 -88 41 -60 20.5 c 129,-1,12
 -32 0 -32 0 0 0 c 129,-1,13
 32 0 32 0 60 20.5 c 129,-1,14
 88 41 88 41 107 79 c 1,15,16
 108 82 108 82 108 84 c 1,17,18
 108 89 108 89 104.5 92.5 c 129,-1,19
 101 96 101 96 96 96 c 1,20,21
 92 96 92 96 88 93 c 1,22,23
 71 83 71 83 48.5 77.5 c 129,-1,0
 26 72 26 72 0 72 c 129,-1,1
EndSplineSet
Colour: ff00ff
EndChar

StartChar: LoudlyCryingFace.3
Encoding: 50 -1 15
Width: 864
GlyphClass: 5
Flags: W
LayerCount: 2
Back
SplineSet
432 -696 m 0
 392.231445312 -696 360 -687.768554688 360 -648 c 0
 360 -608.231445312 392.231445312 -600 432 -600 c 0
 471.768554688 -600 504 -608.231445312 504 -648 c 0
 504 -687.768554688 471.768554688 -696 432 -696 c 0
EndSplineSet
Fore
SplineSet
360 -648 m 129,-1,1
 360 -623 360 -623 377 -611.5 c 129,-1,2
 394 -600 394 -600 432 -600 c 129,-1,3
 470 -600 470 -600 487 -611.5 c 129,-1,4
 504 -623 504 -623 504 -648 c 129,-1,5
 504 -673 504 -673 487 -684.5 c 129,-1,6
 470 -696 470 -696 432 -696 c 129,-1,7
 394 -696 394 -696 377 -684.5 c 129,-1,0
 360 -673 360 -673 360 -648 c 129,-1,1
EndSplineSet
EndChar

StartChar: mouth.flat2
Encoding: 25 -1 16
Width: 864
GlyphClass: 5
Flags: W
LayerCount: 2
Fore
SplineSet
192 -24 m 9,0,1
 192 -24 192 -24 0 -24 c 1,2,3
 -10 -24 -10 -24 -17 -17 c 129,-1,4
 -24 -10 -24 -10 -24 0 c 129,-1,5
 -24 10 -24 10 -17 17 c 129,-1,6
 -10 24 -10 24 0 24 c 1,7,8
 0 24 0 24 192 24 c 17,9,10
 202 24 202 24 209 17 c 129,-1,11
 216 10 216 10 216 0 c 129,-1,12
 216 -10 216 -10 209 -17 c 129,-1,13
 202 -24 202 -24 192 -24 c 9,0,1
EndSplineSet
Colour: ff00ff
EndChar

StartChar: eyebrow.6
Encoding: 26 -1 17
Width: 864
GlyphClass: 5
Flags: W
LayerCount: 2
Back
SplineSet
-168 -120 m 1024
-19.9833984375 13.2890625 m 5
 -19.9833984375 13.2890625 -19.98046875 13.287109375 -19.9521484375 13.3359375 c 0
 -15.677734375 19.7421875 -8.3310546875 23.998046875 0.0009765625 23.998046875 c 0
 13.24609375 23.998046875 24 13.244140625 24 -0.0009765625 c 0
 24 -4.9130859375 22.5205078125 -9.4833984375 19.9833984375 -13.2890625 c 0
 19.1494140625 -14.5400390625 8.564453125 -30.17578125 -14.0283203125 -51.638671875 c 0
 -42.2607421875 -78.458984375 -89.3037109375 -114.375 -159.100585938 -142.29296875 c 0
 -161.853515625 -143.39453125 -164.857421875 -144 -168.001953125 -144 c 0
 -181.25 -144 -192.005859375 -133.244140625 -192.005859375 -119.99609375 c 0
 -192.005859375 -109.892578125 -185.749023438 -101.23828125 -176.9296875 -97.71875 c 0
 -176.90234375 -97.69921875 -176.899414062 -97.70703125 -176.899414062 -97.70703125 c 2
 -126.0625 -77.3720703125 -89.1328125 -52.677734375 -63.865234375 -31.724609375 c 0
 -49.828125 -20.083984375 -39.3974609375 -9.59765625 -32.228515625 -1.66796875 c 0
 -24.2626953125 7.142578125 -20.32421875 12.794921875 -19.955078125 13.3310546875 c 0
 -19.859375 13.470703125 -19.9833984375 13.2890625 -19.9833984375 13.2890625 c 5
EndSplineSet
Fore
SplineSet
18 -16 m 1,0,1
 -7 -50 -7 -50 -53 -84 c 129,-1,2
 -99 -118 -99 -118 -156 -141 c 1,3,4
 -162 -144 -162 -144 -168 -144 c 1,5,6
 -178 -144 -178 -144 -185 -137 c 129,-1,7
 -192 -130 -192 -130 -192 -120 c 129,-1,8
 -192 -110 -192 -110 -185 -103 c 1,9,10
 -181 -99 -181 -99 -175 -97 c 1,11,12
 -121 -75 -121 -75 -81.5 -45.5 c 129,-1,13
 -42 -16 -42 -16 -21 12 c 1,14,15
 -13 24 -13 24 0 24 c 1,16,17
 10 24 10 24 17 17 c 129,-1,18
 24 10 24 10 24 0 c 1,19,20
 24 -9 24 -9 18 -16 c 1,0,1
EndSplineSet
Colour: ff00ff
EndChar

StartChar: eye.closed
Encoding: 27 -1 18
Width: 864
GlyphClass: 5
Flags: W
LayerCount: 2
Back
SplineSet
10.7099609375 -21.48046875 m 5
 7.4384765625 -23.12109375 3.80078125 -24.0283203125 -0.0478515625 -24.0283203125 c 4
 -13.294921875 -24.0283203125 -24.0498046875 -13.2734375 -24.0498046875 -0.0263671875 c 4
 -24.0498046875 9.373046875 -18.6357421875 17.517578125 -10.7578125 21.4560546875 c 6
 -10.7099609375 21.48046875 l 6
 -9.6552734375 22.0078125 4.8671875 29.201171875 28.3076171875 35.5947265625 c 4
 38.728515625 38.4365234375 50.91796875 41.1181640625 64.49609375 42.94921875 c 4
 75.3583984375 44.4130859375 87.109375 45.3330078125 99.5556640625 45.3330078125 c 4
 131.032226562 45.3330078125 166.861328125 39.404296875 202.709960938 21.48046875 c 6
 202.7578125 21.4560546875 l 6
 210.635742188 17.517578125 216.049804688 9.373046875 216.049804688 -0.0263671875 c 4
 216.049804688 -13.2734375 205.294921875 -24.0283203125 192.047851562 -24.0283203125 c 4
 188.19921875 -24.0283203125 184.561523438 -23.12109375 181.290039062 -21.48046875 c 4
 153.138671875 -7.404296875 124.967773438 -2.6669921875 99.5556640625 -2.6669921875 c 4
 89.5263671875 -2.6669921875 79.9140625 -3.412109375 70.958984375 -4.619140625 c 4
 59.7666015625 -6.1279296875 49.60546875 -8.359375 40.9501953125 -10.720703125 c 4
 32.294921875 -13.080078125 25.1484375 -15.568359375 19.974609375 -17.5615234375 c 4
 14.224609375 -19.77734375 10.912109375 -21.3818359375 10.66015625 -21.5048828125 c 4
 10.5791015625 -21.544921875 10.7099609375 -21.48046875 10.7099609375 -21.48046875 c 5
EndSplineSet
Fore
SplineSet
-5 24 m 1,1,2
 43 45 43 45 101 45 c 1,3,4
 155 45 155 45 202 22 c 1,5,6
 206 20 206 20 209 17 c 1,7,8
 216 10 216 10 216 0 c 129,-1,9
 216 -10 216 -10 209 -17 c 129,-1,10
 202 -24 202 -24 192 -24 c 1,11,12
 186 -24 186 -24 180 -21 c 1,13,14
 144 -3 144 -3 100 -3 c 1,15,16
 52 -3 52 -3 12 -21 c 1,17,18
 6 -24 6 -24 0 -24 c 1,19,20
 -10 -24 -10 -24 -17 -17 c 129,-1,21
 -24 -10 -24 -10 -24 0 c 129,-1,22
 -24 10 -24 10 -17 17 c 1,23,24
 -13 21 -13 21 -5 24 c 1,1,2
EndSplineSet
Colour: ff00ff
EndChar

StartChar: tears2
Encoding: 28 -1 19
Width: 864
GlyphClass: 5
Flags: W
LayerCount: 2
Back
SplineSet
192 -840 m 5
 288 -840 l 5
 288 -384 l 5
 192 -384 l 5
 192 -840 l 5
576 -840 m 5
 672 -840 l 5
 672 -384 l 5
 576 -384 l 5
 576 -840 l 5
EndSplineSet
Fore
SplineSet
192 -840 m 1,0,-1
 192 -384 l 1,1,-1
 288 -384 l 1,2,-1
 288 -840 l 1,3,-1
 192 -840 l 1,0,-1
576 -840 m 1,4,-1
 576 -384 l 1,5,-1
 672 -384 l 1,6,-1
 672 -840 l 1,7,-1
 576 -840 l 1,4,-1
EndSplineSet
Colour: ff00ff
EndChar

StartChar: cryingmouth1
Encoding: 29 -1 20
Width: 864
GlyphClass: 5
Flags: W
LayerCount: 2
Back
SplineSet
0 0 m 4
 -53.015625 0 -96 5.7353515625 -96 72 c 4
 -96 138.264648438 -53.015625 216 0 216 c 4
 53.015625 216 96 138.264648438 96 72 c 4
 96 5.7353515625 53.015625 0 0 0 c 4
EndSplineSet
Fore
SplineSet
0 216 m 129,-1,1
 37 216 37 216 66.5 170.5 c 129,-1,2
 96 125 96 125 96 72 c 1,3,4
 96 36 96 36 78 18 c 129,-1,5
 60 0 60 0 0 0 c 129,-1,6
 -60 0 -60 0 -78 18 c 129,-1,7
 -96 36 -96 36 -96 72 c 1,8,9
 -96 125 -96 125 -66.5 170.5 c 129,-1,0
 -37 216 -37 216 0 216 c 129,-1,1
EndSplineSet
Colour: ff00ff
EndChar

StartChar: GrinningFace.1
Encoding: 52 -1 23
Width: 864
GlyphClass: 5
Flags: W
LayerCount: 2
Back
SplineSet
0 -432 m 0
 0 -670.586914062 193.413085938 -864 432 -864 c 0
 670.586914062 -864 864 -670.586914062 864 -432 c 0
 864 -193.413085938 670.586914062 0 432 0 c 0
 193.413085938 0 0 -193.413085938 0 -432 c 0
432 -504 m 4
 345.046875 -504 287.353515625 -493.873046875 216 -480 c 4
 199.704101562 -476.857421875 168 -480 168 -528 c 4
 168 -624 278.280273438 -744 432 -744 c 4
 585.696289062 -744 696 -624 696 -528 c 4
 696 -480 664.295898438 -476.831054688 648 -480 c 4
 576.646484375 -493.873046875 518.953125 -504 432 -504 c 4
216 -528 m 5
 216 -528 288 -552 432 -552 c 4
 576 -552 648 -528 648 -528 c 5
 648 -528 600 -624 432 -624 c 4
 264 -624 216 -528 216 -528 c 5
228 -324 m 0
 228 -370.392578125 254.864257812 -408 288 -408 c 0
 321.135742188 -408 348 -370.392578125 348 -324 c 0
 348 -277.607421875 321.135742188 -240 288 -240 c 0
 254.864257812 -240 228 -277.607421875 228 -324 c 0
516 -324 m 0
 516 -370.392578125 542.864257812 -408 576 -408 c 0
 609.135742188 -408 636 -370.392578125 636 -324 c 0
 636 -277.607421875 609.135742188 -240 576 -240 c 0
 542.864257812 -240 516 -277.607421875 516 -324 c 0
EndSplineSet
Fore
Refer: 4 -1 N 0.15625 0 0 0.21875 576 -324 2
Refer: 4 -1 N 0.15625 0 0 0.21875 288 -324 2
Refer: 36 -1 N 1 0 0 1 432 -744 2
EndChar

StartChar: GrinningFaceWithBigEyes.1
Encoding: 53 -1 25
Width: 864
GlyphClass: 5
Flags: W
LayerCount: 2
Back
SplineSet
336 -300 m 0
 336 -359.638671875 309.142578125 -432 276 -432 c 0
 242.857421875 -432 216 -359.638671875 216 -300 c 0
 216 -240.361328125 242.857421875 -168 276 -168 c 0
 309.142578125 -168 336 -240.361328125 336 -300 c 0
648 -300 m 4
 648 -359.638671875 621.142578125 -432 588 -432 c 4
 554.857421875 -432 528 -359.638671875 528 -300 c 4
 528 -240.361328125 554.857421875 -168 588 -168 c 4
 621.142578125 -168 648 -240.361328125 648 -300 c 4
864 -432 m 0
 864 -670.583984375 670.583984375 -864 432 -864 c 0
 193.439453125 -864 0 -670.583984375 0 -432 c 0
 0 -193.439453125 193.439453125 0 432 0 c 0
 670.583984375 0 864 -193.439453125 864 -432 c 1024
432 -528 m 0
 345.046875 -528 287.353515625 -517.873046875 216 -504 c 0
 199.704101562 -500.857421875 168 -504 168 -552 c 0
 168 -648 278.280273438 -768 432 -768 c 0
 585.696289062 -768 696 -648 696 -552 c 0
 696 -504 664.295898438 -500.831054688 648 -504 c 0
 576.646484375 -517.873046875 518.953125 -528 432 -528 c 0
216 -552 m 1
 216 -552 288 -576 432 -576 c 0
 576 -576 648 -552 648 -552 c 1
 648 -552 600 -648 432 -648 c 0
 264 -648 216 -552 216 -552 c 1
EndSplineSet
Fore
Refer: 36 -1 N 1 0 0 1 432 -768 2
Refer: 49 -1 N 1 0 0 1 588 -432 2
Refer: 49 -1 N 1 0 0 1 276 -432 2
EndChar

StartChar: KissingFace.1
Encoding: 68 -1 27
Width: 864
Flags: W
LayerCount: 2
Back
SplineSet
864 -432 m 0
 864 -670.583984375 670.583984375 -864 432 -864 c 0
 193.439453125 -864 0 -670.583984375 0 -432 c 0
 0 -193.439453125 193.439453125 0 432 0 c 0
 670.583984375 0 864 -193.439453125 864 -432 c 1024
240 -372 m 0
 240 -418.392578125 266.864257812 -456 300 -456 c 0
 333.135742188 -456 360 -418.392578125 360 -372 c 0
 360 -325.607421875 333.135742188 -288 300 -288 c 0
 266.864257812 -288 240 -325.607421875 240 -372 c 0
504 -372 m 0
 504 -418.392578125 530.864257812 -456 564 -456 c 0
 597.135742188 -456 624 -418.392578125 624 -372 c 0
 624 -325.607421875 597.135742188 -288 564 -288 c 0
 530.864257812 -288 504 -325.607421875 504 -372 c 0
500.904296875 -672 m 1
 532.943359375 -662.111328125 564 -644.256835938 564 -612 c 0
 564 -549.142578125 446.111328125 -540.768554688 432.672851562 -540.0234375 c 0
 426.095703125 -539.376953125 420.45703125 -544.657226562 420.0234375 -551.256835938 c 0
 419.615234375 -557.831054688 424.583984375 -563.51953125 431.161132812 -563.9765625 c 0
 432 -564.0234375 516 -571.153320312 516 -612 c 0
 516 -652.846679688 432 -659.9765625 431.161132812 -660.0234375 c 0
 430.846679688 -660.046875 430.607421875 -660.215820312 430.295898438 -660.264648438 c 0
 429.0234375 -660.408203125 427.846679688 -660.696289062 426.719726562 -661.247070312 c 2
 426.361328125 -661.46484375 l 2
 425.208007812 -662.111328125 424.176757812 -662.880859375 423.311523438 -663.865234375 c 0
 422.9765625 -664.223632812 422.760742188 -664.607421875 422.47265625 -664.9921875 c 0
 421.919921875 -665.760742188 421.416015625 -666.52734375 421.03125 -667.46484375 c 0
 420.743164062 -668.161132812 420.599609375 -668.927734375 420.45703125 -669.672851562 c 0
 420.361328125 -670.223632812 420.072265625 -670.727539062 420.0234375 -671.280273438 c 0
 420.0234375 -671.54296875 420.119140625 -671.784179688 420.119140625 -672.0234375 c 0
 420.119140625 -672.264648438 420 -672.52734375 420.0234375 -672.768554688 c 0
 420.046875 -673.342773438 420.334960938 -673.846679688 420.45703125 -674.400390625 c 0
 420.599609375 -675.142578125 420.719726562 -675.865234375 421.0078125 -676.560546875 c 0
 421.319335938 -677.280273438 421.752929688 -677.927734375 422.184570312 -678.576171875 c 0
 422.591796875 -679.153320312 422.953125 -679.776367188 423.431640625 -680.280273438 c 0
 423.984375 -680.831054688 424.630859375 -681.264648438 425.303710938 -681.743164062 c 0
 425.880859375 -682.153320312 426.408203125 -682.560546875 427.080078125 -682.873046875 c 0
 427.846679688 -683.231445312 428.665039062 -683.376953125 429.50390625 -683.51953125 c 0
 430.080078125 -683.665039062 430.560546875 -683.953125 431.161132812 -684 c 0
 432 -684.0234375 516 -691.153320312 516 -732 c 0
 516 -772.846679688 432 -779.9765625 431.161132812 -780.0234375 c 0
 424.583984375 -780.50390625 419.615234375 -786.192382812 420.0234375 -792.743164062 c 0
 420.431640625 -799.103515625 425.711914062 -804 432 -804 c 2
 432.672851562 -803.9765625 l 2
 446.111328125 -803.231445312 564 -794.857421875 564 -732 c 0
 564 -699.743164062 532.943359375 -681.888671875 500.904296875 -672 c 1
EndSplineSet
Fore
Refer: 68 -1 N 1 0 0 1 432 -672 2
Refer: 4 -1 N 0.15625 0 0 0.21875 564 -372 2
Refer: 4 -1 N 0.15625 0 0 0.21875 300 -372 2
EndChar

StartChar: GrinningFaceWithSmilingEyes.1
Encoding: 54 -1 29
Width: 864
GlyphClass: 5
Flags: W
LayerCount: 2
Back
SplineSet
864 -432 m 0
 864 -670.583984375 670.583984375 -864 432 -864 c 0
 193.439453125 -864 0 -670.583984375 0 -432 c 0
 0 -193.439453125 193.439453125 0 432 0 c 0
 670.583984375 0 864 -193.439453125 864 -432 c 1024
682.96875 -427.126953125 m 0
 681.52734375 -423.888671875 646.9921875 -348 576 -348 c 0
 505.03125 -348 470.47265625 -423.888671875 469.03125 -427.126953125 c 0
 466.823242188 -432.095703125 468.264648438 -437.904296875 472.51171875 -441.311523438 c 0
 476.711914062 -444.719726562 482.735351562 -444.838867188 487.153320312 -441.646484375 c 0
 487.439453125 -441.431640625 517.439453125 -420 576 -420 c 0
 634.223632812 -420 664.176757812 -441.142578125 664.846679688 -441.623046875 c 0
 666.9609375 -443.208007812 669.50390625 -444 672 -444 c 0
 674.638671875 -444 677.303710938 -443.111328125 679.48828125 -441.384765625 c 0
 683.735351562 -437.9765625 685.200195312 -432.119140625 682.96875 -427.126953125 c 0
394.96875 -427.126953125 m 0
 393.52734375 -423.888671875 358.9921875 -348 288 -348 c 0
 217.03125 -348 182.47265625 -423.888671875 181.03125 -427.126953125 c 0
 178.823242188 -432.095703125 180.264648438 -437.904296875 184.48828125 -441.311523438 c 0
 188.711914062 -444.719726562 194.735351562 -444.838867188 199.126953125 -441.646484375 c 0
 199.439453125 -441.431640625 229.416015625 -420 288 -420 c 0
 346.223632812 -420 376.176757812 -441.142578125 376.846679688 -441.623046875 c 0
 378.9609375 -443.208007812 381.50390625 -444 384 -444 c 0
 386.638671875 -444 389.303710938 -443.111328125 391.48828125 -441.384765625 c 0
 395.760742188 -437.9765625 397.176757812 -432.119140625 394.96875 -427.126953125 c 0
432 -528 m 0
 345.046875 -528 287.353515625 -517.873046875 216 -504 c 0
 199.704101562 -500.857421875 168 -504 168 -552 c 0
 168 -648 278.280273438 -768 432 -768 c 0
 585.696289062 -768 696 -648 696 -552 c 0
 696 -504 664.295898438 -500.831054688 648 -504 c 0
 576.646484375 -517.873046875 518.953125 -528 432 -528 c 0
216 -552 m 1
 216 -552 288 -576 432 -576 c 0
 576 -576 648 -552 648 -552 c 1
 648 -552 600 -648 432 -648 c 0
 264 -648 216 -552 216 -552 c 1
EndSplineSet
Fore
Refer: 14 -1 S -1 0 0 -1 576 -348 2
Refer: 14 -1 S -1 0 0 -1 288 -348 2
Refer: 36 -1 N 1 0 0 1 432 -768 2
EndChar

StartChar: SmilingFaceWithHeartEyes.2
Encoding: 65 -1 30
Width: 864
Flags: W
LayerCount: 2
Back
SplineSet
864 -432 m 0
 864 -670.583984375 670.583984375 -864 432 -864 c 0
 193.416015625 -864 0 -670.583984375 0 -432 c 0
 0 -193.416015625 193.416015625 0 432 0 c 0
 670.583984375 0 864 -193.416015625 864 -432 c 1024
432 -524.376953125 m 0
 360.815429688 -524.376953125 313.560546875 -516.072265625 255.142578125 -504.719726562 c 0
 241.776367188 -502.176757812 215.831054688 -504.719726562 215.831054688 -544.03125 c 0
 215.831054688 -622.630859375 306.142578125 -720.888671875 432 -720.888671875 c 0
 557.857421875 -720.888671875 648.168945312 -622.630859375 648.168945312 -544.03125 c 0
 648.168945312 -504.719726562 622.200195312 -502.153320312 608.857421875 -504.719726562 c 0
 550.439453125 -516.072265625 503.208007812 -524.376953125 432 -524.376953125 c 1024
399.599609375 -78.7431640625 m 4
 378.984375 -20.400390625 315.0234375 10.2236328125 256.657226562 -10.3427734375 c 0
 221.231445312 -22.8232421875 196.153320312 -51.408203125 186.384765625 -84.8388671875 c 1
 157.799804688 -64.943359375 120.361328125 -58.439453125 84.984375 -70.919921875 c 0
 26.6650390625 -91.51171875 -4.0078125 -155.51953125 16.607421875 -213.865234375 c 4
 19.53515625 -222.119140625 23.423828125 -229.776367188 27.935546875 -236.857421875 c 0
 74.7607421875 -322.823242188 210.046875 -383.256835938 291.9609375 -384 c 0
 355.247070312 -331.9921875 422.665039062 -200.0390625 405.192382812 -103.752929688 c 0
 404.280273438 -95.400390625 402.48046875 -87 399.599609375 -78.7431640625 c 4
464.400390625 -78.7431640625 m 0
 485.015625 -20.400390625 549 10.2236328125 607.342773438 -10.3427734375 c 0
 642.768554688 -22.8232421875 667.846679688 -51.408203125 677.638671875 -84.8388671875 c 1
 706.223632812 -64.943359375 743.665039062 -58.439453125 779.0390625 -70.919921875 c 0
 837.361328125 -91.51171875 868.0078125 -155.51953125 847.439453125 -213.865234375 c 0
 844.48828125 -222.119140625 840.623046875 -229.776367188 836.087890625 -236.857421875 c 0
 789.264648438 -322.823242188 653.9765625 -383.256835938 572.0390625 -384 c 0
 508.752929688 -331.9921875 441.361328125 -200.0390625 458.831054688 -103.752929688 c 0
 459.719726562 -95.400390625 461.51953125 -87 464.400390625 -78.7431640625 c 0
EndSplineSet
Fore
Refer: 10 -1 N 0.550269 0.194104 -0.194104 0.550269 292 -384 2
Refer: 10 -1 N 0.550269 -0.194104 0.194104 0.550269 572 -384 2
EndChar

StartChar: KissingFaceWithClosedEyes.2
Encoding: 69 -1 31
Width: 864
Flags: W
LayerCount: 2
Back
SplineSet
864 -432 m 0
 864 -670.583984375 670.583984375 -864 432 -864 c 0
 193.416015625 -864 0 -670.583984375 0 -432 c 0
 0 -193.416015625 193.416015625 0 432 0 c 0
 670.583984375 0 864 -193.416015625 864 -432 c 1024
48 -504 m 0
 48 -570.274414062 101.725585938 -624 168 -624 c 0
 234.274414062 -624 288 -570.274414062 288 -504 c 0
 288 -437.725585938 234.274414062 -384 168 -384 c 0
 101.725585938 -384 48 -437.725585938 48 -504 c 0
576 -504 m 0
 576 -570.274414062 629.725585938 -624 696 -624 c 0
 762.274414062 -624 816 -570.274414062 816 -504 c 0
 816 -437.725585938 762.274414062 -384 696 -384 c 0
 629.725585938 -384 576 -437.725585938 576 -504 c 0
681.984375 -425.353515625 m 0
 680.51953125 -423.168945312 645.623046875 -372 576 -372 c 0
 506.400390625 -372 471.48046875 -423.168945312 470.015625 -425.353515625 c 0
 466.776367188 -430.200195312 467.51953125 -436.630859375 471.719726562 -440.665039062 c 0
 475.896484375 -444.672851562 482.423828125 -445.103515625 487.153320312 -441.672851562 c 0
 487.439453125 -441.431640625 517.439453125 -420 576 -420 c 0
 634.223632812 -420 664.176757812 -441.142578125 664.846679688 -441.623046875 c 0
 666.984375 -443.208007812 669.50390625 -444 672 -444 c 0
 674.9765625 -444 677.953125 -442.896484375 680.256835938 -440.711914062 c 0
 684.50390625 -436.704101562 685.223632812 -430.200195312 681.984375 -425.353515625 c 0
288 -372 m 0
 218.400390625 -372 183.48046875 -423.168945312 182.015625 -425.353515625 c 0
 178.799804688 -430.200195312 179.51953125 -436.630859375 183.719726562 -440.665039062 c 0
 187.919921875 -444.672851562 194.447265625 -445.103515625 199.126953125 -441.672851562 c 0
 199.439453125 -441.431640625 229.416015625 -420 288 -420 c 0
 346.223632812 -420 376.176757812 -441.142578125 376.846679688 -441.623046875 c 0
 378.984375 -443.208007812 381.50390625 -444 384 -444 c 0
 386.9765625 -444 389.953125 -442.896484375 392.256835938 -440.711914062 c 0
 396.50390625 -436.704101562 397.247070312 -430.200195312 393.984375 -425.327148438 c 0
 392.51953125 -423.168945312 357.623046875 -372 288 -372 c 0
524.904296875 -648 m 1
 556.943359375 -638.111328125 588 -620.256835938 588 -588 c 0
 588 -525.142578125 470.111328125 -516.768554688 456.646484375 -516.0234375 c 0
 450 -515.161132812 444.408203125 -520.680664062 444.0234375 -527.256835938 c 0
 443.615234375 -533.831054688 448.583984375 -539.51953125 455.161132812 -539.9765625 c 0
 456 -540.0234375 540 -547.153320312 540 -588 c 0
 540 -628.846679688 456 -635.9765625 455.161132812 -636.0234375 c 0
 454.919921875 -636.046875 454.752929688 -636.168945312 454.53515625 -636.192382812 c 0
 451.560546875 -636.384765625 449.015625 -637.752929688 447.095703125 -640.0078125 c 2
 446.735351562 -640.51171875 l 2
 446.0390625 -641.447265625 445.416015625 -642.384765625 444.984375 -643.51171875 c 0
 444.719726562 -644.161132812 444.599609375 -644.880859375 444.48046875 -645.576171875 c 0
 444.361328125 -646.153320312 444.072265625 -646.680664062 444.0234375 -647.256835938 c 0
 444 -647.49609375 444.119140625 -647.735351562 444.119140625 -648 c 0
 444.119140625 -648.264648438 444 -648.50390625 444.0234375 -648.743164062 c 0
 444.072265625 -649.342773438 444.334960938 -649.846679688 444.48046875 -650.423828125 c 0
 444.623046875 -651.119140625 444.743164062 -651.838867188 445.0078125 -652.51171875 c 0
 445.319335938 -653.280273438 445.776367188 -653.953125 446.231445312 -654.623046875 c 0
 446.638671875 -655.176757812 446.953125 -655.752929688 447.431640625 -656.231445312 c 0
 447.984375 -656.807617188 448.680664062 -657.264648438 449.376953125 -657.719726562 c 0
 449.953125 -658.126953125 450.45703125 -658.51171875 451.080078125 -658.823242188 c 0
 451.823242188 -659.184570312 452.638671875 -659.327148438 453.50390625 -659.47265625 c 0
 454.056640625 -659.615234375 454.560546875 -659.904296875 455.161132812 -659.953125 c 0
 456 -660.0234375 540 -667.153320312 540 -708 c 0
 540 -748.846679688 456 -755.9765625 455.161132812 -756.0234375 c 0
 448.607421875 -756.50390625 443.615234375 -762.192382812 444.0234375 -768.743164062 c 0
 444.431640625 -775.103515625 449.688476562 -780 456 -780 c 2
 456.646484375 -779.9765625 l 2
 470.111328125 -779.231445312 588 -770.857421875 588 -708 c 0
 588 -675.743164062 556.943359375 -657.888671875 524.904296875 -648 c 1
744.0234375 -384 m 0
 736.704101562 -384 729.52734375 -380.688476562 724.799804688 -374.400390625 c 0
 661.416015625 -289.896484375 579.334960938 -288.0234375 575.857421875 -288 c 0
 562.657226562 -287.857421875 552 -277.056640625 552.072265625 -263.880859375 c 0
 552.142578125 -250.657226562 562.799804688 -240 576 -240 c 0
 580.416015625 -240 684.888671875 -241.200195312 763.200195312 -345.599609375 c 0
 771.168945312 -356.208007812 769.0078125 -371.256835938 758.400390625 -379.200195312 c 0
 754.080078125 -382.439453125 749.0390625 -384 744.0234375 -384 c 0
119.9765625 -384 m 0
 114.984375 -384 109.919921875 -382.439453125 105.599609375 -379.200195312 c 0
 94.9921875 -371.256835938 92.857421875 -356.208007812 100.799804688 -345.599609375 c 0
 179.087890625 -241.200195312 283.583984375 -240 288 -240 c 0
 301.247070312 -240 312 -250.752929688 312 -264 c 0
 312 -277.223632812 301.319335938 -287.953125 288.095703125 -288 c 0
 284.353515625 -288.046875 202.439453125 -290.064453125 139.176757812 -374.400390625 c 0
 134.49609375 -380.688476562 127.272460938 -384 119.9765625 -384 c 0
EndSplineSet
Fore
Refer: 67 -1 N -1 0 0 -1 576 -372 2
Refer: 67 -1 N -1 0 0 -1 288 -372 2
Refer: 68 -1 N 1 0 0 1 456 -648 2
Refer: 12 -1 N -1 0 0 1 576 -264 2
Refer: 12 -1 N 1 0 0 1 288 -264 2
EndChar

StartChar: SmilingFaceWithHearts.1
Encoding: 3 -1 33
Width: 864
Flags: W
LayerCount: 2
Back
SplineSet
0 -432 m 0
 0 -670.586914062 193.413085938 -864 432 -864 c 0
 670.586914062 -864 864 -670.586914062 864 -432 c 0
 864 -193.413085938 670.586914062 0 432 0 c 0
 193.413085938 0 0 -193.413085938 0 -432 c 0
384 -406.9921875 m 0
 373.943359375 -406.9921875 364.583984375 -400.630859375 361.223632812 -390.576171875 c 0
 356.353515625 -376.200195312 336.791992188 -334.9921875 312 -334.9921875 c 0
 286.51171875 -334.9921875 266.688476562 -378.838867188 262.776367188 -390.576171875 c 0
 258.576171875 -403.126953125 245.064453125 -409.96875 232.416015625 -405.743164062 c 0
 219.838867188 -401.568359375 213.046875 -387.9609375 217.247070312 -375.384765625 c 0
 220.247070312 -366.334960938 248.54296875 -286.96875 312.0234375 -286.96875 c 0
 375.50390625 -286.96875 403.776367188 -366.334960938 406.799804688 -375.384765625 c 0
 411 -387.9609375 404.208007812 -401.568359375 391.630859375 -405.743164062 c 0
 389.087890625 -406.607421875 386.51953125 -406.9921875 384 -406.9921875 c 0
624 -406.9921875 m 0
 613.943359375 -406.9921875 604.583984375 -400.630859375 601.247070312 -390.576171875 c 0
 596.376953125 -376.200195312 576.791992188 -334.9921875 552 -334.9921875 c 0
 526.51171875 -334.9921875 506.665039062 -378.838867188 502.752929688 -390.576171875 c 0
 498.552734375 -403.126953125 485.087890625 -409.96875 472.392578125 -405.743164062 c 0
 459.838867188 -401.568359375 453.0234375 -387.9609375 457.223632812 -375.384765625 c 0
 460.223632812 -366.334960938 488.51953125 -286.96875 551.9765625 -286.96875 c 0
 615.431640625 -286.96875 643.727539062 -366.334960938 646.727539062 -375.384765625 c 0
 650.927734375 -387.9609375 644.134765625 -401.568359375 631.560546875 -405.743164062 c 0
 629.064453125 -406.607421875 626.51953125 -406.9921875 624 -406.9921875 c 0
656.0390625 -496.583984375 m 0
 651.768554688 -492.719726562 645.384765625 -492.48046875 640.799804688 -495.888671875 c 0
 639.865234375 -496.583984375 546.672851562 -565.48828125 432 -565.48828125 c 0
 317.615234375 -565.48828125 224.111328125 -496.583984375 223.200195312 -495.888671875 c 0
 218.615234375 -492.48046875 212.231445312 -492.768554688 207.9609375 -496.583984375 c 0
 203.711914062 -500.423828125 202.752929688 -506.760742188 205.704101562 -511.657226562 c 0
 208.799804688 -516.815429688 282.912109375 -637.48828125 432 -637.48828125 c 0
 581.087890625 -637.48828125 655.223632812 -516.815429688 658.295898438 -511.657226562 c 0
 661.247070312 -506.735351562 660.311523438 -500.447265625 656.0390625 -496.583984375 c 0
509.49609375 -94.7275390625 m 0
 509.49609375 -100.48828125 510.215820312 -106.056640625 511.46484375 -111.431640625 c 0
 521.665039062 -174.865234375 592.200195312 -241.776367188 642.743164062 -260.161132812 c 0
 682.704101562 -245.638671875 735.046875 -200.735351562 760.295898438 -151.223632812 c 0
 710.161132812 -92.6650390625 644.638671875 -47.6884765625 570 -22.53515625 c 0
 535.630859375 -28.7041015625 509.49609375 -58.583984375 509.49609375 -94.7275390625 c 0
329.831054688 -697.873046875 m 0
 331.200195312 -692.064453125 331.9921875 -686.015625 331.9921875 -679.776367188 c 0
 331.9921875 -635.784179688 296.327148438 -600.119140625 252.334960938 -600.119140625 c 0
 225.623046875 -600.119140625 202.080078125 -613.295898438 187.607421875 -633.45703125 c 1
 173.161132812 -613.319335938 149.591796875 -600.119140625 122.880859375 -600.119140625 c 0
 93.095703125 -600.119140625 67.416015625 -616.657226562 53.7607421875 -640.873046875 c 0
 97.53515625 -719.953125 165.361328125 -783.838867188 247.392578125 -822.646484375 c 0
 286.680664062 -790.223632812 322.53515625 -743.280273438 329.831054688 -697.873046875 c 0
823.223632812 -615.408203125 m 0
 816.45703125 -592.607421875 795.576171875 -575.880859375 770.568359375 -575.880859375 c 0
 752.064453125 -575.880859375 735.743164062 -585 725.735351562 -598.96875 c 1
 715.727539062 -585 699.408203125 -575.880859375 680.904296875 -575.880859375 c 0
 650.423828125 -575.880859375 625.727539062 -600.576171875 625.727539062 -631.056640625 c 0
 625.727539062 -635.376953125 626.280273438 -639.552734375 627.215820312 -643.583984375 c 0
 634.583984375 -689.303710938 683.568359375 -737.087890625 721.03125 -753.046875 c 0
 763.657226562 -714.646484375 798.576171875 -667.919921875 823.223632812 -615.408203125 c 0
807 -78.45703125 m 0
 807 -37.8466796875 774.072265625 -4.943359375 733.48828125 -4.943359375 c 0
 708.838867188 -4.943359375 687.095703125 -17.111328125 673.752929688 -35.7119140625 c 1
 660.408203125 -17.111328125 638.665039062 -4.943359375 614.015625 -4.943359375 c 0
 573.408203125 -4.943359375 540.50390625 -37.8466796875 540.50390625 -78.45703125 c 0
 540.50390625 -84.2158203125 541.223632812 -89.7841796875 542.47265625 -95.1611328125 c 0
 552.696289062 -158.591796875 623.208007812 -225.50390625 673.752929688 -243.888671875 c 0
 724.295898438 -225.50390625 794.807617188 -158.591796875 805.0078125 -95.1845703125 c 0
 806.280273438 -89.7841796875 807 -84.2158203125 807 -78.45703125 c 0
292.9921875 -681.791992188 m 0
 292.9921875 -637.799804688 257.327148438 -602.134765625 213.334960938 -602.134765625 c 0
 186.623046875 -602.134765625 163.080078125 -615.311523438 148.607421875 -635.47265625 c 1
 134.161132812 -615.311523438 110.591796875 -602.134765625 83.880859375 -602.134765625 c 0
 39.888671875 -602.134765625 4.2236328125 -637.799804688 4.2236328125 -681.791992188 c 0
 4.2236328125 -688.03125 5.015625 -694.056640625 6.361328125 -699.888671875 c 0
 17.423828125 -768.599609375 93.8154296875 -841.103515625 148.583984375 -861.0234375 c 0
 203.353515625 -841.126953125 279.743164062 -768.623046875 290.807617188 -699.912109375 c 0
 292.200195312 -694.056640625 292.9921875 -688.0078125 292.9921875 -681.791992188 c 0
862.752929688 -627.046875 m 0
 862.752929688 -596.568359375 838.056640625 -571.873046875 807.576171875 -571.873046875 c 0
 789.072265625 -571.873046875 772.752929688 -580.9921875 762.743164062 -594.9609375 c 1
 752.735351562 -580.9921875 736.416015625 -571.873046875 717.912109375 -571.873046875 c 0
 687.431640625 -571.873046875 662.735351562 -596.568359375 662.735351562 -627.046875 c 0
 662.735351562 -631.369140625 663.288085938 -635.54296875 664.223632812 -639.576171875 c 0
 671.880859375 -687.168945312 724.799804688 -737.400390625 762.743164062 -751.176757812 c 0
 800.665039062 -737.400390625 853.607421875 -687.168945312 861.239257812 -639.576171875 c 0
 862.200195312 -635.54296875 862.752929688 -631.369140625 862.752929688 -627.046875 c 0
EndSplineSet
Fore
Refer: 9 -1 N 1 0 0 1 552 -311 2
Refer: 9 -1 N 1 0 0 1 312 -311 2
Refer: 11 -1 N 1 0 0 1 432 -637 2
EndChar

StartChar: mouth.zigzag
Encoding: 31 -1 34
Width: 864
GlyphClass: 5
Flags: W
LayerCount: 2
Back
SplineSet
-208.967235 31.032765 m 9
 -184.967235 7.032765 l 17
 -184.563912354 6.62944235436 -184.143438909 6.23756995302 -183.70588362 5.85812272611 c 1
 -173.700055747 -2.81891475044 -158.526417702 -1.73373979252 -149.842580799 8.27992876273 c 1
 -149.462836233 8.71782692496 -149.101750382 9.16559419968 -148.759254289 9.62225565676 c 13
 -76.7885894978 105.620157687 l 1
 -114.749802082 105.024304497 l 1
 -18.7498020823 -14.975695503 l 17
 -14.3481915862 -20.4777086231 -7.57820935747 -24.0043100199 0.00895493051934 -24.0043100199 c 1
 7.59611921851 -24.0043100199 14.3661014472 -20.4777086231 18.7677119433 -14.975695503 c 9
 114.749802082 105.024304497 l 1
 76.7885894978 105.620157687 l 1
 148.788589498 9.62015768699 l 17
 149.131085591 9.16349622985 149.492171442 8.71572895507 149.871916008 8.27783079278 c 1
 158.555752911 -1.73583776239 173.729390956 -2.82101272016 183.735218829 5.85602475649 c 1
 184.172774118 6.23547198335 184.593247563 6.62734438464 184.996570209 7.03066703022 c 9
 208.967235 31.032765 l 17
 213.303983946 35.3828223293 215.991966757 41.3816457925 215.991966757 48.0033270959 c 1
 215.991966757 61.2466897028 205.240035511 71.9986209489 191.996672904 71.9986209489 c 1
 185.374991601 71.9986209489 179.376168137 69.3106381374 175.032765 64.967235 c 1
 151.032765 40.967235 l 1
 187.211410502 38.379842313 l 1
 115.245238333 134.379311339 l 17
 114.641229474 135.184656484 113.979849045 135.960932634 113.261010877 136.702607705 c 1
 104.036770447 146.219894736 88.8219557498 146.458712078 79.3058133196 137.235581006 c 1
 78.5642274468 136.51682929 77.8789935901 135.761690093 77.2501979177 134.975695503 c 9
 -18.7498020823 14.975695503 l 1
 18.7498020823 14.975695503 l 1
 -77.2163700871 134.976226477 l 17
 -77.8451657594 135.762221067 -78.5303996159 136.517360264 -79.2719854886 137.23611198 c 1
 -88.7881279184 146.459243052 -104.002942616 146.220425711 -113.227183046 136.703138679 c 1
 -113.946021214 135.961463609 -114.607401643 135.185187458 -115.211410502 134.379842313 c 9
 -187.211410502 38.379842313 l 1
 -151.032765 40.967235 l 1
 -175.032765 64.967235 l 1
 -179.376168137 69.3106381374 -185.374991601 71.9986209489 -191.996672904 71.9986209489 c 1
 -205.240035511 71.9986209489 -215.991966757 61.2466897028 -215.991966757 48.0033270959 c 1
 -215.991966757 41.3816457925 -213.303983946 35.3828223293 -208.967235 31.032765 c 9
-192 48 m 1
 -168 24 l 1
 -96 120 l 1
 0 0 l 1
 96 120 l 1
 168 24 l 1
 192 48 l 1025
EndSplineSet
Fore
SplineSet
171 60 m 1049,0,-1
192 48 m 1049,1,-1
0 38 m 1,2,-1
 -78 136 l 1,3,4
 -86 144 -86 144 -96 144 c 129,-1,5
 -106 144 -106 144 -113 137 c 1,6,7
 -114 136 -114 136 -117 132 c 1,8,9
 -171 60 -171 60 -171 60 c 129,-1,10
 -171 60 -171 60 -171 61 c 1,11,-1
 -175 65 l 17,12,13
 -182 72 -182 72 -192 72 c 129,-1,14
 -202 72 -202 72 -209 65 c 129,-1,15
 -216 58 -216 58 -216 48 c 129,-1,16
 -216 38 -216 38 -209 31 c 9,17,18
 -209 31 -209 31 -185 7 c 17,19,20
 -178 0 -178 0 -168 0 c 129,-1,21
 -158 0 -158 0 -151 7 c 1,22,23
 -150 8 -150 8 -147 12 c 9,24,25
 -96 80 -96 80 -96 80 c 1,26,27
 -94 79 -94 79 -94 79 c 129,-1,28
 -94 79 -94 79 -21 -12 c 1,29,30
 -18 -16 -18 -16 -17 -17 c 1,31,32
 -10 -24 -10 -24 0 -24 c 129,-1,33
 10 -24 10 -24 17 -17 c 1,34,35
 18 -16 18 -16 21 -12 c 1,36,-1
 94 79 l 1,37,38
 94 79 94 79 96 80 c 1,39,40
 96 80 96 80 147 12 c 17,41,42
 150 8 150 8 151 7 c 1,43,44
 158 0 158 0 168 0 c 129,-1,45
 178 0 178 0 185 7 c 9,46,-1
 209 31 l 17,47,48
 216 38 216 38 216 48 c 129,-1,49
 216 58 216 58 209 65 c 129,-1,50
 202 72 202 72 192 72 c 129,-1,51
 182 72 182 72 175 65 c 9,52,53
 175 65 175 65 171 61 c 1,54,-1
 171 60 l 1,55,56
 171 60 171 60 117 132 c 1,57,58
 114 136 114 136 113 137 c 1,59,60
 106 144 106 144 96 144 c 129,-1,61
 86 144 86 144 78 136 c 9,62,63
 78 136 78 136 0 38 c 1,2,-1
-171 60 m 1049,64,-1
-192 48 m 1049,65,-1
EndSplineSet
Colour: ff00ff
EndChar

StartChar: eye.squinting
Encoding: 32 -1 35
Width: 864
GlyphClass: 5
Flags: W
LayerCount: 2
Back
SplineSet
0 -24 m 1
 0 -24 -0.0852854145495 -23.999664076 -0.0121652881564 -24.0000876498 c 0
 0.292736301292 -24.0018538983 3.27207661097 -24.0266421513 8.31769608342 -24.3215926271 c 0
 12.8586032484 -24.5870392658 19.0731004732 -25.0714215186 26.5141897974 -25.9502903364 c 0
 33.9551239362 -26.8291408252 42.6224756658 -28.1027672468 52.0652645797 -29.938603576 c 0
 59.6193732644 -31.4072488338 67.6694024238 -33.2356353346 75.9831292088 -35.5030153669 c 0
 86.3754178669 -38.33727591 97.17820171 -41.8583540612 107.942347983 -46.2012785894 c 0
 116.553850425 -49.6756930235 125.139244274 -53.6752339704 133.480129417 -58.2568469361 c 0
 141.821729771 -62.8388527645 149.916700061 -68.0014871965 157.573593067 -73.7986414836 c 0
 163.699770932 -78.4368672299 169.545985438 -83.4804554379 175.032765 -88.967235 c 1
 192 -48 l 1
 180.605582768 -48 169.451678616 -48.5999374748 158.584416291 -49.687513376 c 0
 145.000224343 -51.0469946656 131.863669838 -53.1682137857 119.260764716 -55.8390281163 c 0
 106.657734299 -58.5098689995 94.5879211361 -61.7304653746 83.1355122801 -65.295913024 c 0
 68.8199512681 -69.7527381341 55.4685078337 -74.748379956 43.2463749826 -79.8945411564 c 0
 21.2470594469 -89.1574108556 2.90189729927 -98.9067614159 -10.7963465006 -106.939239456 c 0
 -27.918428007 -116.979412904 -37.7841799339 -124.341842729 -38.3798419991 -124.788589262 c 2
 -38.3798419991 -124.788589262 -38.3762875298 -124.793338019 -38.4165979241 -124.816156205 c 0
 -44.2148974607 -129.172295319 -47.9952565552 -136.149343525 -47.9952565552 -144.002374378 c 0
 -47.9952565552 -157.246697283 -37.2425456695 -167.999408168 -23.9982227653 -167.999408168 c 0
 -18.6069307148 -167.999408168 -13.6285022813 -166.217668846 -9.62015800088 -163.211410738 c 1
 -9.62015800088 -163.211410738 -9.68703067218 -163.261151922 -9.62789184495 -163.217329748 c 0
 -9.3764861909 -163.031036871 -6.95935986485 -161.249360246 -2.6424984881 -158.382527622 c 0
 1.24262376499 -155.802413448 6.66648005992 -152.343408858 13.4322590479 -148.376041074 c 0
 25.6108294192 -141.234680438 42.1384000867 -132.4502709 61.8400447704 -124.15484156 c 0
 77.6013652441 -117.518496097 95.39041351 -111.196937725 114.59077177 -106.242006561 c 0
 127.924454698 -102.801056128 141.937164309 -100.018743762 156.423803942 -98.2288886719 c 0
 168.013305595 -96.7969811317 179.905595284 -96 192 -96 c 1
 191 -96 193.002794882 -95.9932517817 192.002794882 -95.9932517817 c 1
 195.060681506 -95.9932517817 198.168555497 -95.405031903 201.1675048 -94.1627673192 c 0
 213.403599902 -89.0941696027 219.222503161 -75.0444804633 214.153664255 -62.8078031062 c 0
 212.911340558 -59.8087110988 211.129560121 -57.1950901213 208.967235 -55.032765 c 0
 201.812039253 -47.8775692535 194.276373174 -41.3890400674 186.508116045 -35.5075702485 c 0
 176.796965307 -28.1551050792 166.723025589 -21.7500291622 156.538894332 -16.1559288942 c 0
 146.354047863 -10.5614357634 136.056888497 -5.77647486636 125.873060784 -1.66768685401 c 0
 113.143044361 3.46839167592 100.587951538 7.54928627426 88.6259242892 10.8116573422 c 0
 79.0561983484 13.4215825987 69.8650536679 15.5070830581 61.2643120602 17.1792112869 c 0
 50.5135381086 19.2693418159 40.6847075157 20.71369245 32.1941146051 21.7165183843 c 0
 23.7036768799 22.7193259896 16.5513023284 23.2803195275 11.1572677201 23.595637217 c 0
 4.41496027301 23.989770544 0.419735792634 23.9999999999 -3.19809031316e-24 24 c 0
 -13.24596 24 -24 13.24596 -24 0 c 0
 -24 -13.24596 -13.24596 -24 -1.44000000101e-08 -24 c 0
 0 -24 0 -24 0 -24 c 1
0 0 m 0
 0 0 120 0 192 -72 c 1
 72 -72 -24 -144 -24 -144 c 1024
EndSplineSet
Fore
SplineSet
-8 -162 m 1,0,1
 -15 -168 -15 -168 -24 -168 c 257,2,3
 -34 -168 -34 -168 -41 -161 c 129,-1,4
 -48 -154 -48 -154 -48 -144 c 257,5,6
 -48 -131 -48 -131 -36 -123 c 1,7,8
 2 -97 2 -97 43 -80 c 129,-1,9
 84 -63 84 -63 126 -54 c 1,10,11
 92 -38 92 -38 57 -31 c 129,-1,12
 22 -24 22 -24 0 -24 c 1,13,14
 -10 -24 -10 -24 -17 -17 c 129,-1,15
 -24 -10 -24 -10 -24 0 c 129,-1,16
 -24 10 -24 10 -17 17 c 129,-1,17
 -10 24 -10 24 0 24 c 1,18,19
 30 24 30 24 71.5 15 c 129,-1,20
 113 6 113 6 147 -11 c 129,-1,21
 181 -28 181 -28 208 -54 c 257,22,23
 216 -62 216 -62 216 -72 c 129,-1,24
 216 -82 216 -82 209 -89 c 129,-1,25
 202 -96 202 -96 192 -96 c 1,26,27
 140 -96 140 -96 86 -115 c 129,-1,28
 32 -134 32 -134 -8 -162 c 1,0,1
EndSplineSet
Colour: ff00ff
EndChar

StartChar: mouth.grinning
Encoding: 33 -1 36
Width: 864
GlyphClass: 5
Flags: W
LayerCount: 2
Back
SplineSet
0 240 m 4
 86.953125 240 144.646484375 250.126953125 216 264 c 4
 232.295898438 267.142578125 264 264 264 216 c 4
 264 120 153.696289062 0 0 0 c 4
 -153.696289062 0 -264 120 -264 216 c 4
 -264 264 -232.295898438 267.142578125 -216 264 c 4
 -144.646484375 250.126953125 -86.953125 240 0 240 c 4
EndSplineSet
Fore
SplineSet
0 240 m 131,-1,1
 62 240 62 240 114.5 247 c 128,-1,2
 167 254 167 254 216 264 c 1,3,4
 238 268 238 268 251 255.5 c 128,-1,5
 264 243 264 243 264 216 c 3,6,7
 264 166 264 166 228 115 c 128,-1,8
 192 64 192 64 131 32 c 128,-1,9
 70 -7.1054273576e-15 70 -7.1054273576e-15 0 0 c 131,-1,10
 -70 -7.1054273576e-15 -70 -7.1054273576e-15 -131 32 c 128,-1,11
 -192 64 -192 64 -228 115 c 128,-1,12
 -264 166 -264 166 -264 216 c 3,13,14
 -264 243 -264 243 -251 255.5 c 128,-1,15
 -238 268 -238 268 -216 264 c 1,16,17
 -167 254 -167 254 -114.5 247 c 128,-1,0
 -62 240 -62 240 0 240 c 131,-1,1
EndSplineSet
Colour: ff00ff
EndChar

StartChar: LoudlyCryingFace.2
Encoding: 5 -1 38
Width: 864
Flags: W
LayerCount: 2
Back
SplineSet
432 -696 m 0
 392.231445312 -696 360 -687.768554688 360 -648 c 0
 360 -608.231445312 392.231445312 -600 432 -600 c 0
 471.768554688 -600 504 -608.231445312 504 -648 c 0
 504 -687.768554688 471.768554688 -696 432 -696 c 0
864 -432 m 0
 864 -670.583984375 670.583984375 -864 432 -864 c 0
 193.416015625 -864 0 -670.583984375 0 -432 c 0
 0 -193.416015625 193.416015625 0 432 0 c 0
 670.583984375 0 864 -193.416015625 864 -432 c 1024
528 -648 m 0
 528 -714.311523438 485.015625 -720 432 -720 c 0
 378.9609375 -720 336 -714.311523438 336 -648 c 0
 336 -581.735351562 378.9609375 -504 432 -504 c 0
 485.015625 -504 528 -581.735351562 528 -648 c 0
720 -360 m 0
 717.0234375 -360 714 -359.447265625 711.095703125 -358.272460938 c 0
 585.599609375 -308.087890625 534.168945312 -232.48828125 532.03125 -229.295898438 c 0
 524.665039062 -218.256835938 527.638671875 -203.353515625 538.680664062 -196.0078125 c 0
 549.696289062 -188.665039062 564.52734375 -191.591796875 571.919921875 -202.583984375 c 0
 572.376953125 -203.231445312 618.239257812 -269.423828125 728.904296875 -313.680664062 c 0
 741.215820312 -318.623046875 747.215820312 -332.568359375 742.295898438 -344.880859375 c 0
 738.52734375 -354.288085938 729.50390625 -360 720 -360 c 0
144 -360 m 0
 134.47265625 -360 125.47265625 -354.288085938 121.704101562 -344.904296875 c 0
 116.784179688 -332.591796875 122.760742188 -318.623046875 135.072265625 -313.704101562 c 0
 245.760742188 -269.447265625 291.623046875 -203.256835938 292.080078125 -202.607421875 c 0
 299.47265625 -191.665039062 314.376953125 -188.760742188 325.369140625 -196.126953125 c 0
 336.334960938 -203.51953125 339.311523438 -218.327148438 331.96875 -229.319335938 c 0
 329.831054688 -232.51171875 278.400390625 -308.111328125 152.927734375 -358.295898438 c 0
 150 -359.447265625 146.9765625 -360 144 -360 c 0
576 -384 m 1
 672 -384 l 1
 672 -840 l 1
 576 -838.896484375 l 1
 576 -384 l 1
192 -840 m 1
 288 -838.896484375 l 1
 288 -384 l 1
 192 -384 l 1
 192 -840 l 1
359.9765625 -432 m 0
 356.376953125 -432 352.704101562 -431.184570312 349.272460938 -429.48046875 c 0
 264.984375 -387.334960938 179.591796875 -429.046875 178.752929688 -429.48046875 c 0
 166.873046875 -435.45703125 152.47265625 -430.583984375 146.54296875 -418.752929688 c 0
 140.615234375 -406.896484375 145.416015625 -392.47265625 157.272460938 -386.54296875 c 0
 161.638671875 -384.384765625 265.223632812 -333.815429688 370.752929688 -386.54296875 c 0
 382.607421875 -392.47265625 387.408203125 -406.896484375 381.48046875 -418.752929688 c 0
 377.256835938 -427.153320312 368.784179688 -432 359.9765625 -432 c 0
695.9765625 -432 m 0
 692.376953125 -432 688.704101562 -431.184570312 685.272460938 -429.48046875 c 0
 600.9609375 -387.334960938 515.591796875 -429.046875 514.752929688 -429.48046875 c 0
 502.896484375 -435.431640625 488.49609375 -430.607421875 482.54296875 -418.752929688 c 0
 476.615234375 -406.896484375 481.416015625 -392.47265625 493.272460938 -386.54296875 c 0
 497.638671875 -384.384765625 601.295898438 -333.838867188 706.752929688 -386.54296875 c 0
 718.607421875 -392.47265625 723.408203125 -406.896484375 717.48046875 -418.752929688 c 0
 713.256835938 -427.153320312 704.784179688 -432 695.9765625 -432 c 0
0 -816 m 0
 0 -842.509765625 193.413085938 -864 432 -864 c 0
 670.586914062 -864 864 -842.509765625 864 -816 c 0
 864 -789.490234375 670.586914062 -768 432 -768 c 0
 193.413085938 -768 0 -789.490234375 0 -816 c 0
EndSplineSet
Fore
Refer: 18 -1 N 1 0 0 1 504 -408 2
Refer: 18 -1 N 1 0 0 1 168 -408 2
Refer: 20 -1 N 1 0 0 1 432 -720 2
Refer: 17 -1 N -1 0 0 1 552 -216 2
Refer: 17 -1 N 1 0 0 1 312 -216 2
EndChar

StartChar: SmilingFace.2
Encoding: 7 -1 40
Width: 864
Flags: W
LayerCount: 2
Back
SplineSet
320.483398438 -591.516601562 m 1
 320.483398438 -591.516601562 320.232421875 -591.274414062 320.233398438 -591.275390625 c 2
 320.233398438 -591.275390625 320.763671875 -591.791015625 322.59375 -592.94921875 c 0
 324.7890625 -594.337890625 328.653320312 -596.463867188 334.73828125 -598.803710938 c 0
 350.133789062 -604.724609375 379.786132812 -612 432 -612 c 0
 484.213867188 -612 513.866210938 -604.724609375 529.26171875 -598.803710938 c 0
 535.346679688 -596.463867188 539.2109375 -594.337890625 541.40625 -592.94921875 c 0
 543.236328125 -591.791015625 543.766601562 -591.275390625 543.766601562 -591.275390625 c 1
 543.766601562 -591.275390625 543.515625 -591.516601562 543.516601562 -591.516601562 c 0
 545.688476562 -589.344726562 548.688476562 -588 552 -588 c 0
 558.623046875 -588 564 -593.376953125 564 -600 c 0
 564 -601.005859375 563.875976562 -601.982421875 563.642578125 -602.916015625 c 0
 563.475585938 -603.583007812 559.938476562 -617.63671875 550.233398438 -635.474609375 c 0
 542.4765625 -649.73046875 530.7109375 -666.530273438 513.265625 -680.486328125 c 0
 502.3671875 -689.204101562 489.249023438 -696.771484375 473.73828125 -701.735351562 c 0
 461.333007812 -705.705078125 447.431640625 -708 432 -708 c 0
 416.568359375 -708 402.666992188 -705.705078125 390.26171875 -701.735351562 c 0
 374.750976562 -696.771484375 361.6328125 -689.204101562 350.734375 -680.486328125 c 0
 333.2890625 -666.530273438 321.5234375 -649.73046875 313.766601562 -635.474609375 c 0
 304.061523438 -617.63671875 300.524414062 -603.583007812 300.357421875 -602.916015625 c 0
 300.124023438 -601.982421875 300 -601.005859375 300 -600 c 0
 300 -593.376953125 305.376953125 -588 312 -588 c 0
 315.311523438 -588 318.311523438 -589.344726562 320.483398438 -591.516601562 c 1
864 -432 m 0
 864 -670.583984375 670.583984375 -864 432 -864 c 0
 193.439453125 -864 0 -670.583984375 0 -432 c 0
 0 -193.439453125 193.439453125 0 432 0 c 0
 670.583984375 0 864 -193.439453125 864 -432 c 1024
576 -528 m 0
 576 -594.274414062 629.725585938 -648 696 -648 c 0
 762.274414062 -648 816 -594.274414062 816 -528 c 0
 816 -461.725585938 762.274414062 -408 696 -408 c 0
 629.725585938 -408 576 -461.725585938 576 -528 c 0
48 -528 m 0
 48 -594.274414062 101.725585938 -648 168 -648 c 0
 234.274414062 -648 288 -594.274414062 288 -528 c 0
 288 -461.725585938 234.274414062 -408 168 -408 c 0
 101.725585938 -408 48 -461.725585938 48 -528 c 0
696 -336 m 0
 689.857421875 -336 683.711914062 -333.646484375 679.03125 -328.96875 c 0
 617.184570312 -267.168945312 509.711914062 -287.303710938 508.657226562 -287.54296875 c 0
 495.50390625 -290.161132812 483.046875 -281.615234375 480.48046875 -268.657226562 c 0
 477.912109375 -255.672851562 486.288085938 -243.072265625 499.272460938 -240.48046875 c 0
 504.719726562 -239.376953125 632.784179688 -214.919921875 712.943359375 -295.03125 c 0
 722.327148438 -304.416015625 722.327148438 -319.583984375 712.943359375 -328.96875 c 0
 708.288085938 -333.646484375 702.142578125 -336 696 -336 c 0
168 -336 m 0
 161.857421875 -336 155.711914062 -333.646484375 151.03125 -328.96875 c 0
 141.646484375 -319.583984375 141.646484375 -304.416015625 151.03125 -295.03125 c 0
 231.192382812 -214.846679688 359.303710938 -239.400390625 364.704101562 -240.48046875 c 0
 377.711914062 -243.072265625 386.134765625 -255.719726562 383.51953125 -268.727539062 c 0
 380.927734375 -281.688476562 368.327148438 -290.134765625 355.319335938 -287.568359375 c 0
 353.665039062 -287.208007812 246.623046875 -267.334960938 184.96875 -328.9921875 c 0
 180.288085938 -333.646484375 174.142578125 -336 168 -336 c 0
624 -456 m 0
 617.857421875 -456 611.711914062 -453.646484375 607.03125 -448.96875 c 0
 575.735351562 -417.646484375 508.873046875 -425.591796875 485.784179688 -431.303710938 c 0
 472.823242188 -434.47265625 459.935546875 -426.623046875 456.719726562 -413.784179688 c 0
 453.52734375 -400.919921875 461.327148438 -387.935546875 474.192382812 -384.719726562 c 0
 478.657226562 -383.615234375 583.9921875 -358.056640625 640.96875 -415.03125 c 0
 650.353515625 -424.416015625 650.353515625 -439.583984375 640.96875 -448.96875 c 0
 636.288085938 -453.646484375 630.142578125 -456 624 -456 c 0
240 -456 m 0
 233.857421875 -456 227.711914062 -453.646484375 223.03125 -448.96875 c 0
 213.646484375 -439.583984375 213.646484375 -424.416015625 223.03125 -415.03125 c 0
 279.984375 -358.080078125 385.369140625 -383.615234375 389.831054688 -384.719726562 c 0
 402.672851562 -387.935546875 410.47265625 -400.919921875 407.280273438 -413.784179688 c 0
 404.111328125 -426.646484375 391.126953125 -434.49609375 378.239257812 -431.303710938 c 0
 355.103515625 -425.615234375 288.264648438 -417.696289062 256.9921875 -448.96875 c 0
 252.288085938 -453.646484375 246.142578125 -456 240 -456 c 0
EndSplineSet
Fore
Refer: 3 -1 N -1 0 0 1 504 -264 2
Refer: 3 -1 N 1 0 0 1 360 -264 2
Refer: 8 -1 N 1 0 0 1 432 -708 2
Refer: 1 -1 N -1 0 0 1 480 -408 0
Refer: 1 -1 N 1 0 0 1 384 -408 0
EndChar

StartChar: FlushedFace.4
Encoding: 11 -1 44
Width: 864
Flags: W
LayerCount: 2
Back
SplineSet
864 -432 m 0
 864 -670.583984375 670.583984375 -864 432 -864 c 0
 193.439453125 -864 0 -670.583984375 0 -432 c 0
 0 -193.439453125 193.439453125 0 432 0 c 0
 670.583984375 0 864 -193.439453125 864 -432 c 1024
576 -552 m 0
 576 -618.274414062 629.725585938 -672 696 -672 c 0
 762.274414062 -672 816 -618.274414062 816 -552 c 0
 816 -485.725585938 762.274414062 -432 696 -432 c 0
 629.725585938 -432 576 -485.725585938 576 -552 c 0
48 -552 m 0
 48 -618.274414062 101.725585938 -672 168 -672 c 0
 234.274414062 -672 288 -618.274414062 288 -552 c 0
 288 -485.725585938 234.274414062 -432 168 -432 c 0
 101.725585938 -432 48 -485.725585938 48 -552 c 0
456 -396 m 0
 456 -468.90234375 515.09765625 -528 588 -528 c 0
 660.90234375 -528 720 -468.90234375 720 -396 c 0
 720 -323.09765625 660.90234375 -264 588 -264 c 0
 515.09765625 -264 456 -323.09765625 456 -396 c 0
144 -396 m 0
 144 -468.90234375 203.09765625 -528 276 -528 c 0
 348.90234375 -528 408 -468.90234375 408 -396 c 0
 408 -323.09765625 348.90234375 -264 276 -264 c 0
 203.09765625 -264 144 -323.09765625 144 -396 c 0
216 -396 m 0
 216 -429.135742188 242.864257812 -456 276 -456 c 0
 309.135742188 -456 336 -429.135742188 336 -396 c 0
 336 -362.864257812 309.135742188 -336 276 -336 c 0
 242.864257812 -336 216 -362.864257812 216 -396 c 0
528 -396 m 0
 528 -429.135742188 554.864257812 -456 588 -456 c 0
 621.135742188 -456 648 -429.135742188 648 -396 c 0
 648 -362.864257812 621.135742188 -336 588 -336 c 0
 554.864257812 -336 528 -362.864257812 528 -396 c 0
528 -720 m 2
 336 -720 l 2
 322.752929688 -720 312 -709.272460938 312 -696 c 0
 312 -682.727539062 322.752929688 -672 336 -672 c 2
 528 -672 l 2
 541.272460938 -672 552 -682.727539062 552 -696 c 0
 552 -709.272460938 541.272460938 -720 528 -720 c 2
720.0234375 -264 m 0
 712.704101562 -264 705.52734375 -260.688476562 700.799804688 -254.400390625 c 0
 637.439453125 -169.896484375 555.334960938 -168.046875 551.857421875 -168 c 0
 538.657226562 -167.857421875 528 -157.056640625 528.072265625 -143.880859375 c 0
 528.142578125 -130.657226562 538.799804688 -120 552 -120 c 0
 556.416015625 -120 660.888671875 -121.200195312 739.200195312 -225.599609375 c 0
 747.168945312 -236.208007812 745.0078125 -251.256835938 734.400390625 -259.200195312 c 0
 730.080078125 -262.439453125 725.0390625 -264 720.0234375 -264 c 0
143.9765625 -264 m 0
 138.984375 -264 133.919921875 -262.439453125 129.599609375 -259.200195312 c 0
 118.9921875 -251.256835938 116.857421875 -236.208007812 124.799804688 -225.599609375 c 0
 203.087890625 -121.200195312 307.583984375 -120 312 -120 c 0
 325.247070312 -120 336 -130.752929688 336 -144 c 0
 336 -157.223632812 325.319335938 -167.953125 312.095703125 -168 c 0
 308.376953125 -168.046875 226.46484375 -170.064453125 163.200195312 -254.400390625 c 0
 158.49609375 -260.688476562 151.272460938 -264 143.9765625 -264 c 0
EndSplineSet
Fore
Refer: 12 -1 N -1 0 0 1 552 -144 2
Refer: 12 -1 N 1 0 0 1 312 -144 2
Refer: 16 -1 N 1 0 0 1 336 -696 2
EndChar

StartChar: PensiveFace.1
Encoding: 13 -1 46
Width: 864
Flags: W
LayerCount: 2
Back
SplineSet
864 -432 m 0
 864 -670.583984375 670.583984375 -864 432 -864 c 0
 193.439453125 -864 0 -670.583984375 0 -432 c 0
 0 -193.439453125 193.439453125 0 432 0 c 0
 670.583984375 0 864 -193.439453125 864 -432 c 1024
415.48828125 -422.688476562 m 0
 411.264648438 -419.256835938 405.239257812 -419.161132812 400.846679688 -422.353515625 c 0
 400.560546875 -422.568359375 370.607421875 -444 312 -444 c 0
 253.416015625 -444 223.439453125 -422.568359375 223.200195312 -422.400390625 c 0
 218.807617188 -419.111328125 212.760742188 -419.208007812 208.53515625 -422.615234375 c 0
 204.264648438 -426.0234375 202.823242188 -431.880859375 205.03125 -436.873046875 c 0
 206.47265625 -440.111328125 241.03125 -516 312 -516 c 0
 382.9921875 -516 417.52734375 -440.111328125 418.96875 -436.873046875 c 0
 421.176757812 -431.904296875 419.735351562 -426.095703125 415.48828125 -422.688476562 c 0
655.48828125 -422.688476562 m 0
 651.264648438 -419.256835938 645.264648438 -419.134765625 640.846679688 -422.353515625 c 0
 640.560546875 -422.568359375 610.583984375 -444 552 -444 c 0
 493.439453125 -444 463.439453125 -422.568359375 463.200195312 -422.400390625 c 0
 458.807617188 -419.111328125 452.784179688 -419.208007812 448.53515625 -422.615234375 c 0
 444.264648438 -426.0234375 442.823242188 -431.880859375 445.03125 -436.873046875 c 0
 446.47265625 -440.111328125 481.03125 -516 552 -516 c 0
 622.9921875 -516 657.52734375 -440.111328125 658.96875 -436.873046875 c 0
 661.176757812 -431.904296875 659.735351562 -426.095703125 655.48828125 -422.688476562 c 0
528 -672 m 2
 336 -672 l 2
 322.752929688 -672 312 -661.272460938 312 -648 c 0
 312 -634.727539062 322.752929688 -624 336 -624 c 2
 528 -624 l 2
 541.272460938 -624 552 -634.727539062 552 -648 c 0
 552 -661.272460938 541.272460938 -672 528 -672 c 2
144 -336 m 0
 130.752929688 -336 120 -325.247070312 120 -312 c 0
 120 -298.776367188 130.680664062 -288.046875 143.904296875 -288 c 0
 147.646484375 -287.953125 229.560546875 -285.935546875 292.823242188 -201.599609375 c 0
 300.768554688 -191.0390625 315.791992188 -188.831054688 326.423828125 -196.799804688 c 0
 337.03125 -204.743164062 339.168945312 -219.791992188 331.223632812 -230.400390625 c 0
 252.912109375 -334.799804688 148.416015625 -336 144 -336 c 0
720 -336 m 0
 715.583984375 -336 611.111328125 -334.799804688 532.799804688 -230.400390625 c 0
 524.831054688 -219.791992188 526.9921875 -204.743164062 537.599609375 -196.799804688 c 0
 548.184570312 -188.807617188 563.208007812 -190.9921875 571.176757812 -201.599609375 c 0
 634.560546875 -286.103515625 716.638671875 -287.9765625 720.119140625 -288 c 0
 733.319335938 -288.142578125 743.9765625 -298.943359375 743.904296875 -312.119140625 c 0
 743.857421875 -325.342773438 733.200195312 -336 720 -336 c 0
EndSplineSet
Fore
Refer: 16 -1 N 1 0 0 1 336 -648 2
Refer: 14 -1 N 1 0 0 1 552 -516 2
Refer: 14 -1 N 1 0 0 1 312 -516 2
Refer: 12 -1 N 1 0 0 -1 720 -312 2
Refer: 12 -1 N -1 0 0 -1 144 -312 2
EndChar

StartChar: teeth.grinning
Encoding: 34 -1 47
Width: 864
GlyphClass: 5
Flags: W
LayerCount: 2
Back
SplineSet
-216 216 m 5
 -216 216 -144 192 0 192 c 4
 144 192 216 216 216 216 c 5
 216 216 168 120 0 120 c 4
 -168 120 -216 216 -216 216 c 5
EndSplineSet
Fore
SplineSet
0 192 m 131,-1,1
 -66 192 -66 192 -123 198.5 c 128,-1,2
 -180 205 -180 205 -216 216 c 1,3,4
 -192 174 -192 174 -135 147 c 128,-1,5
 -78 120 -78 120 0 120 c 131,-1,6
 78 120 78 120 135 147 c 128,-1,7
 192 174 192 174 216 216 c 1,8,9
 180 205 180 205 123 198.5 c 128,-1,0
 66 192 66 192 0 192 c 131,-1,1
EndSplineSet
Colour: ff00ff
EndChar

StartChar: waterdrop
Encoding: 35 -1 48
Width: 864
GlyphClass: 5
Flags: W
LayerCount: 2
Back
SplineSet
120 -240 m 0
 120 -306.229492188 66.2294921875 -360 0 -360 c 0
 -66.2294921875 -360 -120 -306.229492188 -120 -240 c 0
 -120 -173.711914062 -24 0 0 0 c 0
 24 0 120 -173.711914062 120 -240 c 0
EndSplineSet
Fore
SplineSet
0 -360 m 131,-1,1
 -50 -360 -50 -360 -85 -324 c 128,-1,2
 -120 -288 -120 -288 -120 -240 c 131,-1,3
 -120 -192 -120 -192 -69 -96 c 128,-1,4
 -18 0 -18 0 0 0 c 131,-1,5
 18 0 18 0 69 -96 c 128,-1,6
 120 -192 120 -192 120 -240 c 131,-1,7
 120 -288 120 -288 85 -324 c 128,-1,0
 50 -360 50 -360 0 -360 c 131,-1,1
EndSplineSet
Colour: ff00ff
EndChar

StartChar: eye.tall
Encoding: 36 -1 49
Width: 864
GlyphClass: 5
Flags: W
LayerCount: 2
Back
SplineSet
60 132 m 4
 60 72.361328125 33.142578125 0 0 0 c 4
 -33.142578125 0 -60 72.361328125 -60 132 c 4
 -60 191.638671875 -33.142578125 264 0 264 c 4
 33.142578125 264 60 191.638671875 60 132 c 4
EndSplineSet
Fore
SplineSet
-60 132 m 131,-1,1
 -60 180 -60 180 -41.5 222 c 128,-1,2
 -23 264 -23 264 0 264 c 131,-1,3
 23 264 23 264 41.5 222 c 128,-1,4
 60 180 60 180 60 132 c 131,-1,5
 60 84 60 84 41.5 42 c 128,-1,6
 23 0 23 0 0 0 c 131,-1,7
 -23 0 -23 0 -41.5 42 c 128,-1,0
 -60 84 -60 84 -60 132 c 131,-1,1
EndSplineSet
Colour: ff00ff
EndChar

StartChar: BeamingFaceWithSmilingEyes.1
Encoding: 55 -1 50
Width: 864
GlyphClass: 5
Flags: W
LayerCount: 2
Back
SplineSet
864 -432 m 0
 864 -670.583984375 670.583984375 -864 432 -864 c 0
 193.439453125 -864 0 -670.583984375 0 -432 c 0
 0 -193.439453125 193.439453125 0 432 0 c 0
 670.583984375 0 864 -193.439453125 864 -432 c 1024
384 -432 m 0
 373.943359375 -432 364.583984375 -425.638671875 361.223632812 -415.583984375 c 0
 356.353515625 -401.208007812 336.815429688 -360 312 -360 c 0
 286.51171875 -360 266.688476562 -403.846679688 262.776367188 -415.583984375 c 0
 258.576171875 -428.134765625 245.064453125 -434.9765625 232.416015625 -430.752929688 c 0
 219.838867188 -426.576171875 213.046875 -412.96875 217.247070312 -400.392578125 c 0
 220.247070312 -391.369140625 248.54296875 -312 312 -312 c 0
 375.45703125 -312 403.752929688 -391.369140625 406.776367188 -400.416015625 c 0
 410.9765625 -412.9921875 404.184570312 -426.599609375 391.607421875 -430.776367188 c 0
 389.064453125 -431.591796875 386.49609375 -432 384 -432 c 0
624 -432 m 0
 613.943359375 -432 604.583984375 -425.638671875 601.247070312 -415.583984375 c 0
 596.376953125 -401.208007812 576.791992188 -360 552 -360 c 0
 526.51171875 -360 506.665039062 -403.846679688 502.752929688 -415.583984375 c 0
 498.552734375 -428.134765625 485.087890625 -434.9765625 472.392578125 -430.752929688 c 0
 459.838867188 -426.576171875 453.0234375 -412.96875 457.223632812 -400.392578125 c 0
 460.247070312 -391.369140625 488.51953125 -312 552 -312 c 0
 615.48046875 -312 643.752929688 -391.369140625 646.752929688 -400.416015625 c 0
 650.953125 -412.9921875 644.161132812 -426.599609375 631.583984375 -430.776367188 c 0
 629.064453125 -431.591796875 626.49609375 -432 624 -432 c 0
432 -528 m 0
 345.046875 -528 287.353515625 -517.873046875 216 -504 c 0
 199.704101562 -500.857421875 168 -504 168 -552 c 0
 168 -648 278.280273438 -768 432 -768 c 0
 585.696289062 -768 696 -648 696 -552 c 0
 696 -504 664.295898438 -500.831054688 648 -504 c 0
 576.646484375 -517.873046875 518.953125 -528 432 -528 c 0
216 -552 m 1
 216 -552 288 -576 432 -576 c 0
 576 -576 648 -552 648 -552 c 1
 648 -552 615.743164062 -714 432 -714 c 0
 248.256835938 -714 216 -552 216 -552 c 1
432 -662.256835938 m 0
 345.696289062 -662.256835938 281.47265625 -653.327148438 241.51171875 -644.376953125 c 2
 221.711914062 -599.47265625 l 1
 241.46484375 -606.9609375 315.046875 -621 432.0234375 -621 c 0
 550.919921875 -621 624.912109375 -606.215820312 644.760742188 -598.48828125 c 1
 627.935546875 -642.696289062 l 2
 588.719726562 -651.815429688 521.880859375 -662.256835938 432 -662.256835938 c 0
EndSplineSet
Fore
Refer: 9 -1 N 1 0 0 1 552 -336 2
Refer: 9 -1 N 1 0 0 1 312 -336 2
Refer: 36 -1 N 1 0 0 1 432 -768 2
EndChar

StartChar: GrinningFaceWithSquintingEyes.1
Encoding: 56 -1 51
Width: 864
GlyphClass: 5
Flags: W
LayerCount: 2
Back
SplineSet
864 -432 m 0
 864 -670.583984375 670.583984375 -864 432 -864 c 0
 193.439453125 -864 0 -670.583984375 0 -432 c 0
 0 -193.439453125 193.439453125 0 432 0 c 0
 670.583984375 0 864 -193.439453125 864 -432 c 1024
432 -528 m 0
 345.046875 -528 287.353515625 -517.873046875 216 -504 c 0
 199.704101562 -500.857421875 168 -504 168 -552 c 0
 168 -648 278.280273438 -768 432 -768 c 0
 585.696289062 -768 696 -648 696 -552 c 0
 696 -504 664.295898438 -500.831054688 648 -504 c 0
 576.646484375 -517.873046875 518.953125 -528 432 -528 c 0
216 -552 m 1
 216 -552 288 -576 432 -576 c 0
 576 -576 648 -552 648 -552 c 1
 648 -552 600 -648 432 -648 c 0
 264 -648 216 -552 216 -552 c 1
144.0234375 -480 m 0
 136.727539062 -480 129.52734375 -476.688476562 124.799804688 -470.400390625 c 0
 116.831054688 -459.815429688 118.9921875 -444.768554688 129.599609375 -436.823242188 c 0
 133.03125 -434.256835938 200.423828125 -384.431640625 294.142578125 -366.431640625 c 1
 234.743164062 -336.646484375 168.815429688 -336 167.9765625 -336 c 0
 154.727539062 -335.953125 144 -325.200195312 144.0234375 -311.953125 c 0
 144.0234375 -298.727539062 154.752929688 -288 168 -288 c 0
 173.303710938 -288 298.846679688 -288.912109375 376.96875 -367.03125 c 0
 383.831054688 -373.896484375 385.896484375 -384.215820312 382.176757812 -393.192382812 c 0
 378.45703125 -402.168945312 369.696289062 -408 360 -408 c 0
 249.288085938 -408 159.288085938 -474.52734375 158.400390625 -475.200195312 c 0
 154.080078125 -478.439453125 149.015625 -480 144.0234375 -480 c 0
719.9765625 -479.9765625 m 0
 714.984375 -479.9765625 709.943359375 -478.439453125 705.623046875 -475.223632812 c 0
 704.711914062 -474.52734375 614.161132812 -408 504 -408 c 0
 494.303710938 -408 485.51953125 -402.168945312 481.823242188 -393.192382812 c 0
 478.103515625 -384.215820312 480.168945312 -373.896484375 487.03125 -367.03125 c 0
 565.176757812 -288.912109375 690.696289062 -288 696 -288 c 0
 709.247070312 -288 719.953125 -298.727539062 719.9765625 -311.953125 c 0
 720 -325.200195312 709.272460938 -335.953125 696.046875 -336 c 0
 695.184570312 -336 629.256835938 -336.646484375 569.857421875 -366.431640625 c 1
 663.576171875 -384.431640625 730.96875 -434.231445312 734.376953125 -436.823242188 c 0
 744.9609375 -444.768554688 747.119140625 -459.768554688 739.200195312 -470.376953125 c 0
 734.49609375 -476.638671875 727.295898438 -479.9765625 719.9765625 -479.9765625 c 0
EndSplineSet
Fore
Refer: 35 -1 N -1 0 0 1 696 -312 2
Refer: 35 -1 N 1 0 0 1 168 -312 2
Refer: 36 -1 N 1 0 0 1 432 -768 2
EndChar

StartChar: GrinningFaceWithSweat.3
Encoding: 57 -1 52
Width: 864
GlyphClass: 5
Flags: W
LayerCount: 2
Back
SplineSet
864 -432 m 0
 864 -670.583984375 670.583984375 -864 432 -864 c 0
 193.439453125 -864 0 -670.583984375 0 -432 c 0
 0 -193.439453125 193.439453125 0 432 0 c 0
 670.583984375 0 864 -193.439453125 864 -432 c 1024
682.96875 -427.126953125 m 0
 681.52734375 -423.888671875 646.9921875 -348 576 -348 c 0
 505.03125 -348 470.47265625 -423.888671875 469.03125 -427.126953125 c 0
 466.823242188 -432.095703125 468.264648438 -437.904296875 472.51171875 -441.311523438 c 0
 476.711914062 -444.719726562 482.735351562 -444.838867188 487.153320312 -441.646484375 c 0
 487.439453125 -441.431640625 517.439453125 -420 576 -420 c 0
 634.223632812 -420 664.176757812 -441.142578125 664.846679688 -441.623046875 c 0
 666.9609375 -443.208007812 669.50390625 -444 672 -444 c 0
 674.638671875 -444 677.303710938 -443.111328125 679.48828125 -441.384765625 c 0
 683.735351562 -437.9765625 685.200195312 -432.119140625 682.96875 -427.126953125 c 0
394.96875 -427.126953125 m 0
 393.52734375 -423.888671875 358.9921875 -348 288 -348 c 0
 217.03125 -348 182.47265625 -423.888671875 181.03125 -427.126953125 c 0
 178.823242188 -432.095703125 180.264648438 -437.904296875 184.48828125 -441.311523438 c 0
 188.711914062 -444.719726562 194.735351562 -444.838867188 199.126953125 -441.646484375 c 0
 199.439453125 -441.431640625 229.416015625 -420 288 -420 c 0
 346.223632812 -420 376.176757812 -441.142578125 376.846679688 -441.623046875 c 0
 378.9609375 -443.208007812 381.50390625 -444 384 -444 c 0
 386.638671875 -444 389.303710938 -443.111328125 391.48828125 -441.384765625 c 0
 395.760742188 -437.9765625 397.176757812 -432.119140625 394.96875 -427.126953125 c 0
432 -528 m 0
 345.046875 -528 287.353515625 -517.873046875 216 -504 c 0
 199.704101562 -500.857421875 168 -504 168 -552 c 0
 168 -648 278.280273438 -768 432 -768 c 0
 585.696289062 -768 696 -648 696 -552 c 0
 696 -504 664.295898438 -500.831054688 648 -504 c 0
 576.646484375 -517.873046875 518.953125 -528 432 -528 c 0
216 -552 m 1
 216 -552 288 -576 432 -576 c 0
 576 -576 648 -552 648 -552 c 1
 648 -552 600 -648 432 -648 c 0
 264 -648 216 -552 216 -552 c 1
840 -264 m 0
 840 -330.288085938 786.288085938 -384 720 -384 c 0
 653.711914062 -384 600 -330.288085938 600 -264 c 0
 600 -197.711914062 696 -24 720 -24 c 0
 744 -24 840 -197.711914062 840 -264 c 0
EndSplineSet
Fore
Refer: 48 -1 N 1 0 0 1 720 -24 2
EndChar

StartChar: RollingOnTheFloorLaughing.1
Encoding: 58 -1 53
Width: 864
GlyphClass: 5
Flags: W
LayerCount: 2
Back
SplineSet
737.47265625 -126.52734375 m 0
 906.168945312 -295.223632812 906.168945312 -568.776367188 737.47265625 -737.47265625 c 0
 568.776367188 -906.168945312 295.247070312 -906.168945312 126.52734375 -737.47265625 c 0
 -42.1689453125 -568.776367188 -42.1689453125 -295.223632812 126.52734375 -126.52734375 c 0
 295.223632812 42.1689453125 568.752929688 42.1689453125 737.47265625 -126.52734375 c 1024
462.696289062 -462.719726562 m 0
 378.838867188 -546.576171875 313.439453125 -592.416015625 231.215820312 -647.857421875 c 0
 212.47265625 -660.552734375 184.943359375 -694.153320312 231.239257812 -740.47265625 c 0
 323.807617188 -833.0390625 545.904296875 -842.400390625 694.126953125 -694.176757812 c 0
 842.376953125 -545.927734375 833.0390625 -323.857421875 740.423828125 -231.264648438 c 0
 694.126953125 -184.943359375 660.50390625 -212.49609375 647.831054688 -231.264648438 c 0
 592.439453125 -313.416015625 546.576171875 -378.838867188 462.696289062 -462.719726562 c 0
277.53515625 -694.153320312 m 2
 277.53515625 -694.153320312 370.126953125 -647.857421875 508.9921875 -508.96875 c 0
 647.880859375 -370.103515625 694.153320312 -277.53515625 694.153320312 -277.53515625 c 1
 694.153320312 -277.53515625 740.423828125 -416.423828125 578.423828125 -578.423828125 c 0
 416.423828125 -740.447265625 277.53515625 -694.153320312 277.53515625 -694.153320312 c 2
198.361328125 -605.615234375 m 0
 193.200195312 -610.776367188 185.760742188 -613.53515625 177.984375 -612.408203125 c 0
 164.857421875 -610.53515625 155.735351562 -598.392578125 157.630859375 -585.264648438 c 0
 158.231445312 -581.0390625 170.665039062 -498.142578125 224.208007812 -419.134765625 c 1
 161.161132812 -440.087890625 114.072265625 -486.239257812 113.47265625 -486.838867188 c 0
 104.087890625 -496.176757812 88.896484375 -496.153320312 79.53515625 -486.768554688 c 0
 70.1767578125 -477.408203125 70.1767578125 -462.239257812 79.53515625 -452.880859375 c 0
 83.2802734375 -449.134765625 172.704101562 -361.0078125 283.176757812 -361.0078125 c 0
 292.896484375 -361.0078125 301.630859375 -366.838867188 305.353515625 -375.815429688 c 0
 309.072265625 -384.791992188 307.0078125 -395.111328125 300.142578125 -401.9765625 c 0
 221.857421875 -480.264648438 205.272460938 -590.953125 205.103515625 -592.03125 c 0
 204.361328125 -597.408203125 201.888671875 -602.087890625 198.361328125 -605.615234375 c 0
605.591796875 -198.334960938 m 0
 602.064453125 -201.865234375 597.408203125 -204.334960938 592.080078125 -205.103515625 c 0
 590.953125 -205.272460938 479.857421875 -222.264648438 401.9765625 -300.142578125 c 0
 395.111328125 -307.0078125 384.791992188 -309.072265625 375.815429688 -305.353515625 c 0
 366.838867188 -301.630859375 361.0078125 -292.896484375 361.0078125 -283.176757812 c 0
 361.0078125 -172.680664062 449.134765625 -83.2802734375 452.880859375 -79.53515625 c 0
 462.239257812 -70.1767578125 477.408203125 -70.1767578125 486.768554688 -79.53515625 c 0
 496.153320312 -88.873046875 496.176757812 -104.087890625 486.838867188 -113.447265625 c 0
 486.215820312 -114.072265625 440.064453125 -161.134765625 419.111328125 -224.184570312 c 1
 498.119140625 -170.638671875 580.9921875 -158.208007812 585.215820312 -157.607421875 c 0
 598.319335938 -155.735351562 610.46484375 -164.807617188 612.361328125 -177.935546875 c 0
 613.53515625 -185.711914062 610.776367188 -193.176757812 605.591796875 -198.334960938 c 0
722.423828125 -289.319335938 m 0
 788.208007812 -297.334960938 848.0390625 -250.48828125 856.03125 -184.680664062 c 0
 864.046875 -118.896484375 817.223632812 -59.064453125 751.416015625 -51.046875 c 0
 685.630859375 -43.056640625 501.599609375 -117.361328125 498.696289062 -141.192382812 c 0
 495.791992188 -165 656.638671875 -281.280273438 722.423828125 -289.319335938 c 0
291.768554688 -719.9765625 m 0
 299.784179688 -785.760742188 252.935546875 -845.591796875 187.126953125 -853.583984375 c 0
 121.342773438 -861.599609375 61.51171875 -814.776367188 53.49609375 -748.96875 c 0
 45.48046875 -683.161132812 119.807617188 -499.126953125 143.638671875 -496.223632812 c 0
 167.447265625 -493.342773438 283.727539062 -654.192382812 291.768554688 -719.9765625 c 0
EndSplineSet
Fore
Refer: 35 -1 N -0.707108 -0.707108 -0.707108 0.707108 470 -96.5 2
Refer: 35 -1 N 0.707108 0.707108 -0.707108 0.707108 96.5 -470 2
Refer: 36 -1 N 0.964492 0.964492 -0.964492 0.964492 694 -694 2
EndChar

StartChar: eyebrow.8
Encoding: 37 -1 54
Width: 864
GlyphClass: 5
Flags: W
LayerCount: 2
Back
SplineSet
-4.72530631647 23.5341022568 m 6
 -4.72530631647 23.5341022568 -4.72531464397 23.5341437314 -4.72531464397 23.5342203501 c 0
 -4.72531464397 23.5351476674 -4.72409480607 23.5412229963 -4.69212768521 23.5412229963 c 0
 -4.69135540633 23.5412229963 -4.69056518227 23.5412194506 -4.68975659669 23.5412122008 c 0
 -3.19862940758 23.8471785727 -1.61826488826 24.0075157454 -0.000747130955947 24.0075157454 c 0
 13.2473072236 24.0075157454 24.0030475739 13.2517753951 24.0030475739 0.00372104052915 c 0
 24.0030475739 -11.6268155567 15.7134087028 -21.3364817745 4.72530631647 -23.5341022568 c 1
 4.72530631647 -23.5341022568 4.81360510591 -23.5159776899 4.81421908814 -23.5159776899 c 1
 4.81421908814 -23.5159776899 4.80906065836 -23.517107311 4.79554572566 -23.5199305744 c 0
 4.64820185849 -23.5507106421 1.85226217991 -24.1408982552 -2.89857646245 -25.5253636338 c 0
 -7.17426510343 -26.7713632012 -13.0328861828 -28.6607266556 -19.9693270154 -31.3557044872 c 0
 -26.9058827222 -34.0507269504 -34.9191509107 -37.5512854779 -43.5107658066 -42.0083001989 c 0
 -50.3842391612 -45.5740060991 -57.6273422859 -49.751293507 -64.9935672007 -54.6130019507 c 0
 -78.2564594994 -63.3665108679 -91.9016976517 -74.3270172899 -104.619713878 -87.9534632468 c 0
 -111.687026287 -95.5255836847 -118.472913447 -103.923212066 -124.77194586 -113.254595335 c 0
 -132.645912699 -124.919085625 -139.764875988 -138.044821243 -145.706713035 -152.899413862 c 2
 -145.7190585 -152.930277524 l 2
 -149.257764093 -161.777041508 -157.912037938 -168.033353147 -168.016020739 -168.033353147 c 0
 -181.26416447 -168.033353147 -192.019977383 -157.277540235 -192.019977383 -144.029396504 c 0
 -192.019977383 -140.885235574 -191.414158633 -137.881454618 -190.293286965 -135.100586138 c 0
 -183.066399733 -117.033368057 -174.307024692 -100.850111709 -164.584210272 -86.4467395934 c 0
 -156.805817679 -74.9238329393 -148.414476357 -64.5414943165 -139.712236423 -55.2176658155 c 0
 -124.045058432 -38.4314036825 -107.385973057 -25.083420545 -91.3850336224 -14.5228005184 c 0
 -82.4935742411 -8.65443732675 -73.8001325125 -3.64312242508 -65.5656800703 0.628609513504 c 0
 -55.2723877201 5.96839209093 -45.695465938 10.1534363763 -37.3277200698 13.4045114103 c 0
 -28.9598593274 16.6556310758 -21.8000672273 18.972859803 -16.3344022043 20.5656362716 c 0
 -9.50246251679 22.5565655954 -5.316626877 23.4158381444 -4.72530631647 23.5341022568 c 6
0 0 m 0
 0 0 -120 -24 -168 -144 c 1024
EndSplineSet
Fore
SplineSet
-145 -151 m 257,0,1
 -147 -157 -147 -157 -151 -161 c 257,2,3
 -158 -168 -158 -168 -168 -168 c 129,-1,4
 -178 -168 -178 -168 -185 -161 c 129,-1,5
 -192 -154 -192 -154 -192 -144 c 1,6,7
 -192 -140 -192 -140 -191 -137 c 257,8,9
 -166 -74 -166 -74 -116 -33 c 129,-1,10
 -66 8 -66 8 -7 23 c 1,11,12
 -3 24 -3 24 0 24 c 1,13,14
 10 24 10 24 17 17 c 129,-1,15
 24 10 24 10 24 0 c 257,16,17
 24 -9 24 -9 17 -17 c 1,18,19
 12 -22 12 -22 3 -24 c 1,20,21
 -41 -35 -41 -35 -82 -67 c 129,-1,22
 -123 -99 -123 -99 -145 -151 c 257,0,1
EndSplineSet
Colour: ff00ff
EndChar

StartChar: BeamingFaceWithSmilingEyes.2
Encoding: 91 -1 55
Width: 864
Flags: W
LayerCount: 2
Back
SplineSet
216 -552 m 1
 216 -552 288 -576 432 -576 c 1
 576 -576 648 -552 648 -552 c 1
 648 -552 615.743164062 -714 432 -714 c 1
 248.256835938 -714 216 -552 216 -552 c 1
432 -662.251953125 m 5
 345.696289062 -662.251953125 281.47265625 -653.322265625 241.51171875 -644.372070312 c 13
 221.688476562 -599.467773438 l 5
 241.46484375 -606.930664062 315.0234375 -620.995117188 432 -620.995117188 c 5
 550.896484375 -620.995117188 624.888671875 -606.2109375 644.735351562 -598.506835938 c 5
 627.912109375 -642.71484375 l 21
 588.719726562 -651.810546875 521.880859375 -662.251953125 432 -662.251953125 c 5
EndSplineSet
Fore
SplineSet
432 -576 m 129,-1,1
 562 -576 562 -576 648 -552 c 1,2,3
 639 -591 639 -591 611 -630 c 129,-1,4
 583 -669 583 -669 537.5 -691.5 c 129,-1,5
 492 -714 492 -714 432 -714 c 129,-1,6
 372 -714 372 -714 326.5 -691.5 c 129,-1,7
 281 -669 281 -669 253 -630 c 129,-1,8
 225 -591 225 -591 216 -552 c 1,9,0
 302 -576 302 -576 432 -576 c 129,-1,1
EndSplineSet
EndChar

StartChar: BeamingFaceWithSmilingEyes.3
Encoding: 92 -1 56
Width: 864
Flags: W
LayerCount: 2
Back
SplineSet
432 -662.251953125 m 5
 345.696289062 -662.251953125 281.47265625 -653.322265625 241.51171875 -644.372070312 c 13
 221.688476562 -599.467773438 l 5
 241.46484375 -606.930664062 315.0234375 -620.995117188 432 -620.995117188 c 5
 550.896484375 -620.995117188 624.888671875 -606.2109375 644.735351562 -598.506835938 c 5
 627.912109375 -642.71484375 l 21
 588.719726562 -651.810546875 521.880859375 -662.251953125 432 -662.251953125 c 5
EndSplineSet
Fore
SplineSet
432 -621 m 257,0,1
 303 -621 303 -621 220 -600 c 1,2,3
 220 -600 220 -600 240 -644 c 1,4,5
 320 -662 320 -662 432 -662 c 257,6,7
 544 -662 544 -662 627 -643 c 1,8,-1
 644 -600 l 1,9,10
 560 -621 560 -621 432 -621 c 257,0,1
EndSplineSet
EndChar

StartChar: SlightlySmilingFace.1
Encoding: 60 -1 57
Width: 864
Flags: W
LayerCount: 2
Back
SplineSet
0 -432 m 0
 0 -670.586914062 193.413085938 -864 432 -864 c 0
 670.586914062 -864 864 -670.586914062 864 -432 c 0
 864 -193.413085938 670.586914062 0 432 0 c 0
 193.413085938 0 0 -193.413085938 0 -432 c 0
252.361328125 -566.904296875 m 0
 253.439453125 -571.200195312 280.392578125 -672 432 -672 c 0
 583.630859375 -672 610.560546875 -571.200195312 611.638671875 -566.904296875 c 0
 612.9609375 -561.696289062 610.607421875 -556.295898438 605.953125 -553.607421875 c 0
 601.272460938 -550.943359375 595.416015625 -551.735351562 591.552734375 -555.45703125 c 0
 591.095703125 -555.912109375 544.657226562 -600 432 -600 c 0
 319.342773438 -600 272.880859375 -555.912109375 272.447265625 -555.48046875 c 0
 270.142578125 -553.200195312 267.072265625 -552 264 -552 c 0
 261.984375 -552 259.943359375 -552.50390625 258.095703125 -553.53515625 c 0
 253.392578125 -556.223632812 251.0390625 -561.672851562 252.361328125 -566.904296875 c 0
228 -324 m 4
 228 -370.392578125 254.864257812 -408 288 -408 c 4
 321.135742188 -408 348 -370.392578125 348 -324 c 4
 348 -277.607421875 321.135742188 -240 288 -240 c 4
 254.864257812 -240 228 -277.607421875 228 -324 c 4
516 -324 m 4
 516 -370.392578125 542.864257812 -408 576 -408 c 4
 609.135742188 -408 636 -370.392578125 636 -324 c 4
 636 -277.607421875 609.135742188 -240 576 -240 c 4
 542.864257812 -240 516 -277.607421875 516 -324 c 4
EndSplineSet
Fore
Refer: 66 -1 N 1 0 0 1 432 -672 2
Refer: 4 -1 S 0.15625 0 0 0.21875 576 -324 2
Refer: 4 -1 S 0.15625 0 0 0.21875 288 -324 2
EndChar

StartChar: StarStruck.3
Encoding: 66 -1 58
Width: 864
Flags: W
LayerCount: 2
Back
SplineSet
864 -432 m 0
 864 -670.583984375 670.583984375 -864 432 -864 c 0
 193.416015625 -864 0 -670.583984375 0 -432 c 0
 0 -193.416015625 193.416015625 0 432 0 c 0
 670.583984375 0 864 -193.416015625 864 -432 c 1024
432 -504 m 0
 345.046875 -504 287.353515625 -493.873046875 216 -480 c 0
 199.704101562 -476.857421875 168 -480 168 -528 c 0
 168 -624 278.280273438 -744 432 -744 c 0
 585.696289062 -744 696 -624 696 -528 c 0
 696 -480 664.295898438 -476.831054688 648 -480 c 0
 576.646484375 -493.873046875 518.953125 -504 432 -504 c 0
216 -528 m 1
 216 -528 288 -552 432 -552 c 0
 576 -552 648 -528 648 -528 c 1
 648 -528 600 -624 432 -624 c 0
 264 -624 216 -528 216 -528 c 1
376.369140625 -105.912109375 m 2
 267.361328125 -125.134765625 l 1
 211.200195312 -23.064453125 l 2
 205.0078125 -11.8076171875 192.288085938 -5.7841796875 179.711914062 -7.9921875 c 0
 167.064453125 -10.2236328125 157.223632812 -20.2568359375 155.256835938 -32.927734375 c 2
 137.376953125 -148.056640625 l 1
 28.369140625 -167.280273438 l 2
 15.52734375 -169.53515625 5.615234375 -179.880859375 3.865234375 -192.815429688 c 0
 2.111328125 -205.752929688 8.927734375 -218.327148438 20.7353515625 -223.943359375 c 2
 118.416015625 -270.311523438 l 1
 100.46484375 -385.799804688 l 2
 98.47265625 -398.665039062 105 -411.334960938 116.615234375 -417.215820312 c 0
 120.912109375 -419.376953125 125.51953125 -420.408203125 130.103515625 -420.408203125 c 0
 137.953125 -420.408203125 145.704101562 -417.334960938 151.48828125 -411.48046875 c 2
 235.776367188 -326.015625 l 1
 344.208007812 -377.49609375 l 2
 355.96875 -383.064453125 369.984375 -380.447265625 378.912109375 -370.96875 c 0
 387.838867188 -361.48828125 389.615234375 -347.353515625 383.353515625 -335.953125 c 2
 327 -233.51953125 l 1
 402.9609375 -156.52734375 l 2
 412.126953125 -147.239257812 414.215820312 -133.080078125 408.168945312 -121.51171875 c 0
 402.072265625 -109.943359375 389.134765625 -103.680664062 376.369140625 -105.912109375 c 2
487.630859375 -105.912109375 m 2
 596.638671875 -125.134765625 l 1
 652.799804688 -23.064453125 l 2
 658.9921875 -11.8076171875 671.711914062 -5.7841796875 684.288085938 -7.9921875 c 0
 696.912109375 -10.2236328125 706.752929688 -20.2568359375 708.719726562 -32.927734375 c 2
 726.599609375 -148.056640625 l 1
 835.607421875 -167.280273438 l 2
 848.47265625 -169.53515625 858.384765625 -179.857421875 860.111328125 -192.791992188 c 0
 861.838867188 -205.727539062 855.046875 -218.303710938 843.239257812 -223.919921875 c 2
 745.560546875 -270.288085938 l 1
 763.51171875 -385.776367188 l 2
 765.50390625 -398.638671875 758.9765625 -411.311523438 747.361328125 -417.192382812 c 0
 743.064453125 -419.353515625 738.45703125 -420.384765625 733.873046875 -420.384765625 c 0
 726.0234375 -420.384765625 718.272460938 -417.311523438 712.48828125 -411.45703125 c 2
 628.200195312 -325.9921875 l 1
 519.768554688 -377.47265625 l 2
 508.0078125 -383.0390625 493.9921875 -380.423828125 485.064453125 -370.943359375 c 0
 476.134765625 -361.46484375 474.361328125 -347.327148438 480.623046875 -335.927734375 c 2
 536.9765625 -233.51953125 l 1
 461.015625 -156.52734375 l 2
 451.846679688 -147.239257812 449.760742188 -133.080078125 455.807617188 -121.51171875 c 0
 461.927734375 -109.943359375 474.865234375 -103.680664062 487.630859375 -105.912109375 c 2
EndSplineSet
Fore
Refer: 88 -1 N 0.820673 -0.144707 0.144707 0.820673 679.092 -37.5408 2
Refer: 88 -1 N 0.820672 0.144707 -0.144707 0.820672 184.908 -37.5408 2
EndChar

StartChar: UpsideDownFace.1
Encoding: 61 -1 59
Width: 864
Flags: W
LayerCount: 2
Back
SplineSet
0 -432 m 0
 0 -193.416015625 193.416015625 0 432 0 c 0
 670.583984375 0 864 -193.416015625 864 -432 c 0
 864 -670.583984375 670.583984375 -864 432 -864 c 0
 193.416015625 -864 0 -670.583984375 0 -432 c 1024
207.9609375 -308.904296875 m 0
 212.231445312 -312.768554688 218.615234375 -313.0078125 223.200195312 -309.599609375 c 0
 224.134765625 -308.904296875 317.327148438 -240 432 -240 c 0
 546.384765625 -240 639.888671875 -308.904296875 640.799804688 -309.599609375 c 0
 645.384765625 -313.0078125 651.768554688 -312.719726562 656.0390625 -308.904296875 c 0
 660.288085938 -305.064453125 661.247070312 -298.727539062 658.295898438 -293.831054688 c 0
 655.200195312 -288.696289062 581.087890625 -168 432 -168 c 0
 282.912109375 -168 208.776367188 -288.672851562 205.704101562 -293.831054688 c 0
 202.752929688 -298.752929688 203.688476562 -305.064453125 207.9609375 -308.904296875 c 0
216 -516 m 0
 216 -562.392578125 242.864257812 -600 276 -600 c 0
 309.135742188 -600 336 -562.392578125 336 -516 c 0
 336 -469.607421875 309.135742188 -432 276 -432 c 0
 242.864257812 -432 216 -469.607421875 216 -516 c 0
528 -516 m 0
 528 -562.392578125 554.864257812 -600 588 -600 c 0
 621.135742188 -600 648 -562.392578125 648 -516 c 0
 648 -469.607421875 621.135742188 -432 588 -432 c 0
 554.864257812 -432 528 -469.607421875 528 -516 c 0
EndSplineSet
Fore
Refer: 11 -1 N -1 0 0 -1 432 -168 2
Refer: 4 -1 N 0.15625 0 0 0.21875 588 -516 2
Refer: 4 -1 N 0.15625 0 0 0.21875 276 -516 2
EndChar

StartChar: FaceBlowingKiss.1
Encoding: 67 -1 60
Width: 864
Flags: W
LayerCount: 2
Back
SplineSet
0 -432 m 0
 0 -670.586914062 193.413085938 -864 432 -864 c 0
 670.586914062 -864 864 -670.586914062 864 -432 c 0
 864 -193.413085938 670.586914062 0 432 0 c 0
 193.413085938 0 0 -193.413085938 0 -432 c 0
216 -372 m 0
 216 -418.392578125 242.864257812 -456 276 -456 c 0
 309.135742188 -456 336 -418.392578125 336 -372 c 0
 336 -325.607421875 309.135742188 -288 276 -288 c 0
 242.864257812 -288 216 -325.607421875 216 -372 c 0
682.96875 -427.126953125 m 0
 681.52734375 -423.888671875 646.9921875 -348 576 -348 c 0
 505.03125 -348 470.47265625 -423.888671875 469.03125 -427.126953125 c 0
 466.823242188 -432.095703125 468.264648438 -437.904296875 472.51171875 -441.311523438 c 0
 476.711914062 -444.719726562 482.735351562 -444.838867188 487.153320312 -441.646484375 c 0
 487.439453125 -441.431640625 517.439453125 -420 576 -420 c 0
 634.223632812 -420 664.176757812 -441.142578125 664.846679688 -441.623046875 c 0
 666.9609375 -443.208007812 669.50390625 -444 672 -444 c 0
 674.638671875 -444 677.303710938 -443.111328125 679.48828125 -441.384765625 c 0
 683.735351562 -437.9765625 685.200195312 -432.119140625 682.96875 -427.126953125 c 0
143.9765625 -264 m 0
 138.984375 -264 133.919921875 -262.439453125 129.599609375 -259.200195312 c 0
 118.9921875 -251.256835938 116.857421875 -236.208007812 124.799804688 -225.599609375 c 0
 203.087890625 -121.200195312 307.583984375 -120 312 -120 c 0
 325.247070312 -120 336 -130.752929688 336 -144 c 0
 336 -157.223632812 325.319335938 -167.953125 312.095703125 -168 c 0
 308.376953125 -168.046875 226.46484375 -170.064453125 163.200195312 -254.400390625 c 0
 158.49609375 -260.688476562 151.272460938 -264 143.9765625 -264 c 0
696.0234375 -336 m 0
 688.704101562 -336 681.52734375 -332.688476562 676.799804688 -326.400390625 c 0
 614.591796875 -243.45703125 509.735351562 -263.327148438 508.704101562 -263.51953125 c 0
 495.576171875 -266.161132812 483.072265625 -257.665039062 480.45703125 -244.704101562 c 0
 477.865234375 -231.719726562 486.288085938 -219.072265625 499.272460938 -216.45703125 c 0
 504.815429688 -215.327148438 635.0390625 -190.727539062 715.176757812 -297.576171875 c 0
 723.142578125 -308.184570312 720.984375 -323.231445312 710.376953125 -331.176757812 c 0
 706.080078125 -334.439453125 701.0390625 -336 696.0234375 -336 c 0
481.896484375 -649.0078125 m 1
 513.935546875 -639.119140625 544.9921875 -621.264648438 544.9921875 -589.0078125 c 0
 544.9921875 -526.153320312 427.103515625 -517.776367188 413.665039062 -517.03125 c 0
 407.087890625 -516.408203125 401.447265625 -521.665039062 401.015625 -528.264648438 c 0
 400.607421875 -534.838867188 405.576171875 -540.52734375 412.153320312 -540.984375 c 0
 412.9921875 -541.03125 496.9921875 -548.161132812 496.9921875 -589.0078125 c 0
 496.9921875 -629.857421875 412.9921875 -636.984375 412.153320312 -637.03125 c 0
 411.815429688 -637.056640625 411.576171875 -637.247070312 411.264648438 -637.295898438 c 0
 410.015625 -637.439453125 408.838867188 -637.727539062 407.760742188 -638.256835938 c 2
 407.303710938 -638.51953125 l 2
 406.176757812 -639.142578125 405.192382812 -639.888671875 404.303710938 -640.873046875 c 0
 403.96875 -641.231445312 403.727539062 -641.615234375 403.439453125 -642.0234375 c 0
 402.888671875 -642.791992188 402.384765625 -643.53515625 402.0234375 -644.47265625 c 0
 401.735351562 -645.168945312 401.591796875 -645.935546875 401.447265625 -646.680664062 c 0
 401.353515625 -647.231445312 401.064453125 -647.735351562 401.015625 -648.288085938 c 0
 401.015625 -648.552734375 401.111328125 -648.791992188 401.111328125 -649.03125 c 0
 401.111328125 -649.272460938 400.9921875 -649.53515625 401.015625 -649.776367188 c 0
 401.0390625 -650.353515625 401.327148438 -650.857421875 401.447265625 -651.408203125 c 0
 401.591796875 -652.153320312 401.711914062 -652.873046875 402 -653.568359375 c 0
 402.311523438 -654.288085938 402.743164062 -654.935546875 403.176757812 -655.583984375 c 0
 403.583984375 -656.161132812 403.943359375 -656.784179688 404.423828125 -657.288085938 c 0
 404.9765625 -657.838867188 405.623046875 -658.272460938 406.295898438 -658.752929688 c 0
 406.873046875 -659.161132812 407.400390625 -659.568359375 408.072265625 -659.880859375 c 0
 408.838867188 -660.239257812 409.657226562 -660.384765625 410.49609375 -660.52734375 c 0
 411.072265625 -660.672851562 411.552734375 -660.9609375 412.153320312 -661.0078125 c 0
 412.9921875 -661.056640625 496.9921875 -668.184570312 496.9921875 -709.03125 c 0
 496.9921875 -749.880859375 412.9921875 -757.0078125 412.153320312 -757.056640625 c 0
 405.576171875 -757.53515625 400.607421875 -763.223632812 401.015625 -769.776367188 c 0
 401.423828125 -776.134765625 406.704101562 -781.03125 412.9921875 -781.03125 c 2
 413.665039062 -781.0078125 l 2
 427.103515625 -780.264648438 544.9921875 -771.888671875 544.9921875 -709.03125 c 0
 544.9921875 -676.752929688 513.935546875 -658.896484375 481.896484375 -649.0078125 c 1
820.846679688 -619.272460938 m 0
 815.184570312 -600.311523438 802.153320312 -583.607421875 782.9765625 -574.272460938 c 0
 760.846679688 -563.49609375 736.03125 -564.888671875 715.943359375 -575.711914062 c 1
 712.103515625 -553.247070312 697.943359375 -532.776367188 675.865234375 -522.0234375 c 0
 639.45703125 -504.264648438 595.51171875 -519.384765625 577.776367188 -555.768554688 c 0
 575.256835938 -560.927734375 573.45703125 -566.256835938 572.256835938 -571.583984375 c 0
 553.657226562 -632.927734375 587.615234375 -723.768554688 624.865234375 -762.334960938 c 0
 654.384765625 -765.45703125 695.735351562 -757.583984375 733.176757812 -741.384765625 c 0
 769.176757812 -706.342773438 798.768554688 -664.9921875 820.846679688 -619.272460938 c 0
855.696289062 -653.327148438 m 0
 873.431640625 -616.943359375 858.334960938 -573 821.9765625 -555.264648438 c 0
 799.846679688 -544.48828125 775.03125 -545.880859375 754.943359375 -556.704101562 c 1
 751.103515625 -534.239257812 736.943359375 -513.768554688 714.865234375 -503.015625 c 0
 678.45703125 -485.256835938 634.51171875 -500.400390625 616.776367188 -536.760742188 c 0
 614.256835938 -541.919921875 612.45703125 -547.247070312 611.256835938 -552.576171875 c 0
 592.680664062 -613.919921875 626.615234375 -704.760742188 663.865234375 -743.327148438 c 0
 717.215820312 -748.943359375 809.711914062 -719.831054688 846.623046875 -667.46484375 c 0
 850.103515625 -663.168945312 853.176757812 -658.48828125 855.696289062 -653.327148438 c 0
EndSplineSet
Fore
Refer: 69 -1 N 1 0 0 1 504 -240 2
Refer: 68 -1 N 1 0 0 1 413 -649 2
Refer: 12 -1 N 1 0 0 1 312 -144 2
Refer: 14 -1 N -1 0 0 -1 576 -348 2
Refer: 4 -1 N 0.15625 0 0 0.21875 276 -372 2
EndChar

StartChar: FaceWithTearsOfJoy.1
Encoding: 59 -1 61
Width: 864
Flags: W
LayerCount: 2
Back
SplineSet
864 -432 m 0
 864 -670.583984375 670.583984375 -864 432 -864 c 0
 193.439453125 -864 0 -670.583984375 0 -432 c 0
 0 -193.439453125 193.439453125 0 432 0 c 0
 670.583984375 0 864 -193.439453125 864 -432 c 1024
682.96875 -427.126953125 m 0
 681.52734375 -423.888671875 646.9921875 -348 576 -348 c 0
 505.03125 -348 470.47265625 -423.888671875 469.03125 -427.126953125 c 0
 466.823242188 -432.095703125 468.264648438 -437.904296875 472.51171875 -441.311523438 c 0
 476.711914062 -444.719726562 482.735351562 -444.838867188 487.153320312 -441.646484375 c 0
 487.439453125 -441.431640625 517.439453125 -420 576 -420 c 0
 634.223632812 -420 664.176757812 -441.142578125 664.846679688 -441.623046875 c 0
 666.9609375 -443.208007812 669.50390625 -444 672 -444 c 0
 674.638671875 -444 677.303710938 -443.111328125 679.48828125 -441.384765625 c 0
 683.735351562 -437.9765625 685.200195312 -432.119140625 682.96875 -427.126953125 c 0
394.96875 -427.126953125 m 0
 393.52734375 -423.888671875 358.9921875 -348 288 -348 c 0
 217.03125 -348 182.47265625 -423.888671875 181.03125 -427.126953125 c 0
 178.823242188 -432.095703125 180.264648438 -437.904296875 184.48828125 -441.311523438 c 0
 188.711914062 -444.719726562 194.735351562 -444.838867188 199.126953125 -441.646484375 c 0
 199.439453125 -441.431640625 229.416015625 -420 288 -420 c 0
 346.223632812 -420 376.176757812 -441.142578125 376.846679688 -441.623046875 c 0
 378.9609375 -443.208007812 381.50390625 -444 384 -444 c 0
 386.638671875 -444 389.303710938 -443.111328125 391.48828125 -441.384765625 c 0
 395.760742188 -437.9765625 397.176757812 -432.119140625 394.96875 -427.126953125 c 0
744 -384 m 0
 734.49609375 -384 725.47265625 -378.288085938 721.704101562 -368.904296875 c 0
 679.03125 -262.223632812 572.353515625 -239.760742188 571.272460938 -239.51953125 c 0
 558.288085938 -236.927734375 549.838867188 -224.280273438 552.45703125 -211.272460938 c 0
 555.046875 -198.264648438 567.696289062 -189.888671875 580.704101562 -192.45703125 c 0
 586.126953125 -193.53515625 714.046875 -220.48828125 766.272460938 -351.046875 c 0
 771.192382812 -363.361328125 765.192382812 -377.327148438 752.880859375 -382.247070312 c 0
 750 -383.447265625 746.9765625 -384 744 -384 c 0
120 -384 m 0
 117.0234375 -384 114.0234375 -383.447265625 111.095703125 -382.272460938 c 0
 98.7841796875 -377.353515625 92.8076171875 -363.384765625 97.7275390625 -351.072265625 c 0
 149.953125 -220.51171875 277.873046875 -193.560546875 283.295898438 -192.48046875 c 0
 296.327148438 -189.935546875 308.927734375 -198.311523438 311.54296875 -211.295898438 c 0
 314.134765625 -224.256835938 305.735351562 -236.880859375 292.799804688 -239.51953125 c 0
 288.361328125 -240.431640625 184.657226562 -263.0390625 142.295898438 -368.904296875 c 0
 138.52734375 -378.288085938 129.50390625 -384 120 -384 c 0
432 -528 m 0
 345.046875 -528 287.353515625 -517.873046875 216 -504 c 0
 199.704101562 -500.857421875 168 -504 168 -552 c 0
 168 -648 278.280273438 -768 432 -768 c 0
 585.696289062 -768 696 -648 696 -552 c 0
 696 -504 664.295898438 -500.831054688 648 -504 c 0
 576.646484375 -517.873046875 518.953125 -528 432 -528 c 0
216 -552 m 1
 216 -552 288 -576 432 -576 c 0
 576 -576 648 -552 648 -552 c 1
 648 -552 600 -648 432 -648 c 0
 264 -648 216 -552 216 -552 c 1
260.327148438 -677.49609375 m 0
 244.0078125 -741.743164062 178.727539062 -780.576171875 114.48046875 -764.256835938 c 0
 50.2568359375 -747.9609375 11.400390625 -682.680664062 27.6962890625 -618.431640625 c 0
 43.9921875 -554.184570312 179.784179688 -409.439453125 203.064453125 -415.342773438 c 0
 226.342773438 -421.272460938 276.623046875 -613.272460938 260.327148438 -677.49609375 c 0
603.192382812 -677.49609375 m 0
 619.51171875 -741.743164062 684.791992188 -780.576171875 749.0390625 -764.256835938 c 0
 813.288085938 -747.9609375 852.142578125 -682.680664062 835.823242188 -618.431640625 c 0
 819.50390625 -554.184570312 683.711914062 -409.439453125 660.431640625 -415.342773438 c 0
 637.200195312 -421.272460938 586.896484375 -613.272460938 603.192382812 -677.49609375 c 0
EndSplineSet
Fore
Refer: 54 -1 N -1 0 0 1 576 -216 2
Refer: 54 -1 N 1 0 0 1 288 -216 2
Refer: 14 -1 N -1 0 0 -1 576 -348 2
Refer: 14 -1 N -1 0 0 -1 288 -348 2
Refer: 36 -1 N 1 0 0 1 432 -768 2
EndChar

StartChar: MeltingFace.1
Encoding: 62 -1 62
Width: 864
Flags: W
LayerCount: 2
Back
SplineSet
841.680664062 -781.392578125 m 0
 855.086914062 -773.33203125 864.065429688 -758.641601562 864.065429688 -741.872070312 c 0
 864.065429688 -736.884765625 863.212890625 -732.107421875 861.743164062 -727.607421875 c 0
 855.52734375 -708.168945312 836.064453125 -696 815.638671875 -696 c 2
 768 -696 l 2
 754.752929688 -696 744 -685.247070312 744 -672 c 0
 744 -658.752929688 754.752929688 -648 768 -648 c 2
 804 -648 l 2
 823.645507812 -647.737304688 839.514648438 -631.708984375 839.514648438 -612 c 0
 839.514648438 -592.129882812 823.3828125 -575.998046875 803.509765625 -575.998046875 c 0
 803.348632812 -575.998046875 803.203125 -575.998046875 803.0390625 -576 c 0
 783.838867188 -576.50390625 768 -561.046875 768 -541.846679688 c 2
 768 -541.776367188 l 2
 768 -534.743164062 769.439453125 -527.904296875 772.223632812 -521.447265625 c 0
 792.534179688 -475.873046875 803.829101562 -425.407226562 803.829101562 -372.323242188 c 0
 803.829101562 -364.439453125 803.770507812 -356.626953125 803.280273438 -348.865234375 c 0
 791.47265625 -159.838867188 633.865234375 -6.45703125 444.576171875 -0.2158203125 c 0
 233.376953125 6.7431640625 60 -162.384765625 60 -372 c 0
 60 -428.904296875 73.1533203125 -482.615234375 96 -530.857421875 c 2
 96 -575.9765625 l 2
 96 -602.0390625 75.2392578125 -624.48046875 49.1767578125 -623.9765625 c 0
 48.84375 -623.969726562 48.5087890625 -623.96484375 48.173828125 -623.96484375 c 0
 21.681640625 -623.96484375 0.173828125 -645.473632812 0.173828125 -671.96484375 c 0
 0.173828125 -673.333984375 0.248046875 -674.643554688 0.361328125 -675.984375 c 0
 2.423828125 -701.400390625 25.6572265625 -720 51.1923828125 -720 c 2
 244.126953125 -720 l 2
 244.155273438 -720 244.18359375 -720 244.211914062 -720 c 0
 259.708984375 -720 272.290039062 -732.581054688 272.290039062 -748.080078125 c 0
 272.290039062 -755.861328125 269.12109375 -762.912109375 264 -768 c 1
 263.998046875 -767.998046875 191.280273438 -786.168945312 191.280273438 -786.168945312 c 2
 177.927734375 -789.517578125 168.030273438 -801.607421875 168.030273438 -815.990234375 c 0
 168.030273438 -830.374023438 177.927734375 -842.458984375 191.280273438 -845.807617188 c 0
 237.646484375 -857.400390625 285.215820312 -863.49609375 333 -863.953125 c 2
 398.087890625 -864.576171875 l 2
 431.831054688 -864.912109375 465.361328125 -857.134765625 494.784179688 -840.576171875 c 0
 523.560546875 -824.388671875 556.764648438 -815.151367188 592.106445312 -815.151367188 c 0
 605.111328125 -815.151367188 617.880859375 -816.276367188 630.192382812 -818.665039062 c 0
 702.865234375 -832.776367188 778.200195312 -819.48046875 841.680664062 -781.392578125 c 0
449.665039062 -576.072265625 m 4
 431.568359375 -576.072265625 413.568359375 -574.200195312 395.807617188 -570.45703125 c 4
 331.176757812 -556.752929688 275.735351562 -519.696289062 243.696289062 -468.791992188 c 4
 241.474609375 -465.154296875 240.194335938 -460.879882812 240.194335938 -456.309570312 c 4
 240.194335938 -443.0625 250.947265625 -432.309570312 264.194335938 -432.309570312 c 4
 272.629882812 -432.309570312 280.024414062 -436.619140625 284.303710938 -443.208007812 c 4
 309.095703125 -482.615234375 354.50390625 -512.615234375 405.743164062 -523.48828125 c 4
 448.153320312 -532.48828125 513.912109375 -532.919921875 586.607421875 -484.080078125 c 4
 590.430664062 -481.51171875 595.029296875 -480.01171875 599.9765625 -480.01171875 c 4
 613.223632812 -480.01171875 623.978515625 -490.767578125 623.978515625 -504.013671875 c 4
 623.978515625 -512.315429688 619.8046875 -519.609375 613.392578125 -523.919921875 c 4
 562.295898438 -558.239257812 505.657226562 -576.072265625 449.665039062 -576.072265625 c 4
288 -288 m 0
 288 -327.763671875 309.490234375 -360 336 -360 c 0
 362.509765625 -360 384 -327.763671875 384 -288 c 0
 384 -248.236328125 362.509765625 -216 336 -216 c 0
 309.490234375 -216 288 -248.236328125 288 -288 c 0
504 -336 m 0
 504 -375.763671875 525.490234375 -408 552 -408 c 0
 578.509765625 -408 600 -375.763671875 600 -336 c 0
 600 -296.236328125 578.509765625 -264 552 -264 c 0
 525.490234375 -264 504 -296.236328125 504 -336 c 0
EndSplineSet
Fore
Refer: 72 -1 N 1 0 0 1 264 -456 2
Refer: 4 -1 N 0.125 0 0 0.1875 552 -336 2
Refer: 4 -1 S 0.125 0 0 0.1875 336 -288 2
EndChar

StartChar: WinkingFace.1
Encoding: 63 -1 63
Width: 864
Flags: W
LayerCount: 2
Back
SplineSet
864 -432 m 0
 864 -670.583984375 670.583984375 -864 432 -864 c 0
 193.439453125 -864 0 -670.583984375 0 -432 c 0
 0 -193.439453125 193.439453125 0 432 0 c 0
 670.583984375 0 864 -193.439453125 864 -432 c 1024
216 -396 m 0
 216 -442.392578125 242.864257812 -480 276 -480 c 0
 309.135742188 -480 336 -442.392578125 336 -396 c 0
 336 -349.607421875 309.135742188 -312 276 -312 c 0
 242.864257812 -312 216 -349.607421875 216 -396 c 0
682.96875 -427.126953125 m 0
 681.52734375 -423.888671875 646.9921875 -348 576 -348 c 0
 505.03125 -348 470.47265625 -423.888671875 469.03125 -427.126953125 c 0
 466.823242188 -432.095703125 468.264648438 -437.904296875 472.51171875 -441.311523438 c 0
 476.711914062 -444.719726562 482.735351562 -444.838867188 487.153320312 -441.646484375 c 0
 487.439453125 -441.431640625 517.439453125 -420 576 -420 c 0
 634.223632812 -420 664.176757812 -441.142578125 664.846679688 -441.623046875 c 0
 666.9609375 -443.208007812 669.50390625 -444 672 -444 c 0
 674.638671875 -444 677.303710938 -443.111328125 679.48828125 -441.384765625 c 0
 683.735351562 -437.9765625 685.200195312 -432.119140625 682.96875 -427.126953125 c 0
143.9765625 -298.9921875 m 0
 138.984375 -298.9921875 133.919921875 -297.431640625 129.599609375 -294.192382812 c 0
 118.9921875 -286.247070312 116.857421875 -271.200195312 124.799804688 -260.591796875 c 0
 203.087890625 -156.192382812 307.583984375 -154.9921875 312 -154.9921875 c 0
 325.247070312 -154.9921875 336 -165.743164062 336 -178.9921875 c 0
 336 -192.215820312 325.319335938 -202.943359375 312.095703125 -202.9921875 c 0
 308.353515625 -203.0390625 226.439453125 -205.056640625 163.176757812 -289.392578125 c 0
 158.49609375 -295.680664062 151.272460938 -298.9921875 143.9765625 -298.9921875 c 0
696.0234375 -349.9921875 m 0
 688.704101562 -349.9921875 681.52734375 -346.680664062 676.799804688 -340.392578125 c 0
 614.591796875 -257.423828125 509.735351562 -277.342773438 508.704101562 -277.51171875 c 0
 495.576171875 -280.103515625 483.072265625 -271.680664062 480.45703125 -258.696289062 c 0
 477.865234375 -245.688476562 486.288085938 -233.064453125 499.272460938 -230.447265625 c 0
 504.815429688 -229.319335938 635.0390625 -204.719726562 715.176757812 -311.568359375 c 0
 723.142578125 -322.176757812 720.984375 -337.223632812 710.376953125 -345.168945312 c 0
 706.080078125 -348.45703125 701.0390625 -349.9921875 696.0234375 -349.9921875 c 0
558.095703125 -565.846679688 m 0
 553.583984375 -563.208007812 547.727539062 -563.760742188 543.768554688 -567.288085938 c 0
 543.52734375 -567.48046875 519.45703125 -588 432 -588 c 0
 344.615234375 -588 320.49609375 -567.50390625 320.49609375 -567.50390625 c 2
 316.680664062 -563.665039062 310.799804688 -562.943359375 306.095703125 -565.53515625 c 0
 301.416015625 -568.200195312 299.064453125 -573.672851562 300.384765625 -578.904296875 c 0
 300.623046875 -579.9609375 327.838867188 -684 432 -684 c 0
 536.161132812 -684 563.376953125 -579.9609375 563.638671875 -578.904296875 c 0
 564.912109375 -573.791992188 562.583984375 -568.560546875 558.095703125 -565.846679688 c 0
EndSplineSet
Fore
Refer: 69 -1 N 1 0 0 1 504 -254 2
Refer: 12 -1 N 1 0 0 1 312 -179 2
Refer: 14 -1 N -1 0 0 -1 576 -348 2
Refer: 4 -1 N 0.15625 0 0 0.21875 276 -396 2
Refer: 8 -1 N 1 0 0 1 432 -684 2
EndChar

StartChar: KissingFaceWithSmilingEyes.1
Encoding: 70 -1 64
Width: 864
Flags: W
LayerCount: 2
Back
SplineSet
864 -432 m 0
 864 -670.583984375 670.583984375 -864 432 -864 c 0
 193.439453125 -864 0 -670.583984375 0 -432 c 0
 0 -193.439453125 193.439453125 0 432 0 c 0
 670.583984375 0 864 -193.439453125 864 -432 c 1024
500.904296875 -672 m 1
 532.943359375 -662.111328125 564 -644.256835938 564 -612 c 0
 564 -549.142578125 446.111328125 -540.768554688 432.672851562 -540.0234375 c 0
 426.095703125 -539.376953125 420.45703125 -544.657226562 420.0234375 -551.256835938 c 0
 419.615234375 -557.831054688 424.583984375 -563.51953125 431.161132812 -563.9765625 c 0
 432 -564.0234375 516 -571.153320312 516 -612 c 0
 516 -652.846679688 432 -659.9765625 431.161132812 -660.0234375 c 0
 430.846679688 -660.046875 430.607421875 -660.215820312 430.295898438 -660.264648438 c 0
 429.0234375 -660.408203125 427.846679688 -660.696289062 426.719726562 -661.247070312 c 2
 426.361328125 -661.46484375 l 2
 425.208007812 -662.111328125 424.176757812 -662.880859375 423.311523438 -663.865234375 c 0
 422.9765625 -664.223632812 422.760742188 -664.607421875 422.47265625 -664.9921875 c 0
 421.919921875 -665.760742188 421.416015625 -666.52734375 421.03125 -667.46484375 c 0
 420.743164062 -668.161132812 420.599609375 -668.927734375 420.45703125 -669.672851562 c 0
 420.361328125 -670.223632812 420.072265625 -670.727539062 420.0234375 -671.280273438 c 0
 420.0234375 -671.54296875 420.119140625 -671.784179688 420.119140625 -672.0234375 c 0
 420.119140625 -672.264648438 420 -672.52734375 420.0234375 -672.768554688 c 0
 420.046875 -673.342773438 420.334960938 -673.846679688 420.45703125 -674.400390625 c 0
 420.599609375 -675.142578125 420.719726562 -675.865234375 421.0078125 -676.560546875 c 0
 421.319335938 -677.280273438 421.752929688 -677.927734375 422.184570312 -678.576171875 c 0
 422.591796875 -679.153320312 422.953125 -679.776367188 423.431640625 -680.280273438 c 0
 423.984375 -680.831054688 424.630859375 -681.264648438 425.303710938 -681.743164062 c 0
 425.880859375 -682.153320312 426.408203125 -682.560546875 427.080078125 -682.873046875 c 0
 427.846679688 -683.231445312 428.665039062 -683.376953125 429.50390625 -683.51953125 c 0
 430.080078125 -683.665039062 430.560546875 -683.953125 431.161132812 -684 c 0
 432 -684.0234375 516 -691.153320312 516 -732 c 0
 516 -772.846679688 432 -779.9765625 431.161132812 -780.0234375 c 0
 424.583984375 -780.50390625 419.615234375 -786.192382812 420.0234375 -792.743164062 c 0
 420.431640625 -799.103515625 425.711914062 -804 432 -804 c 2
 432.672851562 -803.9765625 l 2
 446.111328125 -803.231445312 564 -794.857421875 564 -732 c 0
 564 -699.743164062 532.943359375 -681.888671875 500.904296875 -672 c 1
384 -456 m 0
 373.943359375 -456 364.583984375 -449.638671875 361.223632812 -439.583984375 c 0
 356.353515625 -425.208007812 336.815429688 -384 312 -384 c 0
 286.51171875 -384 266.688476562 -427.846679688 262.776367188 -439.583984375 c 0
 258.576171875 -452.134765625 245.064453125 -458.9765625 232.416015625 -454.752929688 c 0
 219.838867188 -450.576171875 213.046875 -436.9921875 217.247070312 -424.392578125 c 0
 220.247070312 -415.369140625 248.54296875 -336 312 -336 c 0
 375.45703125 -336 403.752929688 -415.369140625 406.776367188 -424.416015625 c 0
 410.9765625 -436.9921875 404.184570312 -450.599609375 391.607421875 -454.776367188 c 0
 389.064453125 -455.591796875 386.49609375 -456 384 -456 c 0
624 -456 m 0
 613.943359375 -456 604.583984375 -449.638671875 601.247070312 -439.583984375 c 0
 596.376953125 -425.208007812 576.791992188 -384 552 -384 c 0
 526.51171875 -384 506.665039062 -427.846679688 502.752929688 -439.583984375 c 0
 498.552734375 -452.134765625 485.087890625 -458.9765625 472.392578125 -454.752929688 c 0
 459.838867188 -450.576171875 453.0234375 -436.9921875 457.223632812 -424.392578125 c 0
 460.247070312 -415.369140625 488.51953125 -336 552 -336 c 0
 615.48046875 -336 643.752929688 -415.369140625 646.752929688 -424.416015625 c 0
 650.953125 -436.9921875 644.161132812 -450.599609375 631.583984375 -454.776367188 c 0
 629.064453125 -455.591796875 626.49609375 -456 624 -456 c 0
EndSplineSet
Fore
Refer: 68 -1 S 1 0 0 1 432 -672 2
Refer: 9 -1 N 1 0 0 1 312 -360 2
Refer: 9 -1 N 1 0 0 1 552 -360 2
EndChar

StartChar: SmilingFaceWithTear.1
Encoding: 71 -1 65
Width: 864
Flags: W
LayerCount: 2
Back
SplineSet
0 -432 m 0
 0 -670.586914062 193.413085938 -864 432 -864 c 0
 670.586914062 -864 864 -670.586914062 864 -432 c 0
 864 -193.413085938 670.586914062 0 432 0 c 0
 193.413085938 0 0 -193.413085938 0 -432 c 0
228 -324 m 0
 228 -370.392578125 254.864257812 -408 288 -408 c 0
 321.135742188 -408 348 -370.392578125 348 -324 c 0
 348 -277.607421875 321.135742188 -240 288 -240 c 0
 254.864257812 -240 228 -277.607421875 228 -324 c 0
516 -324 m 0
 516 -370.392578125 542.864257812 -408 576 -408 c 0
 609.135742188 -408 636 -370.392578125 636 -324 c 0
 636 -277.607421875 609.135742188 -240 576 -240 c 0
 542.864257812 -240 516 -277.607421875 516 -324 c 0
656.0390625 -543.095703125 m 0
 651.768554688 -539.231445312 645.384765625 -538.9921875 640.799804688 -542.400390625 c 0
 639.865234375 -543.095703125 546.672851562 -612 432 -612 c 0
 317.615234375 -612 224.111328125 -543.095703125 223.200195312 -542.400390625 c 0
 218.615234375 -538.9921875 212.231445312 -539.280273438 207.9609375 -543.095703125 c 0
 203.711914062 -546.935546875 202.752929688 -553.272460938 205.704101562 -558.168945312 c 0
 208.799804688 -563.327148438 282.912109375 -684 432 -684 c 0
 581.087890625 -684 655.223632812 -563.327148438 658.295898438 -558.168945312 c 0
 661.247070312 -553.247070312 660.311523438 -546.935546875 656.0390625 -543.095703125 c 0
708 -660 m 0
 708 -726.288085938 654.288085938 -780 588 -780 c 0
 521.711914062 -780 468 -726.288085938 468 -660 c 0
 468 -593.711914062 564 -420 588 -420 c 0
 612 -420 708 -593.711914062 708 -660 c 0
EndSplineSet
Fore
Refer: 4 -1 N 0.15625 0 0 0.21875 576 -324 2
Refer: 4 -1 N 0.15625 0 0 0.21875 288 -324 2
Refer: 11 -1 N 1 0 0 1 432 -684 2
EndChar

StartChar: mouth.smiling3
Encoding: 38 -1 66
Width: 864
GlyphClass: 5
Flags: W
LayerCount: 2
Back
SplineSet
-159.516601562 116.483398438 m 5
 -159.572564573 116.539361448 l 4
 -159.572564573 116.539361448 -159.571010045 116.53780692 -159.567382812 116.534179688 c 4
 -159.565429688 116.532226562 -158.466796875 115.4609375 -156.189453125 113.650390625 c 4
 -154.138671875 112.021484375 -151.1328125 109.794921875 -147.107421875 107.2109375 c 4
 -139.862304688 102.560546875 -129.317382812 96.75390625 -115.083984375 91.2001953125 c 4
 -89.4697265625 81.2041015625 -51.880859375 72 0 72 c 4
 51.880859375 72 89.4697265625 81.2041015625 115.083984375 91.2001953125 c 4
 129.317382812 96.75390625 139.862304688 102.560546875 147.107421875 107.2109375 c 4
 151.1328125 109.794921875 154.138671875 112.021484375 156.189453125 113.650390625 c 4
 158.466796875 115.4609375 159.565429688 116.532226562 159.567382812 116.534179688 c 4
 159.571010045 116.53780692 159.572564573 116.539361448 159.572564573 116.539361448 c 4
 159.516601562 116.483398438 l 5
 160.932617188 117.899414062 162.72265625 118.98046875 164.788085938 119.551757812 c 4
 165.857614402 119.847939961 166.933723562 119.989256404 167.992494309 119.989256404 c 4
 173.252335347 119.989256404 178.084268086 116.501596962 179.555664062 111.1875 c 4
 179.851985642 110.117506036 179.993299622 109.04122798 179.993299622 107.982256821 c 4
 179.993299622 106.996109321 179.870753205 106.024970232 179.63671875 105.087890625 c 5
 179.66716877 105.210513678 179.678589779 105.255460223 179.67900902 105.255460223 c 5
 179.67900902 105.255460223 179.599523562 104.923987912 179.599523562 104.916542122 c 5
 179.599523562 104.916542122 179.61097672 104.957578756 179.642578125 105.083984375 c 5
 179.475585938 104.415039062 177.758789062 97.763671875 172.922851562 88.01171875 c 4
 169.055664062 80.2138671875 163.18359375 70.4228515625 154.49609375 60.2021484375 c 4
 148.463867188 53.10546875 141.07421875 45.8056640625 132.088867188 38.8544921875 c 4
 120.857421875 30.166015625 107.140625 22.0341796875 90.556640625 15.4990234375 c 4
 66.669921875 6.0849609375 36.8955078125 0 0 0 c 4
 -36.8955078125 0 -66.669921875 6.0849609375 -90.556640625 15.4990234375 c 4
 -107.140625 22.0341796875 -120.857421875 30.166015625 -132.088867188 38.8544921875 c 4
 -141.07421875 45.8056640625 -148.463867188 53.10546875 -154.49609375 60.2021484375 c 4
 -163.18359375 70.4228515625 -169.055664062 80.2138671875 -172.922851562 88.01171875 c 4
 -177.758789062 97.763671875 -179.475585938 104.415039062 -179.642578125 105.083984375 c 4
 -179.876979391 106.020648067 -179.99953784 106.991567876 -179.99953784 107.977499399 c 4
 -179.99953784 109.037146545 -179.857967493 110.114134099 -179.561523438 111.184570312 c 4
 -178.090056451 116.498923731 -173.258405113 119.985986565 -167.998495691 119.985986565 c 4
 -166.940016102 119.985986565 -165.864193922 119.844775667 -164.794921875 119.548828125 c 4
 -162.728515625 118.9765625 -160.938476562 117.896484375 -159.516601562 116.483398438 c 5
EndSplineSet
Fore
SplineSet
0 72 m 129,-1,1
 -55 72 -55 72 -97 85 c 129,-1,2
 -139 98 -139 98 -160 117 c 1,3,4
 -164 120 -164 120 -168 120 c 1,5,6
 -173 120 -173 120 -176.5 116.5 c 129,-1,7
 -180 113 -180 113 -180 108 c 1,8,9
 -180 106 -180 106 -179 103 c 1,10,11
 -163 57 -163 57 -117 28.5 c 129,-1,12
 -71 0 -71 0 0 0 c 129,-1,13
 71 0 71 0 117 28.5 c 129,-1,14
 163 57 163 57 179 103 c 1,15,16
 180 106 180 106 180 108 c 1,17,18
 180 113 180 113 176.5 116.5 c 129,-1,19
 173 120 173 120 168 120 c 1,20,21
 164 120 164 120 160 117 c 1,22,23
 139 98 139 98 97 85 c 129,-1,0
 55 72 55 72 0 72 c 129,-1,1
EndSplineSet
Colour: ff00ff
EndChar

StartChar: smile_1c
Encoding: 39 -1 67
Width: 864
GlyphClass: 5
Flags: W
LayerCount: 2
Back
SplineSet
104.280273438 68.638671875 m 4
 108.48046875 64.607421875 109.223632812 58.1767578125 105.984375 53.3271484375 c 4
 104.54296875 51.1455078125 69.623046875 0 0 0 c 4
 -69.623046875 0 -104.51953125 51.1455078125 -105.984375 53.3271484375 c 4
 -109.200195312 58.2001953125 -108.48046875 64.6806640625 -104.231445312 68.7119140625 c 4
 -99.984375 72.7451171875 -93.431640625 73.080078125 -88.7998046875 69.599609375 c 4
 -88.560546875 69.408203125 -58.583984375 48 0 48 c 4
 58.583984375 48 88.583984375 69.408203125 88.8466796875 69.6494140625 c 4
 93.55078125 73.103515625 100.080078125 72.6962890625 104.280273438 68.638671875 c 4
EndSplineSet
Fore
SplineSet
0 0 m 129,-1,1
 -33 0 -33 0 -60.5 14.5 c 129,-1,2
 -88 29 -88 29 -105 52 c 1,3,4
 -108 56 -108 56 -108 60 c 1,5,6
 -108 65 -108 65 -104.5 68.5 c 129,-1,7
 -101 72 -101 72 -96 72 c 1,8,9
 -92 72 -92 72 -88 69 c 1,10,11
 -74 60 -74 60 -50.5 54 c 129,-1,12
 -27 48 -27 48 0 48 c 129,-1,13
 27 48 27 48 50.5 54 c 129,-1,14
 74 60 74 60 88 69 c 1,15,16
 92 72 92 72 96 72 c 1,17,18
 101 72 101 72 104.5 68.5 c 129,-1,19
 108 65 108 65 108 60 c 1,20,21
 108 56 108 56 105 52 c 1,22,23
 88 29 88 29 60.5 14.5 c 129,-1,0
 33 0 33 0 0 0 c 129,-1,1
EndSplineSet
Colour: ff00ff
EndChar

StartChar: mouth.kissing
Encoding: 40 -1 68
Width: 864
GlyphClass: 5
Flags: W
LayerCount: 2
Back
SplineSet
0.607421875 11.984375 m 5
 0.8896484375 11.970703125 12.671875 11.3779296875 29.0341796875 8.916015625 c 4
 42.130859375 6.9462890625 58.154296875 3.796875 73.73046875 -1.36328125 c 4
 79.5029296875 -3.275390625 85.220703125 -5.466796875 90.724609375 -8.0126953125 c 4
 95.1279296875 -10.048828125 99.396484375 -12.310546875 103.4453125 -14.857421875 c 4
 107.493164062 -17.404296875 111.327148438 -20.2373046875 114.831054688 -23.4384765625 c 4
 117.6328125 -25.9990234375 120.225585938 -28.7978515625 122.51171875 -31.8701171875 c 4
 125.083007812 -35.32421875 127.263671875 -39.12890625 128.876953125 -43.2568359375 c 4
 130.89453125 -48.419921875 132 -54.0595703125 132 -60 c 4
 132 -65.9404296875 130.89453125 -71.580078125 128.876953125 -76.7431640625 c 4
 127.263671875 -80.87109375 125.083007812 -84.67578125 122.51171875 -88.1298828125 c 4
 120.225585938 -91.2021484375 117.6328125 -94.0009765625 114.831054688 -96.5615234375 c 4
 111.327148438 -99.7626953125 107.493164062 -102.595703125 103.4453125 -105.142578125 c 4
 99.396484375 -107.689453125 95.1279296875 -109.951171875 90.724609375 -111.987304688 c 4
 85.220703125 -114.533203125 79.5029296875 -116.724609375 73.73046875 -118.63671875 c 4
 58.154296875 -123.796875 42.130859375 -126.946289062 29.0341796875 -128.916015625 c 4
 12.671875 -131.377929688 0.8896484375 -131.970703125 0.607421875 -131.984375 c 4
 -2.435546875 -132.13671875 -5.5380859375 -131.138671875 -7.9892578125 -128.951171875 c 4
 -12.931640625 -124.538085938 -13.3642578125 -116.9453125 -8.955078125 -112.006835938 c 4
 -6.7685546875 -109.55859375 -3.798828125 -108.21875 -0.7578125 -108.028320312 c 6
 -0.7578125 -108.028320312 0.603515625 -107.946289062 3.6318359375 -107.622070312 c 4
 7.2734375 -107.231445312 12.91796875 -106.506835938 19.5625 -105.2578125 c 4
 29.12890625 -103.458007812 40.7705078125 -100.544921875 51.384765625 -96.150390625 c 4
 57.75 -93.5146484375 63.7138671875 -90.3544921875 68.642578125 -86.75390625 c 4
 73.03125 -83.548828125 76.55859375 -80.03515625 79.08203125 -76.2763671875 c 4
 80.8369140625 -73.6611328125 82.1328125 -70.9169921875 82.9638671875 -67.904296875 c 4
 83.62890625 -65.4912109375 84 -62.8896484375 84 -60 c 4
 84 -57.1103515625 83.62890625 -54.5087890625 82.9638671875 -52.095703125 c 4
 82.1328125 -49.0830078125 80.8369140625 -46.3388671875 79.08203125 -43.7236328125 c 4
 76.55859375 -39.96484375 73.03125 -36.451171875 68.642578125 -33.24609375 c 4
 63.7138671875 -29.6455078125 57.75 -26.4853515625 51.384765625 -23.849609375 c 4
 43.427734375 -20.5556640625 34.884765625 -18.0830078125 27.078125 -16.3037109375 c 4
 20.13671875 -14.720703125 13.7783203125 -13.6796875 8.8984375 -13.01953125 c 4
 2.625 -12.169921875 -0.7587890625 -11.9765625 -0.7587890625 -11.9765625 c 6
 -3.57421875 -11.80078125 -6.3388671875 -10.6376953125 -8.48828125 -8.4892578125 c 4
 -13.171875 -3.806640625 -13.173828125 3.796875 -8.4912109375 8.4814453125 c 4
 -6.3408203125 10.6318359375 -3.5751953125 11.794921875 -0.7587890625 11.9716796875 c 6
 -0.7587890625 11.9716796875 0.603515625 12.0537109375 3.6318359375 12.3779296875 c 4
 7.2734375 12.7685546875 12.91796875 13.4931640625 19.5625 14.7421875 c 4
 29.12890625 16.5419921875 40.7705078125 19.455078125 51.384765625 23.849609375 c 4
 57.75 26.4853515625 63.7138671875 29.6455078125 68.642578125 33.24609375 c 4
 73.03125 36.451171875 76.55859375 39.96484375 79.08203125 43.7236328125 c 4
 80.8369140625 46.3388671875 82.1328125 49.0830078125 82.9638671875 52.095703125 c 4
 83.62890625 54.5087890625 84 57.1103515625 84 60 c 4
 84 62.8896484375 83.62890625 65.4912109375 82.9638671875 67.904296875 c 4
 82.1328125 70.9169921875 80.8369140625 73.6611328125 79.08203125 76.2763671875 c 4
 76.55859375 80.03515625 73.03125 83.548828125 68.642578125 86.75390625 c 4
 63.7138671875 90.3544921875 57.75 93.5146484375 51.384765625 96.150390625 c 4
 43.427734375 99.4443359375 34.884765625 101.916992188 27.078125 103.696289062 c 4
 20.13671875 105.279296875 13.7783203125 106.3203125 8.8984375 106.98046875 c 4
 2.625 107.830078125 -0.7587890625 108.0234375 -0.7587890625 108.0234375 c 6
 -3.798828125 108.213867188 -6.7685546875 109.552734375 -8.955078125 112.001953125 c 4
 -13.365234375 116.94140625 -12.931640625 124.533203125 -7.9892578125 128.9453125 c 4
 -5.5380859375 131.134765625 -2.435546875 132.1328125 0.607421875 131.98046875 c 4
 0.890625 131.965820312 12.6708984375 131.37890625 29.0341796875 128.916015625 c 4
 42.130859375 126.946289062 58.154296875 123.796875 73.73046875 118.63671875 c 4
 79.5029296875 116.724609375 85.220703125 114.533203125 90.724609375 111.987304688 c 4
 95.1279296875 109.951171875 99.396484375 107.689453125 103.4453125 105.142578125 c 4
 107.493164062 102.595703125 111.327148438 99.7626953125 114.831054688 96.5615234375 c 4
 117.6328125 94.0009765625 120.225585938 91.2021484375 122.51171875 88.1298828125 c 4
 125.083007812 84.67578125 127.263671875 80.87109375 128.876953125 76.7431640625 c 4
 130.89453125 71.580078125 132 65.9404296875 132 60 c 4
 132 54.0595703125 130.89453125 48.419921875 128.876953125 43.2568359375 c 4
 127.263671875 39.12890625 125.083007812 35.32421875 122.51171875 31.8701171875 c 4
 120.225585938 28.7978515625 117.6328125 25.9990234375 114.831054688 23.4384765625 c 4
 111.327148438 20.2373046875 107.493164062 17.404296875 103.4453125 14.857421875 c 4
 99.396484375 12.310546875 95.1279296875 10.048828125 90.724609375 8.0126953125 c 4
 85.220703125 5.466796875 79.5029296875 3.275390625 73.73046875 1.36328125 c 4
 58.154296875 -3.796875 42.130859375 -6.9462890625 29.0341796875 -8.916015625 c 4
 12.671875 -11.3779296875 0.8896484375 -11.970703125 0.607421875 -11.984375 c 5
 0.607421875 11.984375 l 5
EndSplineSet
Fore
SplineSet
84 -60 m 129,-1,1
 84 -41 84 -41 61 -28.5 c 129,-1,2
 38 -16 38 -16 0 -12 c 1,3,4
 -5 -12 -5 -12 -8.5 -8.5 c 129,-1,5
 -12 -5 -12 -5 -12 0 c 129,-1,6
 -12 5 -12 5 -8.5 8.5 c 129,-1,7
 -5 12 -5 12 0 12 c 1,8,9
 38 16 38 16 61 28.5 c 129,-1,10
 84 41 84 41 84 60 c 129,-1,11
 84 79 84 79 61 91.5 c 129,-1,12
 38 104 38 104 0 108 c 1,13,14
 -5 108 -5 108 -8.5 111.5 c 129,-1,15
 -12 115 -12 115 -12 120 c 129,-1,16
 -12 125 -12 125 -8.5 128.5 c 129,-1,17
 -5 132 -5 132 0 132 c 257,18,19
 2 132 2 132 13 131 c 1,20,21
 70 125 70 125 101 106.5 c 129,-1,22
 132 88 132 88 132 60 c 1,23,24
 132 20 132 20 70 0 c 1,25,26
 132 -20 132 -20 132 -60 c 1,27,28
 132 -88 132 -88 101 -106.5 c 129,-1,29
 70 -125 70 -125 13 -131 c 1,30,31
 2 -132 2 -132 0 -132 c 257,32,33
 -5 -132 -5 -132 -8.5 -128.5 c 129,-1,34
 -12 -125 -12 -125 -12 -120 c 129,-1,35
 -12 -115 -12 -115 -8.5 -111.5 c 129,-1,36
 -5 -108 -5 -108 0 -108 c 1,37,38
 38 -104 38 -104 61 -91.5 c 129,-1,0
 84 -79 84 -79 84 -60 c 129,-1,1
EndSplineSet
Colour: ff00ff
EndChar

StartChar: eyebrow.5
Encoding: 41 -1 69
Width: 864
GlyphClass: 5
Flags: W
LayerCount: 2
Back
SplineSet
4.7255859375 -23.5341796875 m 5
 4.7255859375 -23.5341796875 4.7265625 -23.541015625 4.689453125 -23.541015625 c 4
 3.19921875 -23.84765625 1.6181640625 -24.0078125 0.0009765625 -24.0078125 c 4
 -13.2470703125 -24.0078125 -24.0029296875 -13.251953125 -24.0029296875 -0.00390625 c 4
 -24.0029296875 11.626953125 -15.712890625 21.3359375 -4.7255859375 23.5341796875 c 4
 -4.0859375 23.662109375 0.765625 24.607421875 8.81640625 25.4296875 c 4
 15.2568359375 26.087890625 23.74609375 26.6669921875 33.77734375 26.6669921875 c 4
 44.6142578125 26.6669921875 57.2275390625 25.9921875 70.9609375 23.9775390625 c 4
 81.9462890625 22.3662109375 93.6513671875 19.896484375 105.719726562 16.205078125 c 4
 127.428710938 9.564453125 150.379882812 -1.0712890625 172.016601562 -17.74609375 c 4
 185.916992188 -28.4580078125 199.227539062 -41.6416015625 211.2109375 -57.6201171875 c 4
 214.217773438 -61.62890625 216 -66.607421875 216 -71.998046875 c 4
 216 -85.2421875 205.24609375 -95.9951171875 192.001953125 -95.9951171875 c 4
 184.149414062 -95.9951171875 177.171875 -92.21484375 172.81640625 -86.416015625 c 4
 172.79296875 -86.3759765625 172.7890625 -86.3798828125 172.7890625 -86.3798828125 c 6
 163.439453125 -73.9140625 153.309570312 -63.9208984375 142.754882812 -55.787109375 c 4
 126.350585938 -43.1455078125 108.806640625 -34.9453125 91.677734375 -29.705078125 c 4
 82.1689453125 -26.796875 72.80859375 -24.8125 63.9462890625 -23.5126953125 c 4
 52.8681640625 -21.8876953125 42.572265625 -21.3330078125 33.77734375 -21.3330078125 c 4
 25.63671875 -21.3330078125 18.7626953125 -21.8076171875 13.7421875 -22.3203125 c 4
 8.162109375 -22.890625 4.873046875 -23.5068359375 4.66015625 -23.546875 c 4
 4.580078125 -23.5625 4.7255859375 -23.5341796875 4.7255859375 -23.5341796875 c 5
EndSplineSet
Fore
SplineSet
8 -23 m 1,0,1
 3 -24 3 -24 0 -24 c 1,2,3
 -10 -24 -10 -24 -17 -17 c 129,-1,4
 -24 -10 -24 -10 -24 0 c 129,-1,5
 -24 10 -24 10 -17 17 c 1,6,7
 -11 23 -11 23 -2 24 c 1,8,9
 18 27 18 27 34 27 c 1,10,11
 86 27 86 27 132.5 6 c 129,-1,12
 179 -15 179 -15 210 -56 c 1,13,14
 216 -63 216 -63 216 -72 c 1,15,16
 216 -82 216 -82 209 -89 c 129,-1,17
 202 -96 202 -96 192 -96 c 1,18,19
 179 -96 179 -96 171 -84 c 1,20,21
 148 -54 148 -54 112.5 -37.5 c 129,-1,22
 77 -21 77 -21 32 -21 c 1,23,24
 21 -21 21 -21 8 -23 c 1,0,1
EndSplineSet
Colour: ff00ff
EndChar

StartChar: SmilingFaceWithHalo.4
Encoding: 93 -1 70
Width: 864
Flags: W
LayerCount: 2
Back
SplineSet
0 -432 m 5
 0 -670.586914062 193.413085938 -864 432 -864 c 5
 670.586914062 -864 864 -670.586914062 864 -432 c 5
 864 -193.413085938 670.586914062 0 432 0 c 5
 193.413085938 0 0 -193.413085938 0 -432 c 5
656.0390625 -543.095703125 m 5
 651.768554688 -539.231445312 645.384765625 -538.9921875 640.799804688 -542.400390625 c 5
 639.865234375 -543.095703125 546.672851562 -612 432 -612 c 5
 317.615234375 -612 224.111328125 -543.095703125 223.200195312 -542.400390625 c 5
 218.615234375 -538.9921875 212.231445312 -539.280273438 207.9609375 -543.095703125 c 5
 203.711914062 -546.935546875 202.752929688 -553.272460938 205.704101562 -558.168945312 c 5
 208.799804688 -563.327148438 282.912109375 -684 432 -684 c 5
 581.087890625 -684 655.223632812 -563.327148438 658.295898438 -558.168945312 c 5
 661.247070312 -553.247070312 660.311523438 -546.935546875 656.0390625 -543.095703125 c 5
624 -456 m 5
 613.943359375 -456 604.583984375 -449.638671875 601.247070312 -439.583984375 c 5
 596.376953125 -425.208007812 576.791992188 -384 552 -384 c 5
 526.51171875 -384 506.665039062 -427.846679688 502.752929688 -439.583984375 c 5
 498.552734375 -452.134765625 485.087890625 -458.9765625 472.392578125 -454.752929688 c 5
 459.838867188 -450.576171875 453.0234375 -436.9921875 457.223632812 -424.392578125 c 5
 460.247070312 -415.369140625 488.51953125 -336 552 -336 c 5
 615.48046875 -336 643.752929688 -415.369140625 646.752929688 -424.416015625 c 5
 650.953125 -436.9921875 644.161132812 -450.599609375 631.583984375 -454.776367188 c 5
 629.064453125 -455.591796875 626.49609375 -456 624 -456 c 5
384 -456 m 5
 373.943359375 -456 364.583984375 -449.638671875 361.223632812 -439.583984375 c 5
 356.353515625 -425.208007812 336.815429688 -384 312 -384 c 5
 286.51171875 -384 266.688476562 -427.846679688 262.776367188 -439.583984375 c 5
 258.576171875 -452.134765625 245.064453125 -458.9765625 232.416015625 -454.752929688 c 5
 219.838867188 -450.576171875 213.046875 -436.9921875 217.247070312 -424.392578125 c 5
 220.247070312 -415.369140625 248.51953125 -336 312 -336 c 5
 375.48046875 -336 403.752929688 -415.369140625 406.776367188 -424.416015625 c 5
 410.9765625 -436.9921875 404.184570312 -450.599609375 391.607421875 -454.776367188 c 5
 389.064453125 -455.591796875 386.49609375 -456 384 -456 c 5
796.200195312 -199.583984375 m 5
 796.200195312 -199.583984375 579.192382812 -203.447265625 432 -203.447265625 c 5
 338.280273438 -203.447265625 67.056640625 -200.615234375 67.056640625 -200.615234375 c 5
 54.552734375 -221.638671875 l 21
 127.583984375 -266.184570312 272.087890625 -291.646484375 432 -291.646484375 c 5
 590.303710938 -291.646484375 733.823242188 -266.688476562 807.646484375 -223.0078125 c 13
 809.51953125 -221.880859375 l 5
 809.51953125 -221.880859375 800.54296875 -205.943359375 796.200195312 -199.583984375 c 5
570.646484375 -8.2802734375 m 5
 541.560546875 -6.0234375 511.295898438 -4.46484375 480.095703125 -3.7197265625 c 5
 464.231445312 -3.3349609375 448.223632812 -3.095703125 432 -3.095703125 c 5
 415.873046875 -3.095703125 399.935546875 -3.3349609375 384.168945312 -3.6962890625 c 5
 352.919921875 -4.439453125 322.630859375 -6 293.51953125 -8.2568359375 c 5
 128.161132812 -21.119140625 4.056640625 -58.8232421875 4.056640625 -126.888671875 c 5
 4.056640625 -213 202.392578125 -265.392578125 432 -265.392578125 c 5
 661.607421875 -265.392578125 859.943359375 -213 859.943359375 -126.888671875 c 5
 859.943359375 -58.8466796875 735.912109375 -21.1689453125 570.646484375 -8.2802734375 c 5
432 -177.192382812 m 5
 267.334960938 -177.192382812 122.161132812 -157.200195312 122.161132812 -111.52734375 c 5
 122.161132812 -98.6650390625 134.015625 -86.9765625 154.295898438 -76.7529296875 c 5
 181.96875 -62.8076171875 225.768554688 -51.6962890625 278.831054688 -44.376953125 c 5
 324.696289062 -38.087890625 377.184570312 -34.53515625 432 -34.53515625 c 5
 486.984375 -34.53515625 539.638671875 -38.087890625 585.599609375 -44.447265625 c 5
 639.408203125 -51.888671875 683.665039062 -63.2392578125 711.168945312 -77.49609375 c 5
 730.53515625 -87.52734375 741.838867188 -98.953125 741.838867188 -111.52734375 c 5
 741.838867188 -157.200195312 596.665039062 -177.192382812 432 -177.192382812 c 5
585.599609375 -44.47265625 m 21
 639.408203125 -51.912109375 683.665039062 -63.2646484375 711.168945312 -77.51953125 c 13
 712.657226562 -77.927734375 l 5
 657.815429688 -37.7529296875 602.9765625 -16.48828125 570.646484375 -8.2802734375 c 5
 541.560546875 -6.0234375 511.295898438 -4.46484375 480.095703125 -3.7197265625 c 5
 480.52734375 -3.888671875 l 5
 585.599609375 -44.47265625 l 21
154.295898438 -76.7763671875 m 5
 181.96875 -62.8310546875 225.768554688 -51.7197265625 278.831054688 -44.400390625 c 13
 383.615234375 -3.888671875 l 5
 384.168945312 -3.6962890625 l 5
 352.919921875 -4.439453125 322.630859375 -6 293.51953125 -8.2568359375 c 5
 261.192382812 -16.46484375 206.327148438 -37.7041015625 151.46484375 -77.904296875 c 5
 154.295898438 -76.7763671875 l 5
683.327148438 -81 m 5
 667.48828125 -70.369140625 651.0234375 -59.1611328125 635.303710938 -50.7607421875 c 5
 574.727539062 -18.361328125 505.51171875 0 432 0 c 5
 361.704101562 0 295.319335938 -16.7998046875 236.638671875 -46.583984375 c 5
 210.50390625 -59.857421875 191.49609375 -70.560546875 184.560546875 -81 c 5
 683.327148438 -81 l 5
EndSplineSet
Fore
SplineSet
432 -265 m 131,-1,1
 243 -265 243 -265 123.5 -225.5 c 128,-1,2
 4 -186 4 -186 4 -127 c 3,3,4
 4 -34 4 -34 294 -8 c 1,5,6
 216 -30 216 -30 152 -78 c 1,7,8
 122 -94 122 -94 122 -112 c 3,9,10
 122 -142 122 -142 206.5 -159.5 c 128,-1,11
 291 -177 291 -177 432 -177 c 131,-1,12
 573 -177 573 -177 657.5 -159.5 c 128,-1,13
 742 -142 742 -142 742 -112 c 3,14,15
 742 -94 742 -94 712 -78 c 1,16,17
 648 -30 648 -30 570 -8 c 1,18,19
 860 -34 860 -34 860 -127 c 3,20,21
 860 -186 860 -186 740.5 -225.5 c 128,-1,0
 621 -265 621 -265 432 -265 c 131,-1,1
EndSplineSet
EndChar

StartChar: SmilingFaceWithHalo.0
Encoding: 94 -1 71
Width: 864
Flags: W
LayerCount: 2
Back
SplineSet
0 -432 m 1
 0 -670.586914062 193.413085938 -864 432 -864 c 1
 670.586914062 -864 864 -670.586914062 864 -432 c 1
 864 -193.413085938 670.586914062 0 432 0 c 1
 193.413085938 0 0 -193.413085938 0 -432 c 1
656.0390625 -543.095703125 m 1
 651.768554688 -539.231445312 645.384765625 -538.9921875 640.799804688 -542.400390625 c 1
 639.865234375 -543.095703125 546.672851562 -612 432 -612 c 1
 317.615234375 -612 224.111328125 -543.095703125 223.200195312 -542.400390625 c 1
 218.615234375 -538.9921875 212.231445312 -539.280273438 207.9609375 -543.095703125 c 1
 203.711914062 -546.935546875 202.752929688 -553.272460938 205.704101562 -558.168945312 c 1
 208.799804688 -563.327148438 282.912109375 -684 432 -684 c 1
 581.087890625 -684 655.223632812 -563.327148438 658.295898438 -558.168945312 c 1
 661.247070312 -553.247070312 660.311523438 -546.935546875 656.0390625 -543.095703125 c 1
624 -456 m 1
 613.943359375 -456 604.583984375 -449.638671875 601.247070312 -439.583984375 c 1
 596.376953125 -425.208007812 576.791992188 -384 552 -384 c 1
 526.51171875 -384 506.665039062 -427.846679688 502.752929688 -439.583984375 c 1
 498.552734375 -452.134765625 485.087890625 -458.9765625 472.392578125 -454.752929688 c 1
 459.838867188 -450.576171875 453.0234375 -436.9921875 457.223632812 -424.392578125 c 1
 460.247070312 -415.369140625 488.51953125 -336 552 -336 c 1
 615.48046875 -336 643.752929688 -415.369140625 646.752929688 -424.416015625 c 1
 650.953125 -436.9921875 644.161132812 -450.599609375 631.583984375 -454.776367188 c 1
 629.064453125 -455.591796875 626.49609375 -456 624 -456 c 1
384 -456 m 1
 373.943359375 -456 364.583984375 -449.638671875 361.223632812 -439.583984375 c 1
 356.353515625 -425.208007812 336.815429688 -384 312 -384 c 1
 286.51171875 -384 266.688476562 -427.846679688 262.776367188 -439.583984375 c 1
 258.576171875 -452.134765625 245.064453125 -458.9765625 232.416015625 -454.752929688 c 1
 219.838867188 -450.576171875 213.046875 -436.9921875 217.247070312 -424.392578125 c 1
 220.247070312 -415.369140625 248.51953125 -336 312 -336 c 1
 375.48046875 -336 403.752929688 -415.369140625 406.776367188 -424.416015625 c 1
 410.9765625 -436.9921875 404.184570312 -450.599609375 391.607421875 -454.776367188 c 1
 389.064453125 -455.591796875 386.49609375 -456 384 -456 c 1
796.200195312 -199.583984375 m 1
 796.200195312 -199.583984375 579.192382812 -203.447265625 432 -203.447265625 c 1
 338.280273438 -203.447265625 67.056640625 -200.615234375 67.056640625 -200.615234375 c 1
 54.552734375 -221.638671875 l 17
 127.583984375 -266.184570312 272.087890625 -291.646484375 432 -291.646484375 c 1
 590.303710938 -291.646484375 733.823242188 -266.688476562 807.646484375 -223.0078125 c 9
 809.51953125 -221.880859375 l 1
 809.51953125 -221.880859375 800.54296875 -205.943359375 796.200195312 -199.583984375 c 1
570.646484375 -8.2802734375 m 1
 541.560546875 -6.0234375 511.295898438 -4.46484375 480.095703125 -3.7197265625 c 1
 464.231445312 -3.3349609375 448.223632812 -3.095703125 432 -3.095703125 c 1
 415.873046875 -3.095703125 399.935546875 -3.3349609375 384.168945312 -3.6962890625 c 1
 352.919921875 -4.439453125 322.630859375 -6 293.51953125 -8.2568359375 c 1
 128.161132812 -21.119140625 4.056640625 -58.8232421875 4.056640625 -126.888671875 c 1
 4.056640625 -213 202.392578125 -265.392578125 432 -265.392578125 c 1
 661.607421875 -265.392578125 859.943359375 -213 859.943359375 -126.888671875 c 1
 859.943359375 -58.8466796875 735.912109375 -21.1689453125 570.646484375 -8.2802734375 c 1
432 -177.192382812 m 1
 267.334960938 -177.192382812 122.161132812 -157.200195312 122.161132812 -111.52734375 c 1
 122.161132812 -98.6650390625 134.015625 -86.9765625 154.295898438 -76.7529296875 c 1
 181.96875 -62.8076171875 225.768554688 -51.6962890625 278.831054688 -44.376953125 c 1
 324.696289062 -38.087890625 377.184570312 -34.53515625 432 -34.53515625 c 1
 486.984375 -34.53515625 539.638671875 -38.087890625 585.599609375 -44.447265625 c 1
 639.408203125 -51.888671875 683.665039062 -63.2392578125 711.168945312 -77.49609375 c 1
 730.53515625 -87.52734375 741.838867188 -98.953125 741.838867188 -111.52734375 c 1
 741.838867188 -157.200195312 596.665039062 -177.192382812 432 -177.192382812 c 1
585.599609375 -44.47265625 m 21
 639.408203125 -51.912109375 683.665039062 -63.2646484375 711.168945312 -77.51953125 c 13
 712.657226562 -77.927734375 l 5
 657.815429688 -37.7529296875 602.9765625 -16.48828125 570.646484375 -8.2802734375 c 5
 541.560546875 -6.0234375 511.295898438 -4.46484375 480.095703125 -3.7197265625 c 5
 480.52734375 -3.888671875 l 5
 585.599609375 -44.47265625 l 21
154.295898438 -76.7763671875 m 5
 181.96875 -62.8310546875 225.768554688 -51.7197265625 278.831054688 -44.400390625 c 13
 383.615234375 -3.888671875 l 5
 384.168945312 -3.6962890625 l 5
 352.919921875 -4.439453125 322.630859375 -6 293.51953125 -8.2568359375 c 5
 261.192382812 -16.46484375 206.327148438 -37.7041015625 151.46484375 -77.904296875 c 5
 154.295898438 -76.7763671875 l 5
683.327148438 -81 m 1
 667.48828125 -70.369140625 651.0234375 -59.1611328125 635.303710938 -50.7607421875 c 1
 574.727539062 -18.361328125 505.51171875 0 432 0 c 1
 361.704101562 0 295.319335938 -16.7998046875 236.638671875 -46.583984375 c 1
 210.50390625 -59.857421875 191.49609375 -70.560546875 184.560546875 -81 c 1
 683.327148438 -81 l 1
EndSplineSet
Fore
SplineSet
432 -34 m 1,0,1
 225 -39 225 -39 150 -79 c 1,2,3
 150 -36 150 -36 278 -10 c 1,4,5
 326 -4 326 -4 432 -3 c 1,6,7
 538 -4 538 -4 586 -10 c 1,8,9
 714 -36 714 -36 714 -79 c 1,10,11
 639 -39 639 -39 432 -34 c 1,0,1
EndSplineSet
EndChar

StartChar: mouth.melting
Encoding: 95 -1 72
Width: 864
Flags: W
LayerCount: 2
Back
SplineSet
185.470703125 -119.763671875 m 4
 167.374023438 -119.763671875 149.374023438 -117.890625 131.61328125 -114.147460938 c 4
 66.982421875 -100.443359375 11.541015625 -63.38671875 -20.498046875 -12.482421875 c 4
 -22.720703125 -8.845703125 -24 -4.5703125 -24 0 c 4
 -24 13.2470703125 -13.2470703125 24 0 24 c 4
 8.435546875 24 15.830078125 19.689453125 20.109375 13.1015625 c 4
 44.9013671875 -26.306640625 90.3095703125 -56.306640625 141.548828125 -67.1787109375 c 4
 183.958984375 -76.1787109375 249.716796875 -76.6103515625 322.413085938 -27.771484375 c 4
 326.236328125 -25.2021484375 330.833984375 -23.7021484375 335.782226562 -23.7021484375 c 4
 349.029296875 -23.7021484375 359.784179688 -34.4580078125 359.784179688 -47.705078125 c 4
 359.784179688 -56.005859375 355.610351562 -63.2998046875 349.197265625 -67.6103515625 c 4
 298.1015625 -101.9296875 241.462890625 -119.763671875 185.470703125 -119.763671875 c 4
EndSplineSet
Fore
SplineSet
21 12 m 1,0,1
 13 24 13 24 0 24 c 257,2,3
 -10 24 -10 24 -17 17 c 129,-1,4
 -24 10 -24 10 -24 0 c 1,5,6
 -24 -7 -24 -7 -20 -13 c 1,7,8
 11 -62 11 -62 67 -91 c 129,-1,9
 123 -120 123 -120 186 -120 c 1,10,11
 269 -120 269 -120 347 -69 c 1,12,13
 360 -61 360 -61 360 -48 c 1,14,15
 360 -38 360 -38 353 -31 c 129,-1,16
 346 -24 346 -24 336 -24 c 1,17,18
 327 -24 327 -24 322 -28 c 1,19,20
 256 -72 256 -72 186 -72 c 1,21,22
 136 -72 136 -72 90.5 -49 c 129,-1,23
 45 -26 45 -26 21 12 c 1,0,1
EndSplineSet
EndChar

StartChar: FaceSavoringFood.1
Encoding: 72 -1 73
Width: 864
Flags: W
LayerCount: 2
Back
SplineSet
0 -432 m 0
 0 -670.586914062 193.413085938 -864 432 -864 c 0
 670.586914062 -864 864 -670.586914062 864 -432 c 0
 864 -193.413085938 670.586914062 0 432 0 c 0
 193.413085938 0 0 -193.413085938 0 -432 c 0
167.9765625 -408 m 0
 164.376953125 -408 160.704101562 -407.184570312 157.272460938 -405.48046875 c 0
 145.416015625 -399.552734375 140.615234375 -385.126953125 146.54296875 -373.272460938 c 0
 147.791992188 -370.752929688 178.176757812 -312 264 -312 c 0
 349.846679688 -312 380.208007812 -370.776367188 381.45703125 -373.272460938 c 0
 387.384765625 -385.126953125 382.560546875 -399.552734375 370.727539062 -405.48046875 c 0
 358.943359375 -411.408203125 344.688476562 -406.657226562 338.665039062 -395.015625 c 0
 337.607421875 -393.072265625 318.719726562 -360 264 -360 c 0
 208.392578125 -360 189.623046875 -394.392578125 189.45703125 -394.727539062 c 0
 185.256835938 -403.153320312 176.784179688 -408 167.9765625 -408 c 0
696 -408 m 0
 699.599609375 -408 703.272460938 -407.184570312 706.704101562 -405.48046875 c 0
 718.560546875 -399.552734375 723.361328125 -385.126953125 717.431640625 -373.272460938 c 0
 716.184570312 -370.752929688 685.799804688 -312 599.9765625 -312 c 0
 514.126953125 -312 483.768554688 -370.776367188 482.51953125 -373.272460938 c 0
 476.591796875 -385.126953125 481.416015625 -399.552734375 493.247070312 -405.48046875 c 0
 505.03125 -411.408203125 519.288085938 -406.657226562 525.311523438 -395.015625 c 0
 526.369140625 -393.072265625 545.256835938 -360 599.9765625 -360 c 0
 655.583984375 -360 674.353515625 -394.392578125 674.51953125 -394.727539062 c 0
 678.719726562 -403.153320312 687.192382812 -408 696 -408 c 0
708.072265625 -564.48046875 m 0
 715.823242188 -546.50390625 719.134765625 -534.311523438 719.256835938 -533.831054688 c 0
 722.47265625 -521.015625 714.696289062 -508.03125 701.857421875 -504.791992188 c 0
 688.9921875 -501.52734375 676.0078125 -509.303710938 672.696289062 -522.142578125 c 0
 670.919921875 -529.223632812 625.943359375 -696 432 -696 c 0
 238.056640625 -696 193.080078125 -529.223632812 191.280273438 -522.119140625 c 0
 187.96875 -509.303710938 174.984375 -501.52734375 162.119140625 -504.768554688 c 0
 149.303710938 -508.0078125 141.52734375 -520.9921875 144.719726562 -533.807617188 c 0
 145.247070312 -535.919921875 199.943359375 -744 432 -744 c 0
 471.599609375 -744 505.680664062 -737.615234375 535.560546875 -727.560546875 c 0
 639.48046875 -692.568359375 688.53515625 -609.719726562 708.072265625 -564.48046875 c 0
777.768554688 -640.342773438 m 2
 706.823242188 -567.119140625 l 1
 706.823242188 -567.119140625 690.50390625 -556.607421875 676.272460938 -580.752929688 c 0
 657.552734375 -612.48046875 626.47265625 -651.192382812 581.857421875 -680.857421875 c 0
 563.111328125 -693.311523438 530.51953125 -709.392578125 517.126953125 -712.48828125 c 0
 499.48828125 -716.54296875 507.815429688 -735.623046875 507.815429688 -735.623046875 c 1
 521.857421875 -732.576171875 533.0390625 -728.400390625 533.0390625 -728.400390625 c 1
 540.142578125 -735.50390625 l 1
 605.568359375 -800.927734375 l 2
 647.0390625 -842.400390625 725.568359375 -848.927734375 773.568359375 -800.927734375 c 0
 821.568359375 -752.927734375 819.264648438 -681.838867188 777.768554688 -640.342773438 c 2
717.9609375 -745.776367188 m 0
 723.072265625 -740.665039062 723.072265625 -732.384765625 717.9609375 -727.272460938 c 2
 630.865234375 -640.176757812 l 1
 611.760742188 -658.126953125 l 1
 699.431640625 -745.799804688 l 2
 704.54296875 -750.888671875 712.846679688 -750.888671875 717.9609375 -745.776367188 c 0
EndSplineSet
Fore
Refer: 7 -1 N 1 0 0 1 432 -720 2
Refer: 79 -1 N 1 0 0 1 600 -336 2
Refer: 79 -1 N 1 0 0 1 264 -336 2
EndChar

StartChar: FaceWithTongue.1
Encoding: 73 -1 74
Width: 864
Flags: W
LayerCount: 2
Back
SplineSet
864 -432 m 0
 864 -670.583984375 670.583984375 -864 432 -864 c 0
 193.439453125 -864 0 -670.583984375 0 -432 c 0
 0 -193.439453125 193.439453125 0 432 0 c 0
 670.583984375 0 864 -193.439453125 864 -432 c 1024
216 -348 m 0
 216 -394.392578125 242.864257812 -432 276 -432 c 0
 309.135742188 -432 336 -394.392578125 336 -348 c 0
 336 -301.607421875 309.135742188 -264 276 -264 c 0
 242.864257812 -264 216 -301.607421875 216 -348 c 0
528 -348 m 0
 528 -394.392578125 554.864257812 -432 588 -432 c 0
 621.135742188 -432 648 -394.392578125 648 -348 c 0
 648 -301.607421875 621.135742188 -264 588 -264 c 0
 554.864257812 -264 528 -301.607421875 528 -348 c 0
168 -510.288085938 m 1
 168 -605.423828125 278.303710938 -726.288085938 432 -726.288085938 c 0
 585.696289062 -726.288085938 696 -606.288085938 696 -510.288085938 c 1
 696 -510.288085938 448.0078125 -576.431640625 168 -510.288085938 c 1
445.080078125 -566.49609375 m 2
 418.896484375 -566.376953125 l 2
 341.711914062 -564.599609375 288 -552.072265625 288 -552.072265625 c 1
 288 -719.134765625 l 2
 288 -791.134765625 336 -863.134765625 432 -863.134765625 c 0
 528 -863.134765625 576 -791.134765625 576 -719.134765625 c 2
 576 -553.056640625 l 1
 529.873046875 -562.51171875 485.111328125 -566.064453125 445.080078125 -566.49609375 c 2
432 -764.231445312 m 0
 439.223632812 -764.231445312 445.080078125 -758.376953125 445.080078125 -751.153320312 c 2
 445.080078125 -566.49609375 l 1
 418.896484375 -566.376953125 l 1
 418.896484375 -751.153320312 l 2
 418.919921875 -758.376953125 424.776367188 -764.231445312 432 -764.231445312 c 0
EndSplineSet
Fore
Refer: 80 -1 N 1 0 0 1 432 -726 2
Refer: 4 -1 N 0.15625 0 0 0.21875 588 -348 2
Refer: 4 -1 N 0.15625 0 0 0.21875 276 -348 2
EndChar

StartChar: WinkingFaceWithTongue.3
Encoding: 74 -1 75
Width: 864
Flags: W
LayerCount: 2
Back
SplineSet
864 -432 m 0
 864 -670.583984375 670.583984375 -864 432 -864 c 0
 193.439453125 -864 0 -670.583984375 0 -432 c 0
 0 -193.439453125 193.439453125 0 432 0 c 0
 670.583984375 0 864 -193.439453125 864 -432 c 1024
370.96875 -379.560546875 m 0
 369.52734375 -376.319335938 334.9921875 -300.431640625 264 -300.431640625 c 0
 193.03125 -300.431640625 158.47265625 -376.319335938 157.03125 -379.560546875 c 0
 154.823242188 -384.52734375 156.264648438 -390.334960938 160.48828125 -393.743164062 c 0
 164.735351562 -397.176757812 170.735351562 -397.272460938 175.126953125 -394.080078125 c 0
 175.439453125 -393.865234375 205.416015625 -372.431640625 264 -372.431640625 c 0
 322.223632812 -372.431640625 352.176757812 -393.576171875 352.846679688 -394.056640625 c 0
 354.9609375 -395.638671875 357.48046875 -396.431640625 360 -396.431640625 c 0
 362.638671875 -396.431640625 365.303710938 -395.54296875 367.46484375 -393.815429688 c 0
 371.760742188 -390.408203125 373.176757812 -384.552734375 370.96875 -379.560546875 c 0
744 -324 m 0
 744 -410.161132812 674.161132812 -480 588 -480 c 0
 501.838867188 -480 432 -410.161132812 432 -324 c 0
 432 -237.838867188 501.838867188 -168 588 -168 c 0
 674.161132812 -168 744 -237.838867188 744 -324 c 0
528 -324 m 0
 528 -357.135742188 554.864257812 -384 588 -384 c 0
 621.135742188 -384 648 -357.135742188 648 -324 c 0
 648 -290.864257812 621.135742188 -264 588 -264 c 0
 554.864257812 -264 528 -290.864257812 528 -324 c 0
168 -510.288085938 m 1
 168 -605.423828125 278.303710938 -726.288085938 432 -726.288085938 c 0
 585.696289062 -726.288085938 696 -606.288085938 696 -510.288085938 c 1
 696 -510.288085938 448.0078125 -576.431640625 168 -510.288085938 c 1
445.080078125 -566.49609375 m 2
 418.896484375 -566.376953125 l 2
 341.711914062 -564.599609375 288 -552.072265625 288 -552.072265625 c 1
 288 -719.134765625 l 2
 288 -791.134765625 336 -863.134765625 432 -863.134765625 c 0
 528 -863.134765625 576 -791.134765625 576 -719.134765625 c 2
 576 -553.056640625 l 1
 529.873046875 -562.51171875 485.111328125 -566.064453125 445.080078125 -566.49609375 c 2
432 -764.231445312 m 0
 439.223632812 -764.231445312 445.080078125 -758.376953125 445.080078125 -751.153320312 c 2
 445.080078125 -566.49609375 l 1
 418.896484375 -566.376953125 l 1
 418.896484375 -751.153320312 l 2
 418.919921875 -758.376953125 424.776367188 -764.231445312 432 -764.231445312 c 0
EndSplineSet
Fore
Refer: 80 -1 N 1 0 0 1 432 -726 2
Refer: 14 -1 N -1 0 0 -1 264 -300 2
EndChar

StartChar: ZanyFace.3
Encoding: 75 -1 76
Width: 864
Flags: W
LayerCount: 2
Back
SplineSet
854.327148438 -341.568359375 m 0
 904.319335938 -574.846679688 755.735351562 -804.50390625 522.45703125 -854.49609375 c 0
 289.176757812 -904.48828125 59.51953125 -755.904296875 9.52734375 -522.623046875 c 0
 -40.46484375 -289.342773438 108.142578125 -59.6884765625 341.400390625 -9.6962890625 c 0
 574.680664062 40.3193359375 804.334960938 -108.288085938 854.327148438 -341.568359375 c 1024
702.815429688 -216.288085938 m 0
 721.51171875 -303.552734375 665.927734375 -389.47265625 578.665039062 -408.168945312 c 0
 491.400390625 -426.865234375 405.48046875 -371.280273438 386.760742188 -284.015625 c 0
 368.064453125 -196.752929688 423.646484375 -110.831054688 510.912109375 -92.134765625 c 0
 598.176757812 -73.439453125 684.119140625 -129 702.815429688 -216.288085938 c 0
486.45703125 -222.984375 m 0
 486.45703125 -249.984375 508.342773438 -271.873046875 535.342773438 -271.873046875 c 0
 562.342773438 -271.873046875 584.231445312 -249.984375 584.231445312 -222.984375 c 0
 584.231445312 -195.984375 562.342773438 -174.095703125 535.342773438 -174.095703125 c 0
 508.342773438 -174.095703125 486.45703125 -195.984375 486.45703125 -222.984375 c 0
338.111328125 -342.768554688 m 0
 349.056640625 -393.791992188 316.53515625 -444.0234375 265.51171875 -454.96875 c 0
 214.48828125 -465.912109375 164.256835938 -433.392578125 153.311523438 -382.369140625 c 0
 142.369140625 -331.342773438 174.888671875 -281.111328125 225.912109375 -270.168945312 c 0
 276.935546875 -259.223632812 327.168945312 -291.743164062 338.111328125 -342.768554688 c 0
348.693359375 -270.48046875 m 0
 354.086914062 -295.650390625 378.865234375 -311.681640625 404.034179688 -306.288085938 c 0
 429.204101562 -300.895507812 445.235351562 -276.1171875 439.83984375 -250.947265625 c 0
 434.447265625 -225.778320312 409.670898438 -209.747070312 384.501953125 -215.142578125 c 0
 359.33203125 -220.53515625 343.30078125 -245.310546875 348.693359375 -270.48046875 c 0
447 -502.48828125 m 0
 361.96875 -520.704101562 303.45703125 -522.888671875 230.760742188 -524.280273438 c 0
 214.176757812 -524.638671875 183.838867188 -534.334960938 193.896484375 -581.280273438 c 0
 214.0078125 -675.142578125 346.9921875 -769.369140625 497.303710938 -737.161132812 c 0
 647.591796875 -704.953125 730.295898438 -564.50390625 710.184570312 -470.638671875 c 0
 700.126953125 -423.696289062 668.447265625 -427.247070312 653.184570312 -433.776367188 c 0
 586.319335938 -462.264648438 532.03125 -484.272460938 447 -502.48828125 c 0
264 -576.095703125 m 5
 264 -720.095703125 l 6
 264 -792.095703125 312 -864.095703125 408 -864.095703125 c 4
 504 -864.095703125 552 -792.095703125 552 -720.095703125 c 6
 552 -576.095703125 l 5
 264 -576.095703125 l 5
408 -765.192382812 m 4
 415.223632812 -765.192382812 421.080078125 -759.334960938 421.080078125 -752.111328125 c 6
 421.080078125 -601.03125 l 5
 394.896484375 -601.03125 l 5
 394.896484375 -752.111328125 l 6
 394.919921875 -759.334960938 400.776367188 -765.192382812 408 -765.192382812 c 4
240.815429688 -571.223632812 m 2
 240.815429688 -571.223632812 316.247070312 -579.599609375 457.056640625 -549.431640625 c 0
 597.865234375 -519.264648438 663.239257812 -480.696289062 663.239257812 -480.696289062 c 1
 663.239257812 -480.696289062 636.431640625 -584.615234375 472.153320312 -619.823242188 c 0
 307.873046875 -655.03125 240.815429688 -571.223632812 240.815429688 -571.223632812 c 2
EndSplineSet
Fore
Refer: 36 -1 N 0.977796 0.20955 -0.20955 0.977796 497 -737 2
EndChar

StartChar: SquintingFaceWithTongue.1
Encoding: 76 -1 77
Width: 864
Flags: W
LayerCount: 2
Back
SplineSet
864 -432 m 0
 864 -670.583984375 670.583984375 -864 432 -864 c 0
 193.439453125 -864 0 -670.583984375 0 -432 c 0
 0 -193.439453125 193.439453125 0 432 0 c 0
 670.583984375 0 864 -193.439453125 864 -432 c 1024
144.0234375 -480 m 0
 136.727539062 -480 129.52734375 -476.688476562 124.799804688 -470.400390625 c 0
 116.831054688 -459.815429688 118.9921875 -444.768554688 129.599609375 -436.823242188 c 0
 133.03125 -434.256835938 200.423828125 -384.431640625 294.142578125 -366.431640625 c 1
 234.743164062 -336.646484375 168.815429688 -336 167.9765625 -336 c 0
 154.727539062 -335.953125 144 -325.200195312 144.0234375 -311.953125 c 0
 144.0234375 -298.727539062 154.752929688 -288 168 -288 c 0
 173.303710938 -288 298.846679688 -288.912109375 376.96875 -367.03125 c 0
 383.831054688 -373.896484375 385.896484375 -384.215820312 382.176757812 -393.192382812 c 0
 378.45703125 -402.168945312 369.696289062 -408 360 -408 c 0
 249.288085938 -408 159.288085938 -474.52734375 158.400390625 -475.200195312 c 0
 154.080078125 -478.439453125 149.015625 -480 144.0234375 -480 c 0
719.9765625 -479.9765625 m 0
 714.984375 -479.9765625 709.943359375 -478.439453125 705.623046875 -475.223632812 c 0
 704.711914062 -474.52734375 614.161132812 -408 504 -408 c 0
 494.303710938 -408 485.51953125 -402.168945312 481.823242188 -393.192382812 c 0
 478.103515625 -384.215820312 480.168945312 -373.896484375 487.03125 -367.03125 c 0
 565.176757812 -288.912109375 690.696289062 -288 696 -288 c 0
 709.247070312 -288 719.953125 -298.727539062 719.9765625 -311.953125 c 0
 720 -325.200195312 709.272460938 -335.953125 696.046875 -336 c 0
 695.184570312 -336 629.256835938 -336.646484375 569.857421875 -366.431640625 c 1
 663.576171875 -384.431640625 730.96875 -434.231445312 734.376953125 -436.823242188 c 0
 744.9609375 -444.768554688 747.119140625 -459.768554688 739.200195312 -470.376953125 c 0
 734.49609375 -476.638671875 727.295898438 -479.9765625 719.9765625 -479.9765625 c 0
168 -510.311523438 m 1
 168 -605.447265625 278.303710938 -726.311523438 432 -726.311523438 c 0
 585.696289062 -726.311523438 696 -606.311523438 696 -510.311523438 c 1
 696 -510.311523438 448.0078125 -576.45703125 168 -510.311523438 c 1
445.080078125 -566.49609375 m 2
 418.896484375 -566.376953125 l 2
 341.711914062 -564.599609375 288 -552.072265625 288 -552.072265625 c 1
 288 -719.134765625 l 2
 288 -791.134765625 336 -863.134765625 432 -863.134765625 c 0
 528 -863.134765625 576 -791.134765625 576 -719.134765625 c 2
 576 -553.056640625 l 1
 529.873046875 -562.53515625 485.111328125 -566.087890625 445.080078125 -566.49609375 c 2
432 -764.256835938 m 0
 439.223632812 -764.256835938 445.080078125 -758.400390625 445.080078125 -751.176757812 c 2
 445.080078125 -566.51953125 l 1
 418.896484375 -566.400390625 l 1
 418.896484375 -751.176757812 l 2
 418.919921875 -758.400390625 424.776367188 -764.256835938 432 -764.256835938 c 0
EndSplineSet
Fore
Refer: 80 -1 N 1 0 0 1 432 -726 2
Refer: 35 -1 N -1 0 0 1 696 -312 2
Refer: 35 -1 N 1 0 0 1 168 -312 2
EndChar

StartChar: MoneyMouthFace.1
Encoding: 77 -1 78
Width: 864
Flags: W
LayerCount: 2
Back
SplineSet
864 -432 m 4
 864 -670.583984375 670.583984375 -864 432 -864 c 4
 193.439453125 -864 0 -670.583984375 0 -432 c 4
 0 -193.439453125 193.439453125 0 432 0 c 4
 670.583984375 0 864 -193.439453125 864 -432 c 1028
168 -510.311523438 m 1
 168 -605.447265625 278.303710938 -726.311523438 432 -726.311523438 c 0
 585.696289062 -726.311523438 696 -606.311523438 696 -510.311523438 c 1
 696 -510.311523438 448.0078125 -576.45703125 168 -510.311523438 c 1
288 -552.072265625 m 2
 288 -719.134765625 l 2
 288 -791.134765625 336 -863.134765625 432 -863.134765625 c 0
 528 -863.134765625 576 -791.134765625 576 -719.134765625 c 2
 576 -553.056640625 l 1
 425.015625 -584.064453125 288 -552.072265625 288 -552.072265625 c 2
294.815429688 -295.919921875 m 0
 276.672851562 -288.912109375 259.51171875 -282.288085938 259.51171875 -272.688476562 c 0
 259.51171875 -256.873046875 280.727539062 -256.056640625 284.9765625 -256.056640625 c 0
 299.9765625 -256.056640625 307.439453125 -261.672851562 314.015625 -266.638671875 c 0
 319.056640625 -270.45703125 324.288085938 -274.392578125 331.560546875 -274.392578125 c 0
 345.095703125 -274.392578125 351.264648438 -264.865234375 351.264648438 -256.0078125 c 0
 351.264648438 -238.342773438 329.615234375 -225.865234375 306.672851562 -220.630859375 c 2
 306.672851562 -211.200195312 l 2
 306.672851562 -198.768554688 296.568359375 -188.665039062 284.134765625 -188.665039062 c 0
 271.704101562 -188.665039062 261.599609375 -198.768554688 261.599609375 -211.200195312 c 2
 261.599609375 -221.423828125 l 2
 234.142578125 -229.416015625 217.319335938 -249.599609375 217.319335938 -275.064453125 c 0
 217.319335938 -306.52734375 248.353515625 -319.439453125 275.735351562 -330.815429688 c 0
 295.342773438 -338.9765625 313.873046875 -346.680664062 313.873046875 -358.704101562 c 0
 313.873046875 -367.48828125 302.831054688 -376.9921875 285 -376.9921875 c 0
 267 -376.9921875 256.680664062 -369.791992188 247.560546875 -363.45703125 c 0
 241.272460938 -359.064453125 235.319335938 -354.912109375 228.215820312 -354.912109375 c 0
 217.896484375 -354.912109375 209.831054688 -363.599609375 209.831054688 -374.688476562 c 0
 209.831054688 -390.984375 232.176757812 -407.231445312 261.599609375 -412.943359375 c 2
 261.599609375 -424.223632812 l 2
 261.599609375 -436.657226562 271.704101562 -446.735351562 284.134765625 -446.735351562 c 0
 296.568359375 -446.735351562 306.672851562 -436.630859375 306.672851562 -424.223632812 c 2
 306.552734375 -412.272460938 l 2
 337.657226562 -404.711914062 356.0390625 -382.943359375 356.0390625 -353.256835938 c 0
 356.064453125 -319.560546875 322.103515625 -306.45703125 294.815429688 -295.919921875 c 0
640.657226562 -353.665039062 m 0
 640.657226562 -319.96875 606.696289062 -306.865234375 579.408203125 -296.327148438 c 0
 561.264648438 -289.319335938 544.126953125 -282.696289062 544.126953125 -273.095703125 c 0
 544.126953125 -257.280273438 565.342773438 -256.46484375 569.591796875 -256.46484375 c 0
 584.591796875 -256.46484375 592.03125 -262.080078125 598.630859375 -267.046875 c 0
 603.696289062 -270.865234375 608.904296875 -274.799804688 616.153320312 -274.799804688 c 0
 629.711914062 -274.799804688 635.880859375 -265.272460938 635.880859375 -256.416015625 c 0
 635.880859375 -238.727539062 614.231445312 -226.272460938 591.288085938 -221.0390625 c 2
 591.288085938 -211.630859375 l 2
 591.288085938 -199.200195312 581.161132812 -189.095703125 568.752929688 -189.095703125 c 0
 556.319335938 -189.095703125 546.192382812 -199.200195312 546.192382812 -211.630859375 c 2
 546.192382812 -221.857421875 l 2
 518.760742188 -229.846679688 501.912109375 -250.03125 501.912109375 -275.49609375 c 0
 501.912109375 -306.9609375 532.943359375 -319.873046875 560.327148438 -331.247070312 c 0
 579.935546875 -339.408203125 598.46484375 -347.111328125 598.46484375 -359.134765625 c 0
 598.46484375 -367.919921875 587.447265625 -377.423828125 569.615234375 -377.423828125 c 0
 551.615234375 -377.423828125 541.295898438 -370.223632812 532.200195312 -363.888671875 c 0
 525.888671875 -359.49609375 519.935546875 -355.342773438 512.857421875 -355.342773438 c 0
 502.51171875 -355.342773438 494.447265625 -364.03125 494.447265625 -375.119140625 c 0
 494.447265625 -391.416015625 516.791992188 -407.665039062 546.192382812 -413.376953125 c 2
 546.192382812 -424.657226562 l 2
 546.192382812 -437.064453125 556.342773438 -447.168945312 568.776367188 -447.168945312 c 0
 581.208007812 -447.168945312 591.288085938 -437.064453125 591.288085938 -424.657226562 c 2
 591.215820312 -412.704101562 l 2
 622.295898438 -405.095703125 640.657226562 -383.353515625 640.657226562 -353.665039062 c 0
503.280273438 -745.657226562 m 0
 503.280273438 -712.823242188 470.184570312 -700.03125 443.591796875 -689.760742188 c 0
 425.904296875 -682.943359375 409.176757812 -676.46484375 409.176757812 -667.126953125 c 0
 409.176757812 -651.696289062 429.838867188 -650.927734375 433.9921875 -650.927734375 c 0
 448.607421875 -650.927734375 455.880859375 -656.423828125 462.311523438 -661.247070312 c 0
 467.231445312 -664.96875 472.342773438 -668.807617188 479.423828125 -668.807617188 c 0
 492.623046875 -668.807617188 498.646484375 -659.49609375 498.646484375 -650.880859375 c 0
 498.646484375 -633.672851562 477.552734375 -621.50390625 455.161132812 -616.392578125 c 2
 455.161132812 -607.200195312 l 2
 455.161132812 -595.080078125 445.295898438 -585.215820312 433.176757812 -585.215820312 c 0
 421.056640625 -585.215820312 411.192382812 -595.080078125 411.192382812 -607.200195312 c 2
 411.192382812 -617.161132812 l 2
 384.431640625 -624.935546875 368.015625 -644.638671875 368.015625 -669.45703125 c 0
 368.015625 -700.126953125 398.280273438 -712.727539062 424.96875 -723.815429688 c 0
 444.095703125 -731.760742188 462.142578125 -739.272460938 462.142578125 -750.984375 c 0
 462.142578125 -759.552734375 451.392578125 -768.815429688 433.9921875 -768.815429688 c 0
 416.447265625 -768.815429688 406.392578125 -761.807617188 397.51171875 -755.591796875 c 0
 391.392578125 -751.319335938 385.583984375 -747.264648438 378.672851562 -747.264648438 c 0
 368.615234375 -747.264648438 360.719726562 -755.760742188 360.719726562 -766.560546875 c 0
 360.719726562 -782.47265625 382.48828125 -798.288085938 411.168945312 -803.857421875 c 2
 411.168945312 -814.873046875 l 2
 411.168945312 -826.96875 421.03125 -836.807617188 433.176757812 -836.807617188 c 0
 445.295898438 -836.807617188 455.134765625 -826.96875 455.134765625 -814.873046875 c 2
 455.064453125 -803.208007812 l 2
 485.376953125 -795.791992188 503.280273438 -774.576171875 503.280273438 -745.657226562 c 0
EndSplineSet
Fore
Refer: 87 -1 N 0.25 0 0 0.25 569 -447 2
Refer: 87 -1 N 0.25 0 0 0.25 284 -447 2
Refer: 80 -1 N 1 0 0 1 432 -726 2
EndChar

